<?xml version="1.0" encoding="utf-8"?>
<!-- Generator: Adobe Illustrator 19.2.1, SVG Export Plug-In . SVG Version: 6.00 Build 0)  -->
<svg version="1.1" id="Layer_1" xmlns="http://www.w3.org/2000/svg" xmlns:xlink="http://www.w3.org/1999/xlink" x="0px" y="0px"
	 viewBox="0 0 960 560" style="enable-background:new 0 0 960 560;" xml:space="preserve">
<style type="text/css">
	.st0{fill:#070707;}
</style>
<g>
	<path class="st0" d="M375.9,225.2c-0.6,0.2-1.1,0.4-1.6,0.7c-0.1,0.1-0.3,0.2-0.4,0.3c-0.3,0.2-0.6,0.4-0.8,0.7
		c-0.5,0.5-1.1,0.9-1.6,1.4c-0.7,0.6-1.5,1.3-2.2,1.9c-0.8,0.8-1.7,1.5-2.6,2.3c-1,1-2,1.9-2.9,2.9c-0.7,0.7-1.3,1.3-2,2
		c-1.9,2.1-3.9,4.2-5.8,6.3c-1.3,1.4-2.5,3-3.7,4.4c-1.6,1.9-3.2,3.9-4.8,5.9c-0.4,0.5-0.8,1.1-1.2,1.6c-0.8,1.1-1.5,2.2-2.3,3.3
		c-1.6,1.8-3.2,3.6-4.7,5.5c-4.1,5.1-7.9,10.5-11.2,16.1c-2.1,3.6-3.9,7.4-5.4,11.2c-1.9,3.2-3.9,6.3-6,9.4c-2.2,3.3-4.6,6.5-7,9.7
		c-1.2,1.5-2.5,3-3.8,4.5c-1.5,1.6-3.1,3.1-4.8,4.4c-2.1,1.6-4.4,3-6.8,4.1c-2.1,0.8-4.2,1.5-6.4,1.8c-0.6,0.1-1.2,0.1-1.8,0.2
		c-0.9,0.1-1.9,0-2.8-0.1c-2.1-0.3-4.1-0.9-6-1.6c-2.5-1.2-4.9-2.7-7.1-4.4c-1.1-0.9-2.1-1.8-3.1-2.8c-0.5-0.5-1-1-1.5-1.5
		c-0.7-0.7-1.3-1.5-1.9-2.2l0,0c0.2,0.5,0.4,1,0.6,1.4c0.3,0.7,0.7,1.3,1,1.9c0.7,1.3,1.5,2.5,2.3,3.6s1.6,2,2.5,3
		c1.1,1.2,2.3,2.3,3.7,3.2c2.4,1.8,5.1,3,8.1,3.7c3.1,0.8,6.2,0.5,9.3-0.2c2.8-0.6,5.5-1.8,8-3.2c2.7-1.5,5.2-3.5,7.5-5.6
		c2.2-2,4.2-4.3,6-6.7c2-2.5,3.8-5.2,5.7-7.8c0.3-0.4,0.6-0.9,0.9-1.3c-0.1,0.7-0.1,1.4-0.1,2.2c0,1.4,0.1,2.8,0.3,4.1
		c0.2,1.7,0.6,3.4,1.2,5c0.9,2.6,2.4,5,4.1,7.2c0.9,1.2,1.9,2.3,3,3.3c1.2,1.2,2.6,2.2,3.9,3.1c2.5,1.7,5.2,2.9,8.1,3.7
		c1.4,0.4,2.9,0.6,4.4,0.8c1.8,0.2,3.6,0.1,5.4-0.1c2.5-0.3,4.9-1,7.3-2c2.2-0.9,4.2-2.1,6.2-3.5s3.8-2.9,5.6-4.5
		c0.9-0.9,1.8-1.8,2.7-2.7c0.9-0.9,1.8-1.9,2.6-2.8c2.7-3.2,5.5-6.5,8.2-9.7c2.5-3,5.2-5.8,7.8-8.7c0.6-0.6,1.1-1.2,1.7-1.9
		c-0.2,1-0.4,2-0.6,3c-0.3,2.1-0.6,4.2-0.8,6.3c-0.1,1.1-0.2,2.3-0.2,3.4c0,1.4,0.1,2.7,0.3,4.1c0.2,2,0.7,4,1.6,5.8
		c0.9,2,2.2,3.8,3.7,5.4c0.6,0.6,1.4,1.2,2.1,1.7c0.3,0.3,0.7,0.5,1.1,0.7c0.2,0.1,0.5,0.2,0.7,0.3c0.4,0.2,0.8,0.3,1.2,0.4
		c0.9,0.2,1.9,0.2,2.8,0c0.4,0,0.8-0.1,1.2-0.3c0.7-0.2,1.3-0.6,1.9-0.9c1.6-1,2.8-2.5,3.9-4c0.6-0.8,1-1.7,1.5-2.5
		c0.6-1.1,1.1-2.2,1.5-3.3c1.6-4.1,2.6-8.4,2.8-12.8c0.1-2.1-0.1-4.2-0.5-6.2c-0.3-1.4-0.8-2.8-1.5-4.1c0.3,0.1,0.5,0.2,0.8,0.3
		c1.4,0.7,2.7,1.4,3.9,2.3c1.4,1.2,2.7,2.6,3.9,4.1c1,1.4,1.9,2.8,2.8,4.3c1,1.9,2,3.8,2.9,5.7c0.7,1.5,1.4,3,2,4.5
		c0.6,1.4,1.2,2.9,1.9,4.3c0.7,1.4,2.8,1.5,3.8,0.5c0.3-0.3,0.5-0.5,0.8-0.8c0.5-0.4,0.8-1,1.1-1.6c0.4-0.6,0.6-1.3,0.9-2
		c0.2-0.5,0.4-1,0.6-1.6c1.9-4.1,4.1-8.1,6.9-11.8c2.3-2.8,4.9-5.4,7.7-7.7c1.2-0.9,2.5-1.7,3.7-2.5c1.3-0.8,2.6-1.4,3.9-2
		c0.5-0.2,1-0.4,1.5-0.5c0.1,0,0.1,0,0.2,0l0,0c0.1,0,0.1,0.1,0.2,0.1c0.1,0.1,0.3,0.2,0.4,0.4c0.3,0.5,0.6,0.9,0.8,1.4
		c0.8,2,1.3,4,1.7,6c0.2,1.3,0.5,2.6,0.8,4c0.2,1.2,0.4,2.4,0.6,3.6c0.2,1.1,0.4,2.3,0.7,3.4c0.4,1.6,1,3.1,1.7,4.5
		c0.1,0.2,0.2,0.4,0.3,0.6c0.3,0.4,0.5,0.7,0.8,1.1c0.5,0.5,1,1,1.6,1.4s1.2,0.8,1.9,1c0.7,0.2,1.4,0.3,2.1,0.4
		c1.4,0.1,2.8,0,4.2-0.3c0.7-0.1,1.4-0.4,2-0.7c0.9-0.4,1.8-0.8,2.7-1.2c1.3-0.7,2.5-1.5,3.8-2.3c1.3-0.9,2.6-1.8,3.8-2.8
		c2.7-2.1,5.3-4.6,7.8-6.9c2.4-2.3,4.6-4.6,6.9-7.1c2.4-2.6,4.7-5.3,6.9-8c0.2-0.2,0.4-0.5,0.6-0.7c-0.1,2.2-0.2,4.3-0.3,6.5
		c-0.1,3.3,0.1,6.6,0.4,9.9c0.2,1.5,0.4,3.1,0.6,4.6c0.3,1.8,0.7,3.7,1.1,5.5c0.3,1.4,0.6,2.8,1.1,4.1c0.2,0.6,0.5,1.1,0.9,1.6
		c0.3,0.5,0.7,1,1.2,1.3c0.6,0.3,1,0.5,1.7,0.6c0.2,0,0.4,0,0.6,0c0.4,0,0.9-0.1,1.3-0.2c0.2-0.1,0.4-0.2,0.6-0.2
		c0.4-0.2,0.8-0.4,1.2-0.6c0.8-0.4,1.5-1,2.2-1.6c1.1-0.9,2.1-2.1,3.1-3.1c1-1.1,1.9-2.2,2.8-3.4c1.1-1.4,2.1-2.7,3.3-4.1
		c1-1.2,2.1-2.4,3.1-3.6c0.5-0.6,1-1.2,1.5-1.7c1.3-1.3,2.6-2.6,3.9-3.9c-0.1,0.3-0.3,0.6-0.4,1c-0.8,1.9-1.4,3.9-2,6
		c-0.3,0.9-0.5,1.9-0.8,2.9c-0.3,1.2-0.4,2.4-0.5,3.6c-0.1,0.9,0.1,1.9,0.3,2.8s0.6,1.7,1,2.5s1,1.4,1.6,2c0.3,0.3,0.7,0.6,1.1,0.8
		c0.6,0.4,1.4,0.5,2.1,0.6c0.5,0.1,0.9,0.1,1.4,0.1s1-0.1,1.4-0.2c0.4-0.2,0.9-0.4,1.3-0.6c0.4-0.3,0.8-0.6,1.2-0.9
		c0.7-0.6,1.4-1.3,1.9-2.1c0.5-0.8,1-1.6,1.4-2.5c1.4-3.2,2.3-6.5,3.1-9.9c0.1-0.4,0.2-0.7,0.2-1.1c0.4,0.7,0.7,1.5,1.1,2.2
		c0.9,1.7,2,3.3,3.2,4.8c0.6,0.7,1.2,1.4,1.9,2.1c0.8,0.9,1.8,1.6,2.7,2.3c0.7,0.5,1.6,0.9,2.4,1.2c0.8,0.3,1.7,0.5,2.5,0.7
		c0.9,0.2,1.8,0.3,2.8,0.3c1.1,0.1,2.3-0.1,3.4-0.4c1-0.2,1.9-0.7,2.8-1.1c1.2-0.5,2.2-1.3,3.3-2c0.8-0.6,1.6-1.2,2.3-1.8
		c0.9-0.8,1.8-1.7,2.5-2.7c1.3-1.5,2.4-3.1,3.6-4.7c1.3-1.8,2.3-3.8,3.4-5.7c1-1.8,2-3.6,3.1-5.4c0.7-1.3,1.5-2.6,2.3-3.9
		c0.9-1.5,1.8-3,2.8-4.4c0.5,0.3,1,0.6,1.5,1c0.2,0.2,0.5,0.4,0.7,0.6c-0.3,0.3-0.5,0.6-0.7,1c-0.4,0.6-0.8,1.2-1.2,1.8
		c-0.8,1.3-1.4,2.7-2,4.1c-0.7,1.7-1.3,3.5-1.8,5.3c-0.9,3.1-1.3,6.3-1.6,9.5c-0.3,3.4,0.1,6.8,1.1,10c0.4,1.3,1,2.5,1.8,3.6
		c0.8,1.2,1.8,2.1,3.1,2.6c1.4,0.5,2.8,0.6,4.3,0.4c1.7-0.2,3.2-0.9,4.6-1.8c1.3-0.7,2.5-1.6,3.6-2.6c1.2-1,2.3-2,3.4-3.1
		c1.1-1.1,2.1-2.3,3.1-3.4c1.3-1.4,2.5-2.9,3.7-4.4c4.6-5.7,8.6-11.8,12.8-17.8c0.4-0.6,0.8-1.2,1.2-1.8c0.2,2,0.4,3.9,0.8,5.8
		c0.6,3.1,1.8,6.1,3.3,8.9c2.9,5.3,7.6,9.5,13.1,12c2.6,1.2,5.5,2,8.4,2.3s5.8,0.1,8.7-0.4c2.9-0.6,5.7-1.9,8.2-3.5
		c2.4-1.5,4.6-3.5,6.4-5.7c0.9-1.1,1.6-2.3,2.2-3.6c0.5-1.2,0.9-2.5,1.2-3.8c0.3-1.4,0.5-2.7,0.6-4.1c0.1-1.1,0.1-2.2,0.1-3.4
		c0.1-2.7,0.3-5.4-0.1-8l0,0c0,0.3-0.1,0.6-0.1,0.8c-0.3,1.8-0.8,3.5-1.2,5.2c-0.2,0.9-0.5,1.8-0.7,2.7c-0.3,1-0.5,2-0.8,3
		c-0.3,1.1-0.8,2.2-1.2,3.3c-0.2,0.6-0.5,1.1-0.8,1.7c-0.4,0.7-0.8,1.4-1.3,2.1c-1.3,1.5-2.7,2.9-4.3,4.1c-1.9,1.4-3.9,2.7-6.1,3.7
		c-1.7,0.6-3.4,1.1-5.1,1.3c-2,0.2-3.9,0.2-5.9,0c-2.1-0.4-4-0.9-6-1.7c-1.9-0.9-3.7-1.9-5.3-3.1c-1.4-1.1-2.7-2.4-3.9-3.8
		c-1.3-1.8-2.4-3.7-3.3-5.7c-1-2.4-1.5-4.9-1.9-7.4c-0.2-2-0.4-4.1-0.4-6.1c0-1.4,0.1-2.7,0.2-4.1c0.6-0.9,1.1-1.8,1.7-2.6
		c0.8-1.2,1.4-2.4,2.1-3.6c1.7-3,3.2-6,4.6-9.2c1.3-2.9,2.4-5.8,3.3-8.8c0.6-2,1.1-4,1.6-6c0.3-1,0.5-2,0.8-3c0.2-0.7,0.3-1.3,0.5-2
		c0.1-0.4,0.2-0.9,0.3-1.3c0.1-0.4,0.1-0.9,0.2-1.3c0.1-0.4,0.1-0.8,0.1-1.2c-0.1-1.2-1-2.3-2.1-2.7c-0.6-0.2-1.1-0.3-1.8-0.1
		c-0.6,0.1-1,0.3-1.6,0.6c-0.2,0.1-0.3,0.2-0.5,0.4c-0.3,0.2-0.6,0.5-0.9,0.8c-0.5,0.4-0.9,1-1.3,1.5c-1,1.3-1.7,2.6-2.5,4
		c-1.5,2.7-2.6,5.6-3.7,8.5c-1.2,3.3-2.2,6.7-3.1,10.1c-0.8,3.2-1.4,6.4-1.9,9.7c-0.2,1.5-0.4,3-0.5,4.4c-1.4,2.1-2.8,4.2-4.3,6.4
		c-0.4,0.5-0.7,1-1.1,1.5c-1.1,1.5-2.2,3-3.3,4.5c-2.1,2.8-4.1,5.6-6.2,8.4c-2.1,2.7-4.3,5.4-6.6,8c-2.2,2.4-4.3,4.7-6.8,6.7
		c-1.3,1-2.7,1.9-4.2,2.6c-0.5,0.1-0.9,0.3-1.3,0.4c-0.3,0-0.5,0-0.8,0c-0.1,0-0.2,0-0.3-0.1c0,0,0,0-0.1,0
		c-0.1-0.1-0.2-0.2-0.3-0.3c-0.4-0.6-0.7-1.1-1-1.7c-0.4-1.1-0.7-2.3-0.9-3.5c-0.1-0.9-0.1-1.8-0.1-2.7c0-1.2,0.1-2.5,0.3-3.7
		c0.6-3.7,1.5-7.3,2.9-10.8c0.8-1.7,1.6-3.3,2.7-4.8c0.5-0.6,1-1.1,1.6-1.7c0,0,0.1,0,0.1-0.1c0.3-0.1,0.7-0.2,1-0.4
		c0.5-0.3,0.9-0.7,1.2-1.2c0.1-0.3,0.2-0.5,0.3-0.8c0.2-0.6,0.2-1.2,0-1.8c-0.2-0.6-0.4-1-0.8-1.5c-0.9-0.8-2-1.4-2.9-2.1
		c-1.3-0.9-2.6-1.8-4-2.5c-0.6-0.3-1.2-0.5-1.8-0.7c-0.3,0-0.5-0.1-0.8-0.1c-0.5,0-1,0.1-1.5,0.1c-0.7,0.3-1.3,0.5-1.9,1
		c-0.6,0.5-1,1.1-1.4,1.7c-0.9,1.4-1.7,2.9-2.5,4.3c-1.1,1.9-2.2,3.9-3.4,5.9c-0.7,1.2-1.3,2.3-2,3.5c-0.9,1.5-1.8,3-2.7,4.4
		s-1.9,2.7-2.9,4.1c-1.2,1.6-2.5,3-4.1,4.3c-1.3,1-2.7,1.9-4.2,2.6c-0.6,0.2-1.1,0.4-1.7,0.5c-0.8,0.1-1.5,0-2.3,0
		c-0.9-0.2-1.7-0.4-2.5-0.7c-0.5-0.3-1-0.6-1.5-0.9c-1.1-1-2.1-2.1-3-3.2c-1.6-2.2-2.9-4.7-4-7.2c-0.9-2.3-1.7-4.7-2.4-7.1
		c-0.4-1.3-1.5-2.2-2.9-2.2c-1.3,0-2.6,0.9-2.9,2.2c-0.2,0.9-0.3,1.9-0.5,2.8c-0.1,0.5-0.2,1-0.3,1.5c-0.2,1.1-0.5,2.2-0.7,3.3
		c-0.3,1.3-0.6,2.5-0.9,3.8c-0.7,2.7-1.5,5.3-2.6,7.9c-0.3,0.7-0.7,1.4-1.1,2c-0.3,0.4-0.7,0.7-1,1c-0.1,0-0.1,0.1-0.2,0.1
		c-0.1,0-0.2,0-0.3,0.1c-0.1,0-0.1,0-0.2,0h-0.1l0,0c-0.1-0.1-0.2-0.2-0.3-0.3c-0.1-0.1-0.2-0.3-0.3-0.5c-0.1-0.4-0.2-0.7-0.3-1.1
		c-0.1-0.7,0-1.4,0-2.1c0.3-1.5,0.7-3,1.1-4.5c0.6-1.9,1.3-3.8,2-5.6c1-2.2,2-4.3,3.2-6.4s2.6-4.1,4.1-6.1c0.5-0.6,1-1.3,1.6-1.9
		c0.2-0.3,0.5-0.5,0.8-0.8c0.1-0.1,0.3-0.2,0.4-0.4c0.5-0.4,1-0.7,1.5-1.1c0.3-0.3,0.6-0.7,0.7-1.2c0.2-0.6,0.1-1.1,0-1.6
		c-0.1-0.7-0.7-1.3-1.3-1.6c-0.8-0.5-2-0.6-2.8,0s-1.5,1.1-2.3,1.7c-0.7,0.6-1.4,1.4-2,2.2c-0.3,0.3-0.6,0.7-0.8,1
		c-1.2,1.1-2.4,2.1-3.6,3.1c-1.2,1-2.4,2.1-3.5,3.1s-2.2,1.9-3.3,3c-1.6,1.6-3.2,3.1-4.7,4.7c-0.9,0.9-1.7,1.8-2.6,2.8
		c-1.2,1.4-2.4,2.8-3.6,4.2c-1.4,1.7-2.7,3.5-4.1,5.2c-0.6,0.7-1.3,1.5-1.9,2.2c-0.7,0.8-1.4,1.6-2.3,2.2c-0.5,0.4-1,0.7-1.6,1
		l-0.1-0.1c-0.2-0.4-0.4-0.9-0.6-1.3c0.1,0.2,0.1,0.4,0.2,0.5c-0.5-1.3-0.9-2.7-1.2-4.1c-0.4-1.8-0.8-3.5-1-5.3
		c-0.3-2.4-0.5-4.7-0.6-7.1c-0.1-2.5,0-5,0.1-7.5c0.2-3.6,0.5-7.2,0.9-10.7c0-0.1,0.1-0.1,0.1-0.2c1.8-2.9,3.5-5.9,5-8.9
		c2.9-5.7,5.3-11.7,7-17.8c0.8-2.6,1.3-5.4,1.3-8.1c0-0.5-0.1-1.2-0.2-1.7c-0.1-0.5-0.3-0.9-0.5-1.4c-0.3-0.5-0.7-0.8-1.2-1.1
		c-0.3-0.2-0.7-0.3-1-0.4c-0.3-0.1-0.7-0.1-1-0.1c-0.2,0-0.4,0.1-0.6,0.1c-0.3,0.1-0.7,0.3-1,0.4c-0.5,0.3-0.9,0.6-1.3,1
		c-0.4,0.4-0.8,0.9-1.1,1.3c-0.4,0.5-0.7,1-1,1.5c-1.8,2.7-2.9,5.6-3.9,8.6c-1,3-1.7,6.1-2.3,9.2c-0.7,3.4-1.2,6.9-1.7,10.4
		c-0.2,1.6-0.4,3.2-0.6,4.8c-0.8,1.2-1.6,2.3-2.4,3.4c-3.5,4.4-7.3,8.5-11.3,12.5c-2.1,2.1-4.3,4.2-6.5,6.2
		c-2.1,1.8-4.1,3.7-6.3,5.4c-2.5,1.9-5.2,3.6-8,5c-1,0.4-2,0.7-3,0.9c-0.6,0-1.1,0-1.7,0c-0.2,0-0.4-0.1-0.6-0.2
		c-0.1-0.1-0.2-0.1-0.3-0.2c-0.3-0.3-0.6-0.6-0.9-0.9c-0.4-0.6-0.7-1.1-1-1.7c-0.8-2.2-1.3-4.4-1.7-6.7c-0.3-1.3-0.5-2.7-0.8-4
		c-0.4-2.1-0.9-4.1-1.5-6.2c-0.2-0.7-0.5-1.3-0.8-1.9c-0.4-0.9-0.8-1.6-1.3-2.4c-0.9-1.3-2.4-2.5-4.1-2.6c-0.5,0-1.1,0-1.6,0.1
		c-0.8,0.2-1.5,0.5-2.2,0.8c-1.6,0.6-3.1,1.4-4.5,2.2c-3.4,1.9-6.4,4.3-9.2,6.9c-2.8,2.7-5.1,5.7-7.2,9c-1,1.5-1.8,3.1-2.7,4.7
		c-0.5,0.9-0.9,1.8-1.4,2.8c-0.2,0.5-0.5,1.1-0.7,1.6c-0.1-0.1-0.1-0.2-0.2-0.3c-0.4-0.9-0.9-1.9-1.3-2.8c-1.8-3.9-3.6-7.9-6.1-11.4
		c-1.3-1.8-2.7-3.5-4.3-5.1c-1.6-1.5-3.5-2.8-5.4-3.8s-3.9-1.6-6-1.9c-2-0.3-4-0.3-5.9,0c-0.3,0-0.5,0.1-0.8,0.1
		c-0.5,0.1-1,0.4-1.3,0.8c-0.5,0.5-1,1.4-0.9,2.2c0,0.4,0.1,0.7,0.1,1.1c0.1,0.5,0.4,1,0.8,1.4c0.5,0.5,1.3,0.9,2,1
		c0.8,0.2,1.5,0.3,2.3,0.6c0.2,0.1,0.3,0.2,0.5,0.3c0.4,0.3,0.7,0.7,1,1.1c0.3,0.5,0.6,1,0.9,1.5c0.3,0.7,0.5,1.5,0.6,2.3
		c0.2,2.1,0.2,4.2-0.1,6.3c-0.5,3-1.3,5.9-2.4,8.7c-0.8,1.8-1.7,3.6-2.9,5.3c-0.4,0.5-0.9,1-1.4,1.5c-0.4,0.3-0.7,0.5-1.1,0.7
		c-0.1,0-0.2,0.1-0.4,0.1c-0.2,0-0.4,0-0.6,0c-0.1,0-0.2,0-0.3-0.1c-0.4-0.2-0.8-0.5-1.2-0.8c-0.7-0.6-1.4-1.2-2-1.9
		c-0.7-1-1.3-2-1.8-3c-0.4-1.1-0.7-2.3-0.9-3.5c-0.1-0.6-0.1-1.2-0.2-1.8c-0.1-1.1,0-2.3,0-3.4c0.1-1.7,0.3-3.4,0.5-5.1
		c0.3-2.4,0.8-4.7,1.3-7c0.6-2.5,1.3-5,2-7.5c0.3-1.1-0.2-2.3-1.1-2.8c-0.6-0.3-1.3-0.4-1.9-0.3c-0.7,0.2-1.1,0.6-1.5,1.2
		c-0.3,0.5-0.7,1-1.1,1.5c-1.9,2.5-4,4.8-6.1,7.2c-2.3,2.7-4.6,5.3-7,7.9c-1.9,2.2-3.7,4.4-5.5,6.6c-1.3,1.6-2.6,3.1-3.9,4.7
		c-0.5,0.6-1,1.1-1.5,1.7c-0.8,0.9-1.7,1.9-2.6,2.8c-1.5,1.5-3.1,2.9-4.8,4.2c-2.1,1.6-4.2,3-6.6,4.1c-2.2,0.9-4.5,1.5-6.8,1.9
		c-1.7,0.2-3.4,0.2-5.1,0c-2.1-0.3-4.1-0.9-6.1-1.7c-2-0.9-3.9-2-5.7-3.3c-1.8-1.5-3.4-3.1-4.8-4.9c-1.1-1.5-2.1-3.1-2.8-4.8
		c-0.7-1.7-1.1-3.5-1.4-5.3c-0.1-0.9-0.2-1.8-0.2-2.7c0-1,0.1-2,0.2-2.9c0.4-2.9,1.1-5.7,2.1-8.4c1.5-2.4,2.9-4.9,4.4-7.3
		c1.1-1.8,2.2-3.7,3.3-5.5c2.9-4.7,5.7-9.4,8.6-14.2c0.4-0.6,0.8-1.2,1.2-1.8c0.6-0.9,1.2-1.8,1.9-2.7c2.8-3.1,5.7-6.1,8.7-9.1
		c4.7-4.6,9.7-8.9,14.9-13c2.1-1.6,4.3-3.2,6.5-4.6c2.2-1.5,4.4-2.8,6.8-3.8c1.2-0.5,2.4-0.9,3.6-1.1c0.2,0,0.5,0,0.7,0
		c0.4,0,0.8-0.1,1.1-0.2c1.2-0.3,2-1.4,2-2.7c0-0.8-0.2-1.6-0.8-2.1c-0.5-0.5-1.2-0.8-1.9-1.1c-0.8-0.4-1.7-0.7-2.5-1c0,0,0,0-0.1,0
		h-0.1l0,0c-1.1-0.4-2.1-0.9-3.2-1.2c-0.2-0.1-0.4-0.1-0.6-0.2c-0.4-0.1-0.8-0.1-1.2-0.2c-0.2,0-0.5,0-0.7,0
		C376.8,225.1,376.4,225.1,375.9,225.2L375.9,225.2z M377.1,229.3c-0.1,0-0.3,0-0.4,0.1C376.8,229.4,376.9,229.4,377.1,229.3
		L377.1,229.3z M377.4,229.4c0.3,0.1,0.5,0.1,0.8,0.2c0.2,0.1,0.3,0.1,0.5,0.2c-0.7,0.3-1.3,0.6-1.9,0.9c-3.1,1.6-6,3.7-8.8,5.8
		c-1,0.8-2.1,1.6-3.1,2.4c0.5-0.5,1-0.9,1.5-1.4c0.7-0.6,1.3-1.3,2-1.9c0.3-0.3,0.6-0.6,0.9-0.9c1.1-0.9,2.1-1.8,3.2-2.7
		c1.2-0.9,2.5-1.8,3.8-2.6c0.1,0,0.2-0.1,0.3-0.1C376.9,229.4,377.2,229.4,377.4,229.4L377.4,229.4z M377.6,229.4
		c0.1,0,0.3,0,0.4,0.1C377.8,229.5,377.7,229.4,377.6,229.4L377.6,229.4z M376.3,229.5c-0.1,0.1-0.3,0.1-0.4,0.2
		C376,229.6,376.1,229.5,376.3,229.5L376.3,229.5z M378.3,229.7c0.1,0,0.1,0.1,0.2,0.1C378.5,229.7,378.4,229.7,378.3,229.7
		L378.3,229.7z M529.4,248.5c0,0.8,0,1.6-0.1,2.4c-0.3,2-0.9,4-1.5,6c-0.7,2.1-1.4,4.1-2.3,6.2c-1.1,2.6-2.3,5.1-3.6,7.6
		c0.3-1.7,0.6-3.4,1-5.1c0.8-4,1.9-7.9,3.4-11.6C527.2,252,528.2,250.2,529.4,248.5L529.4,248.5z M657.3,253
		c0.1-0.2,0.2-0.4,0.3-0.5c-0.1,0.4-0.2,0.8-0.3,1.2c-0.4,1.5-0.7,3-1.2,4.4c-0.8,2.7-1.8,5.4-2.8,8c-0.9,2-1.8,3.9-2.8,5.8
		c0.2-0.8,0.4-1.6,0.6-2.4c1.1-4.1,2.4-8.1,4-12C655.8,256,656.5,254.5,657.3,253L657.3,253z M696.2,289.8L696.2,289.8L696.2,289.8
		L696.2,289.8z M461.4,292.1c-0.1,0-0.2,0.1-0.3,0.1C461.2,292.2,461.3,292.1,461.4,292.1L461.4,292.1z M464,292.2l0.1,0.1
		C464.1,292.3,464.1,292.3,464,292.2L464,292.2z M476.3,313.5c0.2,0.1,0.4,0.2,0.6,0.3C476.7,313.7,476.5,313.6,476.3,313.5
		L476.3,313.5z M477.1,313.7c0.1,0,0.3,0,0.4,0.1C477.4,313.7,477.2,313.7,477.1,313.7L477.1,313.7z M439.6,315.4
		c0,0.1-0.1,0.2-0.1,0.3C439.5,315.7,439.5,315.5,439.6,315.4L439.6,315.4z M549.7,316.8c-0.1,0-0.1,0.1-0.2,0.1
		C549.6,316.8,549.6,316.8,549.7,316.8L549.7,316.8z M548.3,317c0,0.1,0.1,0.1,0.1,0.2l0,0C548.4,317.1,548.3,317,548.3,317
		L548.3,317z M548.4,317.1L548.4,317.1C548.4,317.2,548.4,317.2,548.4,317.1C548.4,317.2,548.4,317.2,548.4,317.1
		C548.4,317.2,548.4,317.1,548.4,317.1L548.4,317.1z M549.4,317.2c-0.1,0-0.1,0-0.2,0C549.3,317.2,549.3,317.2,549.4,317.2
		L549.4,317.2z M548,317.2c0.1,0,0.1,0,0.2,0C548.2,317.2,548.1,317.2,548,317.2L548,317.2z M548.5,317.2L548.5,317.2
		C548.5,317.3,548.5,317.3,548.5,317.2C548.5,317.3,548.5,317.3,548.5,317.2L548.5,317.2z M548.8,317.3L548.8,317.3L548.8,317.3
		L548.8,317.3L548.8,317.3z M548.7,317.3L548.7,317.3L548.7,317.3C548.7,317.4,548.7,317.3,548.7,317.3L548.7,317.3L548.7,317.3z
		 M548.7,317.4L548.7,317.4c-0.1,0-0.1,0.1-0.2,0.1C548.6,317.4,548.6,317.4,548.7,317.4L548.7,317.4z M548.8,317.4
		c0.1,0.1,0.1,0.1,0.2,0.2C548.9,317.5,548.9,317.5,548.8,317.4L548.8,317.4z M301.4,319.5c-0.1,0-0.1,0.1-0.2,0.1
		C301.3,319.6,301.3,319.5,301.4,319.5L301.4,319.5z M608.2,320.8c0.1,0.1,0.1,0.2,0.2,0.2C608.3,321,608.2,320.9,608.2,320.8
		L608.2,320.8z M608.2,321.3L608.2,321.3C608.3,321.3,608.3,321.3,608.2,321.3L608.2,321.3z M609.3,321.6c0.1,0,0.1,0,0.2,0l0,0
		C609.4,321.6,609.4,321.6,609.3,321.6L609.3,321.6z M609.5,321.6C609.5,321.7,609.5,321.7,609.5,321.6
		C609.5,321.7,609.5,321.7,609.5,321.6L609.5,321.6L609.5,321.6z M402.8,324.2c-0.1,0-0.1,0.1-0.2,0.1
		C402.6,324.2,402.7,324.2,402.8,324.2L402.8,324.2z M400.6,324.2c0.1,0,0.1,0,0.2,0.1C400.7,324.2,400.6,324.2,400.6,324.2
		L400.6,324.2z M401.6,324.5L401.6,324.5C401.7,324.5,401.7,324.5,401.6,324.5L401.6,324.5L401.6,324.5z M401.7,324.5h0.1
		C401.7,324.5,401.7,324.5,401.7,324.5L401.7,324.5L401.7,324.5z"/>
	<path class="st0" d="M693.7,267.4c-1.7,0.9-3.5,1.6-5.2,2.4c-3,1.2-5.9,2.4-8.8,3.7c0.1-0.1,0.3-0.1,0.4-0.2
		c-4.4,1.8-8.9,3.3-13.4,4.6c-2.3,0.7-4.6,1.3-6.9,1.8c-2.5,0.6-5,1.1-7.5,1.6c-4.8,1-9.5,2-14.3,3.1c-2.3,0.5-4.6,1-6.9,1.6
		c-2.3,0.6-4.7,1-7,1.6l0,0c1.8,0.2,3.6,0.3,5.5,0.4c2,0.1,4.1,0.1,6.1,0.1c3.9,0,7.8-0.2,11.7-0.7c4-0.5,8-1.2,11.9-2.1
		c3.8-0.9,7.7-1.9,11.3-3.3s7.1-3.2,10.3-5.3c2-1.3,3.9-2.6,5.8-4c1.1-0.8,2.2-1.5,3.3-2.3s2.2-1.6,3.2-2.5
		C693.4,267.7,693.5,267.6,693.7,267.4L693.7,267.4L693.7,267.4L693.7,267.4z"/>
	<path class="st0" d="M551.4,265.8c-1.8,0.2-3.5,0.3-5.2,0.5c-1.3,0.1-2.6,0.3-3.9,0.4c-0.8,0.1-1.6,0.2-2.4,0.3
		c-2,0.3-4.1,0.7-6.1,1c-1.5,0.3-3,0.5-4.4,0.8c-1.7,0.4-3.4,0.8-5.1,1.3c-4.3,1.2-8.5,2.5-12.8,3.9c-3.7,1.2-7.4,2.6-11.1,4l0,0
		c6-0.8,11.9-1.7,17.8-2.8c4.1-0.8,8.3-1.7,12.3-2.8c1.8-0.5,3.6-0.9,5.3-1.4c1.6-0.5,3.3-1,4.9-1.4c3.7-1,7.4-2,11.1-3
		c1.8-0.5,3.6-1,5.4-1.3l0,0C555.4,265.4,553.4,265.6,551.4,265.8L551.4,265.8z"/>
</g>
</svg>
