<?xml version="1.0" encoding="utf-8"?>
<!-- Generator: Adobe Illustrator 19.2.1, SVG Export Plug-In . SVG Version: 6.00 Build 0)  -->
<?xml-stylesheet type="text/css" href="../../css/links.css" ?>

<svg version="1.1" id="contact-animate" xmlns="http://www.w3.org/2000/svg" xmlns:xlink="http://www.w3.org/1999/xlink" x="0px" y="0px"
	 viewBox="25 90 960 560" style="enable-background:new 0 0 960 560;" xml:space="preserve">
<script xlink:href="../../../js/links.js" />
<g id="Layer_3">
	<g id="Layer_3_1_">
		<path class="cursive-text" d="M726.1,276.7c1.4,24.1-12,43.7-36,54.3c3.8-23.6,12.8-46.2,26.2-66.6c-17.2,18.2-36.3,34.9-57,49.9
			c-11.2,8.1-22.9,15.5-34.9,22.6c-21.8-45.7-18-103.2,9.8-145.9c-6,41.3-19.6,86-47.5,120.1c-9.6,11.8-21,22.4-34.1,31.2
			c-20.7,1.2-31.7-11.5-37.7-28c-5.2-14-6.5-30.2-7.1-42.2c-25.7,12.5-40.7,34.1-42.6,60.2c3.8-20.6,0-41.8-11.5-60.2
			c-14.2,40.3-81.9,40.3-95.8-0.2c13.1,8.6,37.7,23.6,37.7,40.5c0,11.1-13.1,15.5-23.5,16.9c-8.7,1.2-27,1.5-41.8-2.5
			c-12.3-3.2-21.8-9.3-21.3-19.6c1.4-18.2,34.1-29.7,48.8-35.6c-24-7.4-47.2,28.7-58.9,42c0.3-0.2,0.8-0.2,1.1-0.5
			c-17.5,20.4-39,45.7-69.3,50.1c-16.9,2.5-37.7-2.5-53.8-11.8c-7.6-4.4-14.5-10.1-19.1-16.2c-26.5-35.9,9.3-84.5,36.3-110.8
			c17.7-17.4,39.6-33.7,64.7-41.8c-41.8,4.4-71.2,34.9-95,63.4c-26.5,30.7-52.9,73.9-91.7,95.5C52.1,352.8,28.7,358,0,352.1
			 M725.3,277.4c-2.7,12.5-8.2,34.4,1.9,45.7c9.3,10.1,25.9,3.2,39.8-5.2c7.6-4.7,14.5-9.8,18.3-12.8c15.6-11.5,30.8-24.3,43.9-38.3
			c-27.3,1.2-46.1,21.9-39.6,46.2c3.5,13.5,13.1,22.4,25.1,27.3c12,4.7,26.7,5.4,40.4,2c10.6-2.5,19.1-8.1,25.9-15.2
			c6.3-6.6,11.5-14.5,15.8-22.1c11.2-20.1,18.8-42,23.7-63.9c3.8-16.7,7.9-35.6,4.9-52.6c-3.3,9.8-5.2,20.4-6.8,30.5
			c-5.2,29.2-9.3,60.2-4.9,89.7c1.1,6.6,2.7,13,5.5,18.4c6.5,13.8,18.8,21.9,39,12.3 M871.9,275.9c29.5,0.2,58.9-1.2,88.1-4.2
			 M571.7,279.6c33.8-4.2,67.4-8.8,101-14.2"/>
	</g>
</g>
<g id="Layer_2">
	<path class="print-text" d="M308.8,331.8c-7.1,9.3-15.4,17-24.4,23c-14.3,9.5-30.5,14.8-46.6,16c-18.8,1.4-37.4-2.7-52.7-12.5
		c-12.6-7.9-22.8-19.6-29.1-34.9c-3.4-8.4-5.7-17.8-6.4-28.3c-2.9-39.5,7.7-60.4,23.9-72.4c13.5-10,31-13.7,47.8-16.7
		s33.1-5.3,44.2-12.3"/>
	<path class="print-text" d="M513.5,343.5c15.9-23.1,12-39.1,0-48.3c-6.6-5-15.5-8.1-25-9.3c-8-1-16.3-0.6-24.2,1.1
		c-26.5,5.7-45.6,27.1-15,62.7c-1.6-25-7.1-49.4-16.4-72.7"/>
	<path class="print-text" d="M586.8,342.7c0.5-4.9,0.8-9.8,1.1-14.6c1.6-27.7,1.1-55.3-1.9-82.7c-1.6-14.9-4.1-29.6-7.1-44.2 M542.2,286.5
		c31.2,9.2,58.8,6.2,82.5-9.5"/>
	<path class="print-text" d="M675.6,285.2c-4.1,4.2-8.9,6.7-13.3,9.5c-4.7,2.9-9,6.2-11.8,12.2c-4.9,11.1-4.1,23.6-7.9,35
		c8.4-4.1,16.9-10.1,23.6-17.3c10.1-10.9,16.5-24.8,13-39.9h-0.5c-5.5,17.6,9.6,34.7,22.7,44.5c4.1,3,11.1,7.6,17.9,9.8
		c6.8,2.2,13.5,1.9,17.1-4.9"/>
	<path class="print-text" d="M812.8,276.8c-12.2-0.4-25.5,4.1-35.7,11.9c-12.6,9.7-20.2,24.4-14.6,41.2c3,9,10.3,13.6,18.8,15.6
		c10,2.3,21.7,1.1,30.4-0.6c6.6-1.4,15-2.7,20.5-7.1"/>
	<path class="print-text" d="M885.3,343.5c1.5-4.3,2.4-9.9,3-16.2c0.4-4.4,0.7-9.2,0.8-14.2c0.1-4.2,0.1-8.6,0-13.1
		c-0.3-11.4-1.3-23.5-2.9-35.1c-0.7-5.4-1.6-10.6-2.5-15.6c-1.3-6.4-2.8-12.5-4.4-18c-2.5-8.4-5.3-15.3-8.5-19.7 M845.6,288.7
		c6.4-0.6,13-1.1,19.6-1.6c19.1-1.4,38.7-3.1,56.4-8.7"/>
	<path class="print-text" d="M353.9,347c9.1,4.9,17.2,6.1,24,4.5c10.1-2.3,17.4-10.4,21.3-20.8c2.9-7.5,3.9-16.3,2.7-24.8
		c-1.3-9-5.1-17.7-11.7-24.5c-8.4-8.4-17.1-11.4-25.2-10.7c-9.1,0.8-17.3,6.2-23.3,14c-0.9,1.2-1.8,2.5-2.6,3.8
		c-5.2,8.5-7.9,19.1-6.5,29.3C334.1,329,340.6,339.8,353.9,347z"/>
</g>
</svg>
