<?xml version="1.0" encoding="utf-8"?>
<!-- Generator: Adobe Illustrator 19.2.1, SVG Export Plug-In . SVG Version: 6.00 Build 0)  -->
<svg version="1.1" id="Layer_1" xmlns="http://www.w3.org/2000/svg" xmlns:xlink="http://www.w3.org/1999/xlink" x="0px" y="0px"
	 viewBox="0 0 960 560" style="enable-background:new 0 0 960 560;" xml:space="preserve">
<style type="text/css">
	.st0{fill:#070707;}
</style>
<path class="st0" d="M833.1,526.1C833.1,526.1,833.1,526.2,833.1,526.1c0.2,0.1,0.4,0.2,0.6,0.3c0-0.1-0.1-0.2-0.1-0.3
	C833.4,526.1,833.3,526.1,833.1,526.1L833.1,526.1z"/>
<g>
	<path class="st0" d="M392.5,234.8c-2.2-1.8-5.2-2.3-7.9-2.6c-3-0.3-6.1,0-9.1,0.4c-3.2,0.4-6.3,1.2-9.4,2.1
		c-3.2,0.9-6.3,2.1-9.3,3.3c-2.5,1-5,2.2-7.4,3.3c-1.1,0.5-2.1,1.1-3.2,1.6c-0.5,0.3-1,0.5-1.6,0.8c-0.7,0.3-1.4,0.7-2,1.1
		c-0.7,0.4-1.5,0.7-2.1,1.3c-1,1.1-1.3,2.6-0.9,4c0.4,1.5,1.4,2.7,2.4,3.8c0.9,1.1,1.9,2.3,2.9,3.3c1.2,1.2,2.5,2.4,3.7,3.6
		c3.9,3.7,7.9,7.4,11.8,11.1c5.9,5.7,11.7,11.5,16.4,18.2c0.9,1.2,1.7,2.5,2.4,3.8c0.6,1.1,1.2,2.2,1.6,3.4c0.1,0.4,0.2,0.8,0.3,1.2
		c0,0.6,0,1.2-0.1,1.8c-0.1,0.7-0.3,1.3-0.6,2c-0.2,0.4-0.5,0.8-0.8,1.2c-0.6,0.6-1.2,1.2-1.9,1.7c-1.1,0.7-2.2,1.3-3.4,1.9
		c-1.3,0.6-2.6,1.2-3.9,1.7c-3.3,1.1-6.7,1.8-10.1,2.3c-3.5,0.6-7,1-10.5,1.3c-3.7,0.3-7.5,0.5-11.2,0.6c-3.8,0-7.6-0.1-11.4-0.7
		c-1.8-0.3-3.6-0.7-5.3-1.5c-1-0.5-2-1.2-2.8-1.9c-1.1-1-2-2.1-2.9-3.3c0,0,0,0,0,0c1.1,2.6,2.7,4.9,5.1,6.4
		c1.2,0.8,2.6,1.3,3.9,1.8c1.5,0.5,3,0.9,4.6,1.3c6.3,1.3,12.7,1.5,19,1.3c3.3-0.1,6.5-0.4,9.7-0.9c3.1-0.5,6.3-1.1,9.4-1.9
		c3.1-0.8,6-2,8.8-3.4c1.3-0.7,2.6-1.5,3.8-2.4c1.2-0.9,2.2-2.1,2.9-3.4c0.7-1.3,1-2.7,1.2-4.1c0.2-1.5-0.1-3-0.6-4.4
		c-0.5-1.3-1.2-2.4-1.8-3.6c-0.8-1.5-1.7-2.9-2.6-4.2c-3.8-5.5-8.3-10.6-13-15.4c-4.4-4.5-9-8.8-13.5-13.2c-1.4-1.3-2.8-2.7-4.2-4
		c-1-1-2-2.1-3-3.2c-0.7-0.8-1.4-1.6-2.1-2.5c-0.2-0.3-0.3-0.5-0.5-0.8c0-0.1,0-0.2-0.1-0.3c0,0,0,0,0,0c0,0,0-0.1,0-0.1
		c0,0,0.1-0.1,0.1-0.1c1.7-1.1,3.4-2.1,5.2-3.1c0.9-0.5,1.9-1.1,2.8-1.5c1.5-0.7,3.1-1.5,4.6-2.2c0.8-0.4,1.6-0.7,2.4-1
		c1.7-0.7,3.3-1.3,5-1.9c3-1.1,6-2.1,9.1-2.9c1.6-0.4,3.2-0.7,4.8-1c1.5-0.3,3.1-0.5,4.6-0.7c2-0.1,3.9-0.1,5.9,0.2
		c1,0.2,2,0.4,2.9,0.8c0.5,0.3,1,0.6,1.5,0.9c0.3,0.2,0.5,0.5,0.7,0.8c0,0.1,0.1,0.2,0.1,0.2c0,0,0-0.1,0-0.1
		c0.1,0.1,0.1,0.3,0.1,0.4c0,0.3,0,0.5,0,0.7c0,0.2-0.1,0.3-0.2,0.5c0,0,0-0.1,0-0.1c-0.2,0.4-0.4,0.7-0.7,1c0,0,0,0,0-0.1
		c-1.1,1.2-2.4,2.3-3.6,3.4c0,0,0,0,0,0c1.4-0.9,2.8-1.9,4-3c0.4-0.3,0.7-0.8,1-1.2c0.2-0.4,0.3-0.8,0.3-1.3c0-0.5-0.2-0.9-0.4-1.3
		c-0.1-0.3-0.3-0.5-0.5-0.7C393,235.2,392.8,235,392.5,234.8L392.5,234.8z M390.8,235.2C390.8,235.2,390.8,235.1,390.8,235.2
		C390.8,235.1,390.8,235.2,390.8,235.2L390.8,235.2z M393.3,238.2C393.3,238.2,393.3,238.2,393.3,238.2
		C393.3,238.2,393.3,238.2,393.3,238.2L393.3,238.2z M363.7,238.7c0,0-0.1,0-0.1,0C363.6,238.7,363.7,238.7,363.7,238.7L363.7,238.7
		z M343.8,248.3C343.7,248.3,343.7,248.4,343.8,248.3C343.7,248.4,343.7,248.3,343.8,248.3L343.8,248.3z M343.6,248.3
		c0,0-0.1,0.1-0.1,0.1C343.5,248.4,343.6,248.4,343.6,248.3L343.6,248.3z M343.4,248.4c0,0.1,0,0.1,0,0.2
		C343.4,248.5,343.4,248.4,343.4,248.4L343.4,248.4z M343.3,248.7L343.3,248.7C343.3,248.7,343.3,248.8,343.3,248.7
		C343.3,248.8,343.3,248.7,343.3,248.7L343.3,248.7z M376.9,290.2c0,0.1,0.1,0.1,0.1,0.2C377,290.3,376.9,290.3,376.9,290.2
		L376.9,290.2z M377.6,305.2c-0.1,0-0.1,0.1-0.2,0.1C377.4,305.3,377.5,305.2,377.6,305.2L377.6,305.2z M322.1,310.8
		c0,0-0.1,0-0.1-0.1C322,310.8,322.1,310.8,322.1,310.8L322.1,310.8z"/>
	<path class="st0" d="M444,283.2c-1.7,1.6-3.4,3-5.2,4.5c-1.3,1.1-2.6,2.1-3.9,3.2c-2.5,2-5,4-7.6,5.8c-1.7,1.2-3.5,2.2-5.3,3.2
		c-1.8,1-3.6,1.8-5.6,2.5c-1.2,0.4-2.4,0.7-3.5,1c-1.3,0.3-2.6,0.5-3.9,0.6c-1.2,0.1-2.4,0.1-3.5-0.1c-1.1-0.2-2.2-0.5-3.2-1
		c-0.7-0.4-1.4-0.8-2.1-1.3c-0.4-0.3-0.7-0.7-1-1.1c-0.6-0.9-1-1.8-1.4-2.7c-0.4-1.3-0.6-2.6-0.7-3.9c0,0.1,0,0.2,0,0.3
		c-0.2-2.6-0.1-5.2,0.3-7.8c0.5-2.5,1.2-4.9,2.2-7.2c0.8-1.7,1.8-3.4,3-4.9c0.8-1,1.8-1.8,2.8-2.6c0.7-0.5,1.4-0.9,2.2-1.2
		c0.4-0.1,0.9-0.2,1.4-0.3c1.1-0.1,2.3,0,3.4,0.2c0,0,0,0,0,0c1,0.2,2,0.5,3,0.8c1,0.3,2.1,0.6,3.1,0.9c0,0,0,0,0,0
		c-0.9-0.3-1.9-0.7-2.8-1c-1-0.4-1.9-0.7-2.9-1c-0.8-0.2-1.7-0.4-2.6-0.5c-0.9-0.1-1.9-0.1-2.8,0.2c-1.8,0.5-3.4,1.5-4.7,2.6
		c-1.6,1.3-2.8,3-3.9,4.8c-2.2,3.5-3.5,7.6-4.1,11.7c-0.3,2-0.4,4.1-0.2,6.1c0.1,1,0.2,2,0.4,3c0.2,1,0.6,2,1.1,3
		c0.4,0.9,1,1.7,1.6,2.5c0.3,0.4,0.7,0.7,1.1,1c0.4,0.3,0.8,0.6,1.3,0.9c1.7,1,3.7,1.7,5.7,2c1.9,0.3,3.9,0.1,5.9-0.2
		c2-0.3,3.9-0.9,5.8-1.6c1.9-0.7,3.8-1.7,5.5-2.8c1.8-1.1,3.6-2.3,5.3-3.6c1.7-1.4,3.3-2.8,4.9-4.3c1.5-1.4,2.9-2.9,4.4-4.4
		c1-1.1,2.1-2.1,3.1-3.2C441.7,285.9,442.9,284.6,444,283.2C444,283.2,444,283.2,444,283.2C444,283.2,444,283.2,444,283.2L444,283.2
		z M399.2,300.7C399.2,300.7,399.2,300.8,399.2,300.7C399.2,300.8,399.2,300.7,399.2,300.7L399.2,300.7z"/>
	<path class="st0" d="M487.5,264.1c-4-1.3-8.2-2.3-12.2-3.3c-1.3-0.3-2.5-0.6-3.8-0.9c-1.3-0.3-2.6-0.6-3.9-0.8
		c-1.4-0.2-2.9-0.4-4.3-0.5c-2.8-0.2-5.5,0-8.2,0.4c-1.3,0.2-2.6,0.6-3.8,1.1c-1.3,0.5-2.6,1.3-3.7,2.2c-1.2,0.9-2.3,2.1-3.1,3.4
		c-0.8,1.3-1.3,2.9-1.6,4.4c-0.3,1.5-0.5,3-0.5,4.6c0,1.7,0.1,3.3,0.3,5c0.3,3.1,1,6.1,1.9,9c0.5,1.5,1,3,1.6,4.5
		c0.3,0.7,0.6,1.4,1,2.1c0.4,0.8,1,1.5,1.4,2.3c0.3,0.6,0.9,0.9,1.6,0.8c0.6-0.1,1.1-0.7,1.1-1.4c0-0.7,0-1.4,0-2.1
		c-0.1-0.7-0.3-1.5-0.5-2.2c-0.3-1.1-0.7-2.1-1-3.2c-0.4-1.2-0.7-2.4-1.1-3.6c-0.8-2.5-1.6-4.9-2.4-7.4c0-0.1,0-0.2,0-0.4
		c-0.2-2.1-0.3-4.3,0-6.4c0.2-1.2,0.5-2.4,1-3.5c0.3-0.6,0.6-1.1,1-1.6c0.7-0.8,1.5-1.4,2.3-2c1-0.7,2-1.2,3.2-1.6
		c2.2-0.7,4.6-1.2,7-1.4c2-0.1,4-0.2,6-0.1c2.1,0.1,4.2,0.3,6.2,0.6c1.7,0.2,3.4,0.4,5.1,0.7c2.8,0.4,5.6,0.7,8.4,1.2c0,0,0,0,0,0
		C486.9,264,487.2,264.1,487.5,264.1C487.5,264.1,487.5,264.1,487.5,264.1C487.5,264.1,487.5,264.1,487.5,264.1L487.5,264.1z
		 M454.1,263c0,0-0.1,0-0.1,0.1C454,263,454,263,454.1,263L454.1,263z M486.6,264C486.6,264,486.6,264,486.6,264
		C486.6,264,486.6,264,486.6,264L486.6,264z"/>
	<path class="st0" d="M484.2,277.1c-0.7,4.1-1.1,8.3-0.8,12.5c0.1,1.3,0.3,2.5,0.5,3.7c0.1,0.6,0.2,1.3,0.4,1.9
		c0.4,1.7,0.9,3.6,1.8,5.1c0,0,0,0,0,0c-0.1-0.4-0.2-0.8-0.2-1.2c-0.2-2.3,0-4.7,0-7c0-0.6,0-1.3,0-1.9c0-0.5,0-1,0-1.6
		c0,0.1,0,0.1,0,0.2C485.6,284.9,485,280.9,484.2,277.1C484.3,277.1,484.3,277.1,484.2,277.1C484.3,277.1,484.2,277.1,484.2,277.1
		L484.2,277.1z"/>
	<path class="st0" d="M491.4,240.3c-0.4,0.4-0.5,1.1-0.1,1.6c0.4,0.4,1.1,0.5,1.6,0.1c0.4-0.4,0.5-1.1,0.1-1.6
		C492.6,239.9,491.9,239.9,491.4,240.3L491.4,240.3z"/>
	<path class="st0" d="M523.5,267.5c-1.3-1.2-2.7-2.3-4.3-3.1c-0.4-0.2-0.8-0.4-1.3-0.5c-0.4-0.1-0.9-0.2-1.3-0.3
		c-0.9-0.2-2,0.2-2.8,0.7c-0.8,0.5-1.5,1.3-1.8,2.2c-0.3,0.8-0.6,1.7-0.9,2.5c-0.3,0.9-0.6,1.9-0.9,2.8c-0.6,1.8-1.2,3.6-1.7,5.4
		c-1,3.5-1.6,7.1-2,10.7c-0.2,1.3-0.3,2.6-0.4,3.9c-0.2,0-0.5-0.1-0.7-0.1c-1.3-0.3-2.5-0.7-3.7-1.1c-0.7-0.2-1.3-0.5-1.9-0.7
		c0,0,0,0,0,0c-0.3-0.1-0.6-0.3-0.8-0.4c0,0,0,0,0,0c1.5,1.2,3.1,2.1,4.7,3c0.7,0.4,1.5,0.8,2.4,1c-0.3,5.5-0.1,11,0.4,16.5
		c0.2,1.9,0.3,3.8,0.5,5.7c0.2,1.7,0.4,3.4,0.6,5.1c0.4,3.2,0.8,6.4,1.3,9.6c0.1,0.5,0.1,1.1,0.2,1.6c0.2,1.4,1.7,2.2,3,1.9
		c0.7-0.1,1.3-0.6,1.6-1.1c0.4-0.6,0.4-1.2,0.3-1.9c-0.4-4-0.9-8-1.4-11.9c-0.6-4.4-1.2-8.7-1.5-13.1c-0.3-3.8-0.4-7.6-0.4-11.5
		c0,0,0,0,0,0c1,0,1.9,0,2.9,0c1.9,0,3.7,0,5.6-0.1c1.9-0.1,3.8-0.2,5.7-0.5c1.7-0.3,3.4-0.9,5-1.7c1.8-0.9,3.5-2.5,3.7-4.6
		c0.1-1.8-0.4-3.5-0.9-5.1c-0.3-0.8-0.7-1.6-1-2.5c-0.4-1-0.8-2-1.3-2.9c-1.5-3-3.3-5.8-5.5-8.2C524.4,268.3,524,267.9,523.5,267.5
		L523.5,267.5z M523.3,274.6c1,1.5,1.9,3,2.7,4.6c0.8,1.6,1.5,3.3,2.1,5c0.2,0.7,0.4,1.4,0.4,2.1c0,0.2,0,0.4,0,0.6
		c-0.2,0.2-0.4,0.4-0.6,0.5c-1,0.6-2,1.1-3.1,1.5c-1.1,0.4-2.3,0.6-3.5,0.8c-1.5,0.3-2.9,0.6-4.4,0.9c-1.4,0.3-2.8,0.5-4.1,0.7
		c-0.7,0.1-1.4,0.2-2.1,0.4c0.2-3,0.5-5.9,1-8.9c0.5-2.7,1.1-5.4,2-8c0.7-2.2,1.5-4.4,2.3-6.5c0.2,0.1,0.5,0.1,0.7,0.2
		c0.9,0.5,1.7,1,2.4,1.6C520.8,271.5,522.2,273,523.3,274.6L523.3,274.6z M516.5,267.9c-0.1,0.1-0.2,0.2-0.2,0.3
		C516.4,268.1,516.4,268,516.5,267.9L516.5,267.9z M516.5,268.2C516.5,268.2,516.5,268.2,516.5,268.2
		C516.5,268.2,516.5,268.2,516.5,268.2L516.5,268.2z M516.2,268.4C516.1,268.4,516.1,268.5,516.2,268.4
		C516.1,268.5,516.1,268.4,516.2,268.4L516.2,268.4z M516,268.3c-0.1,0-0.2,0-0.3,0C515.8,268.3,515.9,268.3,516,268.3L516,268.3z
		 M528.5,287c0,0.1-0.1,0.1-0.1,0.2C528.4,287.2,528.5,287.1,528.5,287L528.5,287z M528.4,287.1c0,0-0.1,0.1-0.1,0.1
		C528.3,287.2,528.3,287.2,528.4,287.1L528.4,287.1z M511.1,306.2c0,0.1,0,0.1,0,0.2C511.1,306.4,511.1,306.3,511.1,306.2
		L511.1,306.2z"/>
	<path class="st0" d="M568.3,226c0,5.7,0.1,11.5,0.4,17.2c0.3,6,0.9,12.1,1.8,18.1c0.2,1.8,0.6,3.5,1,5.3c0.4,1.8,0.7,3.6,1.1,5.5
		c0.7,3.4,1.5,6.7,2.3,10.1c0.2,0.7,0.3,1.4,0.5,2.1c0.3,1.3,0.8,2.5,1.1,3.8c0.5,1.6,0.8,3.1,1,4.8c0,0,0,0,0,0c0,0.3,0,0.6,0,0.9
		c0,0,0,0,0,0c0,0.1-0.1,0.2-0.1,0.3c-0.1,0-0.1,0.1-0.2,0.1c-0.3,0.1-0.5,0.1-0.8,0.2c0,0,0,0,0,0c0.3,0,1,0.2,1.3-0.1
		c0.1-0.1,0.3-0.3,0.3-0.4c0.2-0.5,0.3-1,0.4-1.5c0.4-2.2,0.3-4.4,0.2-6.7c-0.1-1.7,0-3.3-0.1-5c-0.1-4.7-0.3-9.4-0.6-14
		c-0.2-2.9-0.6-5.8-1.1-8.7c-0.9-5.3-2.1-10.6-3.5-15.8C572,236.5,570.3,231.2,568.3,226C568.4,226,568.4,226,568.3,226
		C568.4,226,568.3,226,568.3,226L568.3,226z"/>
	<path class="st0" d="M600.4,262.3c-0.9,0.1-1.9,0.2-2.8,0.3c0,0,0,0,0,0c-3.8,0.3-7.7,0.6-11.5,1c-2,0.2-4.1,0.5-6.1,0.8
		c-0.9,0.1-1.7,0.3-2.6,0.4c-1.4,0.2-2.7,0.4-4,0.8c0,0,0,0,0,0c-8.8,1.9-17.3,5.1-25.4,8.9c0,0,0,0,0,0c8.9,0,17.9-0.6,26.7-2.7
		c0.3,0,0.5-0.1,0.8-0.1c0.5-0.1,0.9-0.2,1.4-0.4c0.7-0.2,1.4-0.4,2.2-0.6c0.8-0.2,1.6-0.5,2.3-0.7c2.5-0.8,4.9-1.7,7.3-2.7
		C592.7,265.7,596.6,264,600.4,262.3C600.5,262.3,600.5,262.3,600.4,262.3C600.4,262.3,600.4,262.3,600.4,262.3L600.4,262.3z"/>
	<path class="st0" d="M643.7,258.9c-0.6-0.4-1.2-0.8-1.8-1.1c-0.5-0.3-1.1-0.5-1.7-0.7c-1.4-0.6-2.9-1.1-4.3-1.4
		c-2.7-0.7-5.6-0.7-8.4-0.5c-1.4,0.1-2.7,0.3-4.1,0.5c-1.4,0.2-2.8,0.6-4.1,1.3c-1,0.6-1.9,1.6-2.5,2.7c-0.3,0.5-0.5,1.1-0.7,1.7
		c-0.2,0.7-0.1,1.4-0.1,2.1c0.1,0.6,0.2,1.1,0.4,1.6c0.2,0.6,0.4,1.2,0.7,1.8c0.6,1.3,1.3,2.6,2.1,3.8c0.8,1.3,1.8,2.4,2.7,3.6
		c1,1.3,2.1,2.6,3.2,3.8c2.3,2.5,4.6,5,7,7.5c0.6,0.6,1.2,1.3,1.8,1.9c0.5,0.5,1,1.1,1.5,1.6c0.7,0.7,1.4,1.5,2,2.3
		c0.2,0.4,0.5,0.7,0.7,1.1c0,0,0,0.1,0,0.1c-0.2,0.3-0.3,0.5-0.5,0.8c-0.4,0.5-0.9,0.9-1.4,1.3c-0.9,0.6-1.9,1.1-3,1.5
		c-1.1,0.5-2.2,0.9-3.4,1.3c0.1,0,0.3-0.1,0.4-0.1c-1.8,0.6-3.5,1.1-5.3,1.6c-1.8,0.5-3.6,0.9-5.4,1.4c-2,0.5-4,0.9-6.1,1.3
		c-1.2,0.2-2.4,0.5-3.6,0.7c-2,0.4-3.9,0.8-5.9,1c0,0,0,0,0.1,0c-0.8,0.1-1.6,0.1-2.3,0c0,0,0,0,0,0c1.2,0.3,2.4,0.4,3.7,0.5
		c0.7,0,1.5,0,2.2-0.1c1-0.1,2-0.1,3-0.2c3.2-0.2,6.3-0.5,9.4-0.9c3.1-0.4,6.1-1,9.1-1.8c1.4-0.4,2.8-0.9,4.2-1.4
		c1.5-0.6,2.9-1.1,4.2-2c1.1-0.7,2-1.6,2.8-2.7c0.8-1,1.2-2.4,0.6-3.7c-0.3-0.6-0.6-1-1-1.5c-0.4-0.6-0.9-1.1-1.4-1.6
		c-0.5-0.5-0.9-1-1.4-1.5c-1.7-1.9-3.4-3.8-5.1-5.7c-1.2-1.3-2.3-2.6-3.5-3.9c-1.1-1.3-2.2-2.6-3.3-3.9c-1-1.3-2.1-2.6-3-3.9
		c-0.6-0.9-1.2-1.8-1.7-2.8c-0.4-0.8-0.8-1.6-1.2-2.5c-0.1-0.4-0.2-0.8-0.3-1.3c0-0.2,0-0.4,0-0.6c0.1-0.3,0.1-0.5,0.2-0.8
		c0.2-0.4,0.5-0.9,0.8-1.3c0.2-0.3,0.5-0.5,0.8-0.7c0.5-0.3,0.9-0.5,1.4-0.7c1.4-0.4,2.8-0.8,4.2-1.1c1.4-0.3,2.9-0.5,4.3-0.7
		c2.2-0.2,4.3-0.1,6.4,0.3c0.9,0.2,1.8,0.4,2.7,0.6c0.9,0.2,1.8,0.5,2.7,0.9c0,0,0,0,0,0C643,258.7,643.4,258.8,643.7,258.9
		C643.7,259,643.7,259,643.7,258.9C643.7,258.9,643.7,258.9,643.7,258.9L643.7,258.9z M637.6,291.4
		C637.6,291.5,637.6,291.5,637.6,291.4C637.6,291.5,637.6,291.5,637.6,291.4L637.6,291.4z M638.1,292.1c0,0,0,0.1,0,0.1
		C638.1,292.2,638.1,292.2,638.1,292.1L638.1,292.1z M638.1,292.4c0,0.1,0,0.1,0,0.2C638.1,292.5,638.1,292.5,638.1,292.4
		C638.1,292.4,638.1,292.4,638.1,292.4L638.1,292.4z"/>
</g>
</svg>
