<?xml version="1.0" encoding="utf-8"?>
<!-- Generator: Adobe Illustrator 19.2.1, SVG Export Plug-In . SVG Version: 6.00 Build 0)  -->
<?xml-stylesheet type="text/css" href="../css/vg.css" ?>
<svg version="1.1" id="Layer_1" xmlns="http://www.w3.org/2000/svg" xmlns:xlink="http://www.w3.org/1999/xlink" x="0px" y="0px"
	 viewBox="0 0 792 612" style="enable-background:new 0 0 792 612;" xml:space="preserve">
<style type="text/css">
	.st0{fill:none;stroke:#000000;stroke-width:5;}
  .st1{fill:none;stroke:#EE2C24;stroke-width:8;}
</style>
<path class="st0" id="V" d="M127.1,219c2.1-18.2,14.7-34.9,31.7-41.9c4.9,8,2.9,18.1,1.3,27.3c-2.2,13.1-3.2,26.5-2.9,39.8
	c0.2,11.9,1.6,24.3,7.9,34.4c6.3,10.1,18.8,17.2,30.3,13.9c7.1-2.1,12.7-7.7,16.6-13.9c9.7-15.7,10.4-35.2,9.1-53.6
	c-1.3-17.9-4.3-35.7-8.9-53.1"/>
<path class="st0" id="esper" d="M234.6,270c11.1-9.8,17.9-24.5,18.1-39.3c0-3-0.3-6.3-2.3-8.6c-4.5-5.1-13.3-1-16.9,4.8
	c-7.3,11.8-2.8,29.2,9.2,36c12,6.8,29.3,1.8,35.7-10.5c6.4-12.3,0.7-29.3-11.8-35.3c8.9-7.1,22.7-0.5,28.8,9.2
	c3.4,5.3,5.4,11.9,3.9,18c-1.5,6.1-7.3,11.4-13.6,10.7c21-3.6,36.2-27.1,30.9-47.8c3,26.1,19.5,49.9,19.2,76.2
	c-9.1-29.1-11.5-60.3-6.9-90.5c1.1-7.5,3.5-16,10.4-19.1c6.8,9.8,13.6,20.5,13.7,32.4s-9.7,24.6-21.5,23c8.3,6.7,20.6-0.2,27.7-8.1
	c7-7.8,12.6-16.8,16.7-26.4c2.6-6.1,3.4-15.1-2.7-17.6c-4.9-2-10.2,2-13.1,6.5c-4.9,7.5-6.6,17.4-2.8,25.4
	c3.8,8.1,13.8,13.2,22.1,10c6.1-2.4,10-8.2,13.1-13.9c7.3-13.3,12.8-27.6,16.2-42.3c-4,11.6-0.1,26.1,10.5,32.5
	c10.5,6.4,26.6,1.9,30.8-9.6"/>
<path class="st0" id="Gloaming" d="M218,443.3c7.3-46.9,12.3-94.1,14.9-141.5c-1.3,8.5,7.7,16.2,16.3,15.5c8.6-0.6,15.7-7.5,19.2-15.4
	c3.5-7.9,4-16.7,4.5-25.3c-1.3,22.9,5.7,45.4,10.6,67.8c5,22.4,7.7,46.7-1.6,67.7c-3.5,7.8-8.8,15.2-16.5,19s-18,3.1-23.8-3.2
	s-4.7-18.2,3-22c2.9-1.4,6.1-1.6,9.3-1.4c15.2,0.6,31.1,7.7,45.1,1.8c11.5-4.8,17.9-17,22.3-28.6c5.9-15.6,9.7-32.3,8.7-48.9
	c-1-16.7-7-33.4-18.8-45.2c-4.8,7.2-3.2,16.8-1.1,25.3c4.6,17.9,10.9,35.3,18.8,52c4.7,10,10.4,20.2,19.7,26.2
	c1.5,1,3.3,1.9,5.1,1.9c6.3,0,7.7-8.8,7.3-15.1c-0.9-14.4-0.3-28.9,1.9-43.2c1-6.2,3.9-13.9,10.2-14.1c2.6,15.9,7.4,31.4,14.1,46
	c9.2-2.6,15.4-12.9,13.4-22.2c-1.9-9.3-11.7-16.3-21.2-15.1c14-8.7,27.7-17.9,41-27.6c-2.6,13.2-2.2,26.9,1,40
	c0.8,3.2,1.9,6.5,4.3,8.9c2.4,2.3,6.4,3.2,9.1,1.2c1.3-1,2.1-2.6,2.6-4.2c4.8-12.8,0-28.5-11-36.6c4.9,10.6,13.6,19.4,24.1,24.4
	c1.9,0.9,4.3,1.6,5.8,0.2c1.1-1,1.3-2.7,1.3-4.2c0.4-14.1-0.1-29.3,8-40.8c8.3,6.5,14.3,15.9,16.8,26.2c-3.8-12.8-2.4-27,3.7-38.8
	c4.6,5.5,7.6,12.2,8.5,19.3c2-9.2,5.7-18.1,10.8-26c1.2,8.7,4,17.2,8.3,24.8c1.3,2.3,3.3,4.9,6,4.6c1.8-0.2,3.2-1.6,4.3-3
	c8.2-10.1,11.4-24.2,8.3-36.9c-4,6.1-3.8,14.7,0.4,20.6c4.3,5.9,12.3,8.8,19.4,7c-2.5-13.7,1.9-28.4,11.4-38.5
	c6.1,7.6,9.3,17.5,8.8,27.3c2-13.1,5.6-26,10.8-38.2c0.6,11.7,3.6,23.3,8.8,33.8c7.8-0.8,11.3-9.8,14.2-17
	c4.8-12.2,12.3-23.4,21.7-32.5c-8.3,2.5-14.9,9.7-16.7,18.1s1.3,17.7,7.8,23.4c6.7-3.7,10.6-11.2,11.7-18.7c1.1-7.5,0-15.2-1.2-22.7
	c-1.5,11.5,2.1,22.9,5.2,34c6.4,22.5,11.2,46.2,7.2,69.2c-4,23.1-18.5,45.5-40.6,53.2c-1-12,4-23.6,9-34.5c20-44,39.9-88,59.9-132.1
	"/>
<path class="st1" id="dot" d="M530.1,213.1c1-1,2-2,2.9-3.1"/>
</svg>
