<?xml version="1.0" encoding="utf-8"?>
<!-- Generator: Adobe Illustrator 19.2.1, SVG Export Plug-In . SVG Version: 6.00 Build 0)  -->
<?xml-stylesheet type="text/css" href="../css/vg.css" ?>
<svg version="1.1" xmlns="http://www.w3.org/2000/svg" xmlns:xlink="http://www.w3.org/1999/xlink" x="0px" y="0px"
	 viewBox="0 0 767.8 455.3" style="enable-background:new 0 0 767.8 455.3;" xml:space="preserve" id="VG">
<style type="text/css">
	.st0{fill:#020808;}
</style>
<g id="Layer_2">
	<path class="st0" id="V" stroke="#000000" stroke-width="2" d="M27.6,73.3c-1.4,0.2-2.8,0.8-4.1,1.4c-1.2,0.5-2.3,1.3-3.4,2.1c-1.2,0.9-2.3,1.9-3.4,3c-2,2.1-3.8,4.6-5.4,7.1
		c-1.8,2.9-3.4,6-4.8,9.2c-1.4,3.3-2.6,6.7-3.5,10.2c-0.9,3.4-1.6,6.9-2.1,10.4c-0.2,1.7-0.5,3.4-0.6,5.1c-0.2,1.9-0.2,3.7-0.3,5.6
		c0,0,0,0,0,0c0.1-1.4,0.2-2.8,0.4-4.1c0,0,0,0,0,0c0.3-1.9,0.6-3.9,1-5.8c0.4-2,0.8-4.1,1.4-6.1c1-3.8,2.3-7.6,3.8-11.2
		c0,0,0,0.1,0,0.1c1-2.4,2.2-4.8,3.5-7.1c1.4-2.4,2.9-4.7,4.6-6.9c1.7-2.2,3.7-4.3,5.9-6.1c1.3-1,2.7-1.8,4.1-2.5
		c1.1-0.4,2.2-0.8,3.4-1c0.3,0,0.7,0,1,0c0.3,0.1,0.6,0.2,1,0.3c0.6,0.3,1.2,0.6,1.7,1c0.6,0.5,1.1,1,1.5,1.5c0.6,0.8,1,1.6,1.4,2.5
		c0.6,1.6,1.1,3.2,1.5,4.9c0.4,1.8,0.8,3.6,1,5.4c0.4,2.9,0.5,5.9,0.6,8.8c0.1,3.1,0.2,6.2,0.2,9.4c0,3.2-0.1,6.4-0.1,9.5
		c0,1.4-0.1,2.9-0.1,4.3c-0.2,5.3-0.3,10.7-0.5,16c-0.1,3.2-0.2,6.5-0.2,9.7c-0.1,3.1-0.1,6.2-0.2,9.3c0,1.8-0.1,3.6-0.1,5.4
		c0.1,6.3,0.3,12.6,0.9,18.9c0.7,6.2,1.6,12.3,3,18.4c1.4,6,3.6,11.7,6.1,17.3c2.5,5.4,5.4,10.5,8.9,15.2c3.5,4.8,7.4,9.2,11.8,13.1
		c2.2,1.9,4.6,3.8,7.1,5.3c1.2,0.7,2.4,1.4,3.6,2c1.4,0.7,2.9,1.3,4.4,1.7c1.3,0.4,2.8,0.7,4.2,0.7c0.7,0,1.5-0.1,2.2-0.2
		c0.7-0.1,1.4-0.3,2.1-0.5c1.3-0.4,2.6-0.9,3.9-1.5c1.2-0.6,2.3-1.3,3.4-2.1c4.4-3.4,7.7-8,10.4-12.8c2.9-5,4.8-10.6,6.4-16.1
		c1.6-5.8,3-11.6,3.9-17.5c1-6.2,1.6-12.5,2.3-18.7c0.7-6.3,1-12.6,1.3-18.9c0.3-6.2,0.6-12.3,0.7-18.5c0.2-6,0.2-12,0.3-18
		c0-3.4,0.1-6.8,0.1-10.2c0-5-0.1-10-0.1-15c0-1.5,0-3-0.1-4.4c0-1.3-0.1-2.6-0.2-3.9c-0.1-2.1-0.2-4.2-0.3-6.2
		c-0.1-1.7-0.2-3.4-0.3-5.1c-0.1-1.1-0.2-2.1-0.5-3.2c-0.1-0.5-0.2-0.9-0.4-1.3c-0.1-0.3-0.3-0.6-0.5-0.9c-0.2-0.3-0.4-0.6-0.6-0.9
		c-0.1-0.1-0.2-0.1-0.2-0.1c-0.4,0.2-0.8,0.4-1,0.7c-0.4,0.6-0.7,1.3-1,2c0,0,0,0,0,0c0.4-0.6,0.8-1.3,1.2-1.9c0,0,0,0,0,0
		c0.1-0.1,0.1-0.1,0.2-0.2c0,0,0,0,0,0c0.1-0.1,0.2-0.2,0.4-0.2c0,0,0,0,0,0c0.1,0,0.2-0.1,0.3-0.1c0.2,0.3,0.4,0.7,0.6,1.1
		c0.2,0.6,0.4,1.2,0.5,1.9c0.3,2.6,0.1,5.3,0,7.9c0,0.9-0.1,1.9-0.1,2.8c-0.1,2.4-0.2,4.9-0.3,7.3c-0.1,1.5-0.2,3.1-0.3,4.6
		c-0.2,3.1-0.4,6.2-0.5,9.3c-0.5,8.4-0.9,16.9-1.3,25.3c-0.2,4.5-0.4,9-0.5,13.5c0,1.4-0.1,2.7-0.2,4.1c-0.1,3.2-0.3,6.3-0.4,9.5
		c-0.3,6.3-0.7,12.6-1.4,18.9c-0.4,4.1-0.9,8.3-1.4,12.4c-0.4,2.8-0.8,5.6-1.3,8.4c-0.5,2.9-1.2,5.7-1.9,8.5
		c-1.3,5.2-2.7,10.3-4.8,15.3c-1.7,3.9-3.9,7.7-6.5,11.1c-1.5,1.9-3.2,3.7-5.1,5.3c-1.2,0.9-2.5,1.6-3.9,2.2c-1.3,0.5-2.6,0.9-4,1.1
		c-0.7,0.1-1.3,0.1-2,0c-1.2-0.2-2.3-0.6-3.5-1.1c-1.5-0.6-2.9-1.3-4.3-2.2c-1.5-0.9-2.8-1.8-4.2-2.9c-2.4-1.9-4.6-3.9-6.8-6.1
		c-2-2.1-3.9-4.3-5.7-6.6c-2.3-3.1-4.5-6.2-6.4-9.6c-1.9-3.3-3.6-6.7-5.1-10.2c-1.8-4.3-3.3-8.6-4.4-13.1c-1.1-4.6-1.9-9.3-2.5-14
		c-0.4-3-0.7-6-0.9-9.1c-0.2-3.2-0.3-6.3-0.4-9.5c0-1.5-0.1-3.1-0.1-4.6c0-0.9,0-1.8,0-2.7c0.1-5.3,0.1-10.6,0.2-15.9
		c0-4,0.2-8,0.3-12.1c0.2-6.3,0.3-12.6,0.3-18.9c0-3.2,0-6.3-0.2-9.5c-0.2-3-0.3-6.1-0.5-9.1c-0.1-1.5-0.3-3-0.6-4.5
		c-0.2-1.5-0.6-2.9-0.9-4.4c-0.6-2.6-1.4-5.1-2.6-7.4c-1.3-2.4-3.5-4.4-6.1-5.4c-0.6-0.2-1.2-0.4-1.9-0.5c-0.2,0-0.5,0-0.7,0
		C28.5,73.2,28.1,73.2,27.6,73.3L27.6,73.3z M43.1,186.4c0,0.1,0,0.1,0,0.2C43.1,186.6,43.1,186.5,43.1,186.4L43.1,186.4z
		 M49.9,213.5c0.1,0.1,0.1,0.2,0.2,0.4C50,213.8,49.9,213.7,49.9,213.5L49.9,213.5z M50.1,214c0,0.1,0.1,0.1,0.1,0.2
		C50.1,214.1,50.1,214,50.1,214L50.1,214z M107.7,232.2c0,0.1,0,0.1-0.1,0.2C107.6,232.3,107.6,232.3,107.7,232.2L107.7,232.2z
		 M61.2,233.2c0.1,0.2,0.2,0.3,0.4,0.5C61.4,233.5,61.3,233.4,61.2,233.2L61.2,233.2z M6.6,100.3C6.6,100.3,6.6,100.2,6.6,100.3
		C6.6,100.2,6.6,100.3,6.6,100.3L6.6,100.3z"/>
	<path class="st0" id="esper" stroke="#000000" stroke-width="2" d="M486.6,0c-10.1,11.8-20.1,23.7-29.8,35.8c-1.6,2-3.2,3.9-4.8,5.9c-3.6,4.5-7.2,8.9-11,13.2
		c-3.6,4.1-7.2,8.3-11.1,12.2c-1.8,1.9-3.8,3.6-5.8,5.3c-2,1.6-3.9,3.3-5.9,4.8c-2.9,2.2-6,4.3-9.3,5.8c-2.4,1-4.8,1.6-7.3,2
		c-1.9,0.2-3.8,0.3-5.6,0.1c-0.8-0.1-1.7-0.3-2.5-0.6c-0.8-0.4-1.6-0.9-2.4-1.4c-1.1-0.9-2.2-2-3.1-3.1c-0.6-0.9-1.2-1.7-1.6-2.7
		c-1-2.5-1.5-5.1-1.9-7.8c-0.3-2.5-0.3-5.1-0.3-7.6c0-2.7,0.2-5.5,0.4-8.2c0.1-1.3,0.2-2.6,0.2-3.9c0.1-1.2,0-2.3,0-3.5
		c0-0.5,0-1-0.1-1.5c-0.1-0.5-0.2-0.9-0.4-1.3c-0.1-0.1-0.1-0.2-0.2-0.3c-0.2-0.3-0.5-0.6-0.8-0.8c-0.5-0.4-1.1-0.6-1.7-0.6
		c-0.5,0-1,0-1.4,0.3c-0.4,0.2-0.7,0.5-1,0.8c-0.5,0.5-0.9,1.1-1.4,1.6c-0.7,0.9-1.4,1.7-2.1,2.6c-1.3,1.7-2.5,3.3-3.6,5.1
		c-1.3,1.9-2.4,3.8-3.4,5.9c-0.5,1.1-0.9,2.2-1.2,3.4c-0.4,1.3-0.6,2.7-0.8,4.1c-0.2,0.9-0.4,1.8-0.5,2.7c-0.1,0.7-0.3,1.4-0.4,2.1
		c-0.3,1.1-0.6,2.2-0.9,3.3c-0.2,0.7-0.3,1.3-0.5,2c-0.7,2-1.4,4.1-2.1,6.2c-0.6,1.8-1.3,3.6-2,5.3c-1.1,2.8-2.1,5.7-3.3,8.5
		c-0.8,1.8-1.7,3.5-2.6,5.2c-0.9,1.7-1.9,3.4-3,4.9c-0.9,1.1-1.8,2-2.9,2.9c-0.8,0.6-1.6,1.1-2.6,1.6c-0.4,0.1-0.7,0.2-1.1,0.3
		c-0.4,0-0.7,0-1.1,0c-0.5-0.1-0.9-0.2-1.4-0.4c-0.2-0.1-0.4-0.2-0.6-0.3c-0.1-0.1-0.2-0.2-0.4-0.4c1.3-1.9,2.5-4,3.5-6.1
		c2.4-4.7,4.2-9.7,5.5-14.8c1.3-5.1,1.9-10.6,0.8-15.8c-0.3-1.2-0.7-2.3-1.2-3.4c-0.5-1.1-1-2-1.7-3c-0.7-0.9-1.4-1.8-2.2-2.5
		c-0.4-0.4-0.8-0.7-1.1-1c-0.3-0.2-0.6-0.5-0.9-0.7c-0.3-0.2-0.6-0.4-1-0.5c-2.1-0.8-4.5-0.2-6.1,1.2c-1.8,1.6-2.9,3.7-3.6,5.9
		c-0.4,1.1-0.6,2.2-0.7,3.4c-0.2,1.2-0.3,2.4-0.5,3.5c-0.3,2.8-0.5,5.5-0.5,8.3c0,5.4,0.6,10.7,1.5,16c0.4,2.5,1.1,4.9,1.7,7.3
		c0,0.2,0.1,0.3,0.1,0.5c-0.1,0.2-0.3,0.4-0.4,0.6c-2.3,2.9-4.9,5.6-7.8,8c-3,2.2-6.1,4.1-9.5,5.6c-2.4,1-4.8,1.8-7.3,2.5
		c-1.1,0.3-2.2,0.5-3.2,0.7c2.3-2.1,4.3-4.6,5.9-7.2c1.3-2.1,2.3-4.2,3.3-6.4c1-2.4,1.6-5,2-7.5c0.4-2.4,0.5-4.9,0.4-7.4
		c-0.1-2.6-0.6-5.2-1.2-7.7c-0.6-2.2-1.5-4.4-2.6-6.5c-1.1-2.2-2.6-4.2-4.2-6c-0.8-0.8-1.7-1.5-2.6-2.2c-0.9-0.7-1.9-1.3-3-1.8
		c-1-0.5-2.1-0.9-3.2-1.2c-1.2-0.3-2.5-0.4-3.8-0.4c-1.1,0-2.2,0.2-3.3,0.4c-1,0.2-2,0.6-2.9,1.1c-0.9,0.5-1.8,1.2-2.6,1.9
		c-0.9,0.8-1.7,1.8-2.5,2.7c-1.5,1.8-2.6,3.8-3.6,5.9c-1.1,2.3-2.1,4.7-2.9,7.2c-1.5,4.4-2.5,9-3.3,13.6c-0.4-1-0.8-2-1.3-3
		c-1-2.4-1.9-4.7-2.8-7.1c-0.4-1.2-0.9-2.4-1.2-3.6c-0.4-1.2-0.6-2.4-0.9-3.6c-0.2-0.7-0.7-1.2-1.4-1.4c-0.7-0.2-1.4,0-1.9,0.5
		c-0.2,0.2-0.4,0.4-0.6,0.6c-0.2,0.4-0.4,0.9-0.5,1.4c-0.2,0.9-0.2,1.9-0.3,2.8c-0.3,2.1-0.6,4.2-0.9,6.3c-0.5,3.1-0.9,6.1-1.4,9.2
		c-0.4,2.7-0.9,5.3-1.3,8c-0.6,3.6-1.3,7.2-2.1,10.7c-0.8,3.4-1.6,6.9-2.5,10.3c-1,3.4-2.2,6.8-3.5,10.1c-1.3,2.9-2.6,5.8-4.2,8.6
		c-1.5,2.6-3.2,5.2-5,7.6c-1.5,1.9-3.1,3.6-4.9,5.1c-1.1,0.8-2.3,1.6-3.6,2.2c-0.5,0.2-1,0.3-1.6,0.5c-0.1,0-0.3,0-0.4,0
		c0,0,0,0,0-0.1c0.2-0.4,0.3-0.9,0.5-1.3c0.3-0.7,0.5-1.5,0.8-2.2c0.7-1.9,1.2-3.9,1.8-5.8c0.5-1.9,0.8-3.9,1-5.8
		c0.3-2.2,0.2-4.5-0.1-6.7c-0.6-4.4-2-8.7-4-12.7c-0.9-1.7-1.9-3.4-3.1-4.9c-1.2-1.7-2.6-3.2-4.1-4.7c-3-2.9-6.7-5.3-10.8-6.3
		c-1.8-0.4-3.6-0.6-5.4-0.4c-1.8,0.2-3.5,0.8-4.7,2.2c-0.5,0.6-0.8,1.3-0.6,2.1c0.2,0.8,0.7,1.5,1.2,2.1c0.6,0.7,1.2,1.4,1.7,2.1
		c0.5,0.7,1,1.3,1.5,2c1.6,2.2,3,4.5,4.1,6.9c0.8,2,1.3,4.1,1.6,6.2c0.5,4.4,0.2,8.9-0.3,13.4c-0.4,3.1-1.1,6.1-1.9,9.2
		c-0.8,3-1.7,6-2.9,8.9c-1.6,3.8-3.7,7.4-6.1,10.7c-1.4,1.8-3,3.4-4.8,4.9c-1.9,1.4-3.9,2.6-6,3.5c-1.8,0.7-3.7,1.2-5.6,1.5
		c-2.2,0.2-4.4,0.3-6.6,0c-2.2-0.4-4.4-1-6.5-1.8c-0.3-0.1-0.6-0.3-0.9-0.4c1.7-4.1,3.2-8.4,4.5-12.7c1.6-5,2.8-10.2,3.9-15.4
		c1-5.2,1.6-10.4,2.2-15.7c0.3-2.6,0.4-5.3,0.5-7.9c0.1-1.7,0.1-3.5,0.1-5.2c0-2.3-0.1-4.6-0.1-6.9c0-1.7-0.2-3.4-0.3-5.1
		c-0.1-1.7-0.2-3.5-0.8-5.1c-0.3-0.8-0.8-1.5-1.5-1.9c-0.4-0.2-0.7-0.4-1.1-0.5c-0.3,0-0.6-0.1-0.9-0.1c-0.3,0-0.6,0-1,0.1
		c-2.1,0.3-3.9,1.3-5.5,2.6c-1.9,1.5-3.5,3.3-5.1,5.2c-1.4,1.8-2.6,3.7-3.7,5.7c-1.3,2.3-2.4,4.6-3.4,7c-2.1,4.8-3.7,9.9-5,14.9
		c-0.7,2.5-1.2,5-1.6,7.5c-0.5,2.7-0.8,5.4-0.8,8.1c0,2.4,0.3,4.8,0.7,7.1c0.5,2.5,1.4,4.9,2.5,7.2c2.1,4.3,5.3,8.1,9,11.1
		c1.4,1.1,2.9,2.1,4.5,3c-0.1,0.2-0.2,0.4-0.3,0.6c0,0,0,0,0,0c-1,2.4-2.2,4.7-3.3,7c-1.2,2.4-2.6,4.7-4.2,6.9
		c-0.9,1.1-1.9,2.2-3.1,3.1c-0.9,0.7-1.9,1.3-2.9,1.7c-0.6,0.2-1.2,0.4-1.9,0.5c-0.5,0-0.9,0-1.4,0c0,0,0,0,0,0
		c-0.3,0-0.6-0.1-0.9-0.2c0,0,0,0,0,0c-0.3-0.1-0.6-0.3-0.9-0.5c0,0,0,0,0,0c-0.1-0.1-0.3-0.3-0.4-0.4c-0.1-0.1-0.2-0.3-0.3-0.4
		c0-0.1-0.1-0.2-0.1-0.4c-0.1-1,0-1.9,0.1-2.8c0,0,0,0,0,0c-0.1,1-0.2,1.9-0.2,2.9c0,0.5,0.5,0.9,0.8,1.3c0.5,0.5,1.2,0.7,1.9,0.9
		c0.8,0.2,1.7,0.1,2.5-0.1c0.9-0.1,1.8-0.6,2.6-1c0.9-0.5,1.7-1.1,2.5-1.7c1.8-1.4,3.2-3.3,4.6-5.2c1.3-1.9,2.4-4,3.6-6
		c1-1.8,1.9-3.7,2.8-5.5c0.1,0,0.1,0.1,0.2,0.1c2.3,1.1,4.8,1.8,7.3,2.3c2.3,0.4,4.7,0.5,7.1,0.3c2.6-0.2,5.1-0.7,7.5-1.6
		c4.4-1.7,8.4-4.5,11.6-8c1.5-1.7,2.8-3.6,4-5.5c1.3-2.1,2.5-4.4,3.6-6.6c2.1-4.6,3.5-9.6,4.6-14.5c0.5-2.5,0.9-5,1.2-7.5
		c0.3-2.8,0.5-5.5,0.4-8.3c0-2.5-0.4-5-1-7.4c-0.6-2.6-1.7-5-3-7.3c-0.9-1.6-2-3.1-3.1-4.6c-0.6-0.8-1.2-1.6-1.9-2.4
		c-0.5-0.6-1.1-1.3-1.6-1.9c0.1-0.1,0.2-0.1,0.3-0.2c0.5-0.2,1-0.3,1.5-0.4c0.9-0.1,1.8-0.1,2.7,0c1.3,0.2,2.6,0.6,3.9,1.1
		c1.6,0.7,3,1.6,4.4,2.6c1,0.8,1.9,1.6,2.8,2.4c0.9,0.9,1.7,1.8,2.4,2.7c1.7,2.3,3.2,4.8,4.3,7.4c1.1,2.9,2,5.8,2.5,8.8
		c0.1,1.1,0.2,2.3,0.2,3.4c0,1.1-0.1,2.2-0.2,3.4c-0.1,0.9-0.3,1.8-0.5,2.7c-0.2,1-0.5,1.9-0.8,2.8c-0.3,1-0.7,2-1.1,3
		c-0.5,1.3-1,2.6-1.5,3.8c-0.2,0.4-0.4,0.8-0.5,1.2c-0.3,0.7-0.7,1.3-0.8,2c0,0.2-0.1,0.4-0.1,0.7c0,0.4,0.1,0.7,0.2,1.1
		c0.1,0.1,0.1,0.3,0.2,0.4c0.1,0.4,0.3,0.8,0.7,1.1c0.8,0.9,1.9,1.4,3.1,1.6c0.6,0.1,1.1,0.1,1.6,0.1c0.5,0,1.1-0.1,1.6-0.2
		c1.1-0.2,2.2-0.7,3.2-1.2c1-0.5,1.9-1.1,2.9-1.8c1.1-0.8,2.1-1.6,3-2.6c1.7-1.6,3.1-3.4,4.4-5.3c1.5-2,2.8-4.1,4.1-6.3
		c2.6-4.4,4.7-9.2,6.4-14c1.8-4.9,3-9.9,4.1-15c0.6-2.5,1.1-5,1.6-7.4c0.5-2.8,1-5.5,1.4-8.3c0.8-4.8,1.4-9.6,2-14.4
		c0.1-0.4,0.1-0.8,0.2-1.2c0.6,1.5,1.2,2.9,1.8,4.4c0.6,1.5,1.3,3.1,2,4.6c0.8,1.8,1.5,3.6,2.3,5.3c-0.5,3.7-0.9,7.3-1.2,11
		c-0.9,10.9-0.9,21.9-0.2,32.8c0.3,5.4,0.9,10.8,1.6,16.1c0.7,5.3,1.8,10.5,3.1,15.7c2.5,10.3,6.3,20.3,11.2,29.7
		c2.4,4.5,5.1,8.8,8.2,12.9c1.4,1.8,2.9,3.5,4.4,5.2s3.1,3.3,5.1,4.5c0.5,0.3,1,0.4,1.5,0.6c0.5,0.2,1.1,0.3,1.5,0.3
		c1,0.1,1.9-0.2,2.8-0.6c0.4-0.2,0.7-0.3,1-0.6c0.4-0.3,0.9-0.7,1.1-1.2c0.2-0.5,0.4-0.9,0.5-1.4c0.2-0.7,0.1-1.4,0-2.1
		c-0.1-0.6-0.1-1.1-0.1-1.7c0-0.4,0-0.8-0.1-1.3c-0.1-1.3-0.1-2.6-0.2-4c-0.2-4.1-0.7-8.2-1.3-12.2c-0.8-5.3-2-10.5-3.3-15.7
		c-1.3-5.3-2.9-10.5-4.5-15.8c-0.5-1.7-1.1-3.4-1.7-5.1c-1.6-4.7-3.3-9.5-4.9-14.2c-0.9-2.5-1.7-5.1-2.7-7.6
		c-2.9-7.7-5.8-15.4-8.8-23.1c-0.8-2.2-1.8-4.4-2.7-6.6c-1.5-3.6-2.9-7.2-4.4-10.8c-0.4-0.9-0.8-1.9-1.2-2.8c0-0.3,0.1-0.6,0.1-0.9
		c0.6-4.4,1.4-8.7,2.3-13c0.9-4.1,2.1-8.1,3.7-12c1-2.3,2.2-4.5,3.7-6.5c0.9-1.2,1.9-2.2,3-3.2c0.4-0.3,0.9-0.6,1.3-0.8
		c0.6-0.2,1.2-0.4,1.9-0.5c1-0.1,2-0.1,3,0c0.8,0.2,1.7,0.4,2.5,0.7c1.1,0.5,2.2,1.2,3.2,1.9c1.1,0.9,2.1,1.8,2.9,2.9
		c1.2,1.7,2.2,3.5,3,5.4c0.9,2.4,1.6,4.8,1.9,7.3c0.1,1.3,0.2,2.6,0.3,3.9c0,1.5-0.1,3-0.3,4.4c-0.4,2.6-1,5.1-2,7.5
		c-1.1,2.5-2.5,4.9-4.1,7c-1.6,1.9-3.3,3.7-5.2,5.3c-1.4,1-2.8,2-4.3,2.8c-0.5,0.3-1,0.6-1.5,0.8c-0.5,0.3-1,0.5-1.5,0.7
		c-0.5,0-1,0.2-1.4,0.4c-0.7,0.4-1.3,1.1-1.5,1.9c-0.2,0.6-0.2,1.1,0,1.7c0.2,0.8,0.8,1.6,1.5,1.9c0.6,0.3,1.1,0.5,1.7,0.5
		c0.3,0,0.7-0.1,1-0.1c2.1-0.1,4.1-0.3,6.2-0.5c2.7-0.2,5.4-0.7,8.1-1.3c2.4-0.5,4.7-1.3,7-2.1c2.6-0.9,5-2,7.4-3.4
		c4.5-2.5,8.5-5.7,12-9.4c0.7-0.8,1.4-1.6,2.1-2.5c0.7,0.6,1.6,1.1,2.5,1.4c1,0.4,2.1,0.6,3.2,0.7c1,0.1,2.1-0.1,3.1-0.4
		c0.6-0.2,1.1-0.4,1.6-0.6c0.7-0.3,1.3-0.7,1.9-1.1c0.9-0.6,1.8-1.4,2.7-2.1c0.8-0.7,1.5-1.5,2.2-2.4c1.5-1.9,2.7-4,3.8-6.2
		c0.6-1,1.1-2.1,1.6-3.2c0.5-1.1,1-2.3,1.5-3.5c0.7-1.7,1.3-3.3,1.9-5c0.8-2.2,1.6-4.4,2.4-6.6c0.5-1.4,1-2.9,1.5-4.3
		c0.3-0.9,0.6-1.7,0.9-2.6c0.1-0.4,0.3-0.7,0.4-1.1c0.4-1.6,0.8-3.3,1.2-4.9c0.3-1.3,0.5-2.6,0.7-3.8c0.1-0.8,0.3-1.6,0.4-2.3
		c0.1-1,0.3-2,0.6-2.9c0.2-0.9,0.5-1.7,0.8-2.6c1.4-3.1,3.4-5.9,5.3-8.7c0.6-0.9,1.3-1.8,2-2.7c0,1.3-0.2,2.6-0.3,3.8
		c-0.1,1.3-0.2,2.5-0.3,3.8c-0.1,1.5-0.2,2.9-0.2,4.4c-0.1,2.6-0.1,5.2,0.1,7.7c0.1,1.2,0.3,2.5,0.5,3.7c0.2,1.3,0.5,2.5,0.8,3.8
		c0.5,2.1,1.3,4.2,2.5,6c1.3,2,3,3.8,4.8,5.3c0.9,0.7,1.7,1.3,2.7,1.8c0.9,0.5,1.9,0.8,3,1c1.1,0.3,2.2,0.4,3.3,0.4
		c1.3,0.1,2.6,0,3.8-0.1c2.2-0.2,4.5-0.6,6.6-1.2c2.3-0.7,4.6-1.7,6.7-2.8c2-1.1,3.9-2.4,5.8-3.8c2.1-1.5,4.1-3.1,6-4.7
		c1.8-1.5,3.7-3,5.4-4.6c1.9-1.8,3.8-3.7,5.6-5.6c1.7-1.8,3.3-3.6,4.9-5.4c1.8-2,3.6-4.1,5.3-6.2c3.4-4.1,6.5-8.4,9.7-12.7
		c1.2-1.6,2.3-3.2,3.5-4.8c2.9-4.1,5.8-8.2,8.6-12.3c3.8-5.4,7.5-10.9,11.1-16.4C482.3,6.5,484.5,3.3,486.6,0
		C486.6,0,486.6,0,486.6,0C486.6,0,486.6,0,486.6,0L486.6,0z M340.5,65.9c0.1,0,0.2,0.1,0.3,0.1C340.8,66,340.7,65.9,340.5,65.9
		L340.5,65.9z M340.9,66C340.9,66,340.9,66,340.9,66C340.9,66,340.9,66,340.9,66L340.9,66z M341,66.1C341,66.1,341,66.1,341,66.1
		c0.8,0.7,1.5,1.4,2.1,2.1c0.6,0.9,1.2,1.8,1.7,2.8c0.5,1.2,0.8,2.5,1,3.8c0.2,2.2,0.1,4.4-0.1,6.6c-0.7,4.8-2.1,9.4-4,13.9
		c-0.9,2.2-1.9,4.3-3.1,6.4c0,0.1-0.1,0.1-0.1,0.2c-0.1-0.3-0.1-0.6-0.2-0.8c-0.5-2.3-0.9-4.7-1.2-7.1c-0.4-3.4-0.6-6.7-0.7-10.1
		c0-1.7,0-3.4,0.1-5.2c0.1-1.5,0.3-3.1,0.5-4.6c0.2-1.7,0.6-3.3,1.2-5c0.3-0.7,0.7-1.3,1.1-1.9c0.3-0.3,0.5-0.6,0.8-0.8
		c0.1-0.1,0.2-0.1,0.3-0.2c0.1,0,0.1,0,0.2-0.1C340.7,66.1,340.9,66.1,341,66.1L341,66.1z M341.1,66.1c0.1,0.1,0.2,0.1,0.3,0.2
		C341.3,66.3,341.2,66.2,341.1,66.1L341.1,66.1z M340.1,66.2c-0.1,0-0.1,0.1-0.2,0.1C340,66.3,340.1,66.3,340.1,66.2L340.1,66.2z
		 M339.9,66.5c-0.1,0-0.1,0.1-0.2,0.1C339.8,66.5,339.9,66.5,339.9,66.5L339.9,66.5z M337,74.3c0,0.1,0,0.1,0,0.2
		C337,74.4,337,74.3,337,74.3L337,74.3z M304.4,77.8c0,0,0.1,0.1,0.1,0.1C304.5,77.8,304.5,77.8,304.4,77.8L304.4,77.8z M356.8,95.6
		c0,0.1-0.1,0.1-0.1,0.2C356.7,95.8,356.7,95.7,356.8,95.6L356.8,95.6z M274.8,100c0,0.1,0.1,0.2,0.1,0.3
		C274.9,100.3,274.8,100.2,274.8,100L274.8,100z M180.1,117.6c0.1,0,0.1,0,0.2,0.1c0.1,0,0.1,0.1,0.2,0.1c0.1,0.1,0.1,0.1,0.2,0.2
		c0,0.1,0.1,0.1,0.1,0.2c0.2,0.7,0.4,1.4,0.5,2.1c0.2,2.1,0.4,4.2,0.6,6.3c0,0.5,0,1,0.1,1.6c0,1.2,0.1,2.5,0.1,3.7
		c0,0.9,0.1,1.8,0.1,2.8c0,0.7,0,1.4,0,2.1c0,1.3-0.1,2.6-0.1,4c-0.2,5.1-0.7,10.2-1.3,15.3c0,0,0,0,0,0c0,0,0,0,0,0
		c0,0.1,0,0.2,0,0.3c0,0,0-0.1,0-0.1c-0.9,6.5-2.2,12.9-3.8,19.2c-0.9,3.3-1.8,6.5-2.9,9.7c-0.6,1.7-1.2,3.5-1.8,5.2
		c-1.2-0.7-2.3-1.4-3.4-2.2c-2-1.6-3.7-3.3-5.3-5.2c-1.5-2-2.7-4.1-3.7-6.3c-0.4-1-0.7-2-1-3c-0.4-1.3-0.6-2.6-0.8-3.9
		c-0.2-1.5-0.3-3.1-0.3-4.6c0-1.6,0.2-3.2,0.4-4.7c0.6-4,1.4-7.9,2.4-11.8c1.1-4,2.4-8,4-11.9c0.9-2.1,1.9-4.2,3-6.3
		c1-2,2.2-3.9,3.6-5.8c1.4-1.8,3-3.5,4.8-5c0.8-0.6,1.6-1,2.4-1.4c0.5-0.2,1-0.3,1.6-0.4C179.9,117.6,180,117.6,180.1,117.6
		L180.1,117.6z M180.4,117.7C180.4,117.7,180.5,117.7,180.4,117.7C180.5,117.7,180.4,117.7,180.4,117.7L180.4,117.7z M180.5,117.8
		c0,0,0.1,0,0.1,0.1c0,0,0,0,0,0C180.5,117.9,180.5,117.8,180.5,117.8L180.5,117.8z M180.6,117.9
		C180.6,117.9,180.6,117.9,180.6,117.9C180.7,117.9,180.7,117.9,180.6,117.9C180.6,117.9,180.6,117.9,180.6,117.9
		C180.6,117.9,180.6,117.9,180.6,117.9L180.6,117.9z M180.7,117.9c0,0,0.1,0.1,0.1,0.1C180.7,118,180.7,118,180.7,117.9
		C180.7,117.9,180.7,117.9,180.7,117.9L180.7,117.9z M278.5,139.7c-0.1-6.5,0.2-13,0.7-19.5c0.7,1.9,1.5,3.7,2.2,5.6
		c1.1,2.7,2.3,5.5,3.3,8.2c2.9,7.7,5.8,15.4,8.6,23.1c0.2,0.6,0.4,1.1,0.6,1.7c0.6,1.7,1.1,3.3,1.7,5c1.5,4.3,2.9,8.6,4.4,12.8
		c0.4,1.2,0.8,2.4,1.2,3.6c0.2,0.5,0.3,1.1,0.5,1.6c0.7,2.3,1.4,4.6,2.1,6.9c2.6,8.8,4.7,17.7,6,26.7c0.5,3.7,0.8,7.5,0.8,11.3
		c0,1.3,0,2.6,0,4c0,0.3,0,0.6,0,0.9c0,0.7,0,1.4,0,2.1c0,0-0.1,0-0.1,0c-0.1,0-0.2-0.1-0.3-0.1c-0.4-0.2-0.9-0.5-1.3-0.8
		c-1.3-1.1-2.4-2.3-3.4-3.6c-1.2-1.4-2.4-2.7-3.5-4.1c-2.5-3.3-4.6-6.7-6.6-10.3c-2.1-3.7-4-7.6-5.7-11.5
		c-4.8-11.6-7.9-23.8-9.6-36.2C279.1,158.2,278.6,148.9,278.5,139.7L278.5,139.7z M208.9,121.5C208.9,121.5,208.9,121.6,208.9,121.5
		C208.9,121.6,208.9,121.6,208.9,121.5C208.9,121.6,208.9,121.5,208.9,121.5L208.9,121.5z M217.5,122.2c0,0,0.1,0,0.1,0
		C217.6,122.3,217.6,122.2,217.5,122.2L217.5,122.2z M221.4,124.5c0.1,0.1,0.1,0.1,0.2,0.2C221.5,124.6,221.5,124.6,221.4,124.5
		L221.4,124.5z M231.1,137c0,0,0,0.1,0.1,0.1C231.1,137,231.1,137,231.1,137L231.1,137z M162.9,208.4
		C162.9,208.4,162.9,208.4,162.9,208.4C162.9,208.4,162.9,208.4,162.9,208.4L162.9,208.4z M151.1,212.3
		C151.1,212.3,151.1,212.3,151.1,212.3C151.1,212.3,151.1,212.3,151.1,212.3L151.1,212.3z M155,213.8C155,213.8,155,213.8,155,213.8
		C155,213.8,155,213.8,155,213.8L155,213.8z M310.3,233.8c0.1,0,0.1,0,0.2,0C310.4,233.8,310.4,233.8,310.3,233.8L310.3,233.8z
		 M180.6,156.2c0-0.1,0-0.1,0-0.2c0,0,0,0,0,0C180.6,156.1,180.6,156.1,180.6,156.2L180.6,156.2z"/>
	<path class="st0" id="Gloaming" stroke="#000000" stroke-width="2" d="M731.7,81.5c-2.6,0.5-5.1,1.2-7.7,1.8c-4.9,1.2-9.7,3.2-14.4,5.1c-7.7,3.2-15.3,6.3-23,9.6
		c-6.4,2.5-12.7,5.1-19.1,7.7c-6.7,2.7-13.5,5.4-20.2,8.2c0,0,0,0,0,0c5.5-1.5,11-3,16.4-4.6c3-0.9,6-1.7,9-2.6
		c3.3-1,6.7-2.1,10-3.2c2-0.7,4.1-1.3,6.1-2c3.7-1.3,7.3-2.7,11-4c3.4-1.3,6.7-2.5,10.1-3.8c4.1-1.6,8.1-3.2,12.3-4.6
		c2.1-0.7,4.2-1.2,6.4-1.7c2.1-0.5,4.3-1,6.5-1.4c0.9-0.1,1.8-0.2,2.8-0.3c1.3-0.1,2.6,0,3.9,0.1c0.8,0.1,1.7,0.3,2.5,0.5
		c1.1,0.3,2.2,0.7,3.3,1.1c1.3,0.6,2.5,1.2,3.7,2.1c0.4,0.3,0.7,0.6,1.1,1c0.6,0.5,1.1,1.2,1.5,1.8c0.7,1,1.4,2,2.1,3
		c0.9,1.3,1.5,2.8,2.1,4.3c1,2.5,1.8,5.2,2.5,7.8c0.7,2.7,1.2,5.4,1.6,8.1c0.9,7.3,0.7,14.8-0.2,22.1c-0.4,3.5-0.9,7-1.3,10.5
		c-0.5,3.2-1.1,6.5-1.7,9.7c-0.6,3.3-1.4,6.6-2.2,9.8c-1.6,6.5-3.5,12.9-5.7,19.2c-1,3-2.2,5.9-3.3,8.9c-0.9-5.2-2.1-10.4-3.4-15.5
		c-1.1-4.2-2.6-8.4-4-12.6c-0.5-1.5-1.2-3-1.7-4.5c-0.8-2.1-1.7-4.2-2.5-6.3c-0.5-1.2-0.9-2.5-1.5-3.7c-2.1-4.7-4.3-9.3-6.5-14
		c0.1,0.2,0.2,0.4,0.3,0.6c-0.2-0.4-0.4-0.9-0.5-1.3c-0.1-0.2-0.2-0.4-0.3-0.6c-0.2-0.4-0.6-0.7-1-1c-0.6-0.4-1.4-0.5-2.1-0.3
		c-0.7,0.2-1.2,0.6-1.6,1.2c-0.4,0.7-0.4,1.3-0.3,2.1c0,0.1,0,0.3,0.1,0.4c0.1,1.1,0.2,2.3,0.2,3.5c0,0.9,0.1,1.7,0.1,2.6
		c0,1.7,0.1,3.4,0.1,5c-0.1,2.1-0.1,4.2-0.2,6.3c-0.1,4.7-0.6,9.3-1.2,13.9c-0.2,1-0.3,2.1-0.5,3.1c-0.2,1-0.5,2-0.8,3
		c-0.5,1.6-1,3.3-1.6,4.8c-0.5,1-1,1.9-1.6,2.8c0.2-0.2,0.3-0.4,0.5-0.6c-0.3,0.5-0.7,0.9-1.1,1.3c-0.5,0.6-1.1,1.1-1.6,1.5
		c-0.6,0.4-1.3,0.8-2,1.2c-0.2,0.1-0.5,0.1-0.7,0.2c-0.5,0-0.9,0-1.4-0.1c0.2,0,0.5,0.1,0.8,0.1c-0.5-0.1-0.9-0.2-1.4-0.4
		c-0.6-0.3-1.2-0.6-1.8-1c-0.2-0.2-0.4-0.4-0.6-0.6c-0.6-0.8-1.1-1.7-1.5-2.6c-0.3-0.7-0.5-1.4-0.8-2.1c-0.3-1-0.5-2-0.6-3
		c-0.2-1.7-0.3-3.3-0.3-5c0-2,0.2-4.1,0.4-6.1c0.5-3.1,1.1-6.2,1.9-9.3c0.8-3.1,1.9-6.1,3.1-9c0.4-1,0.9-2,1.4-2.9
		c0.9-0.9,1.8-1.8,2.7-2.7c0.5-0.5,1.1-1.1,1.6-1.6c0.3-0.3,0.5-0.5,0.8-0.8c0.3-0.3,0.6-0.6,0.8-0.9c0.3-0.3,0.5-0.7,0.7-1.2
		c0.3-0.6,0.4-1.2,0.2-1.8c-0.2-0.7-0.6-1-1.1-1.4c-0.6-0.5-1.6-0.9-2.4-0.6c-0.4,0.1-0.9,0.3-1.3,0.5c-0.2,0.2-0.5,0.4-0.7,0.5
		c-0.4,0.3-0.8,0.6-1.1,1c-1,1-1.9,2.2-2.7,3.4c-0.7,1.1-1.4,2.3-2,3.5c-1.6,1.5-3.3,3-4.9,4.4c-1.9,1.7-3.8,3.5-5.5,5.4
		c-1.1,1.3-2.2,2.6-3.2,4c-1.3,1.8-2.3,3.7-3.3,5.6c-1.6,3-2.8,6.1-3.7,9.4c-0.2,0.6-0.3,1.3-0.4,1.9c0-1.6,0-3.2,0-4.8
		c0-1.6,0-3.2,0-4.8c0-3.2-0.4-6.5-0.9-9.6c-0.3-1.6-0.7-3.1-1.3-4.5c-0.2-0.5-0.4-1-0.7-1.4c-0.1-0.2-0.3-0.5-0.4-0.7
		c-0.3-0.4-0.6-0.8-0.9-1.2c-0.3-0.4-0.7-0.7-1.1-1c-0.3-0.2-0.5-0.3-0.8-0.5c-0.5-0.2-1-0.4-1.5-0.5c-0.2,0-0.4-0.1-0.7-0.1
		c-0.4,0-0.9,0.1-1.3,0.1c-0.2,0.1-0.4,0.1-0.6,0.2c-0.4,0.1-0.8,0.3-1.1,0.6c-0.4,0.2-0.7,0.5-1,0.9c-0.6,0.6-1.1,1.1-1.6,1.8
		c-0.5,0.6-0.9,1.2-1.2,1.9c-0.5,0.8-0.8,1.7-1.1,2.6c-0.6,1.5-1.1,3-1.7,4.5c-0.9,2.5-1.6,5-2.3,7.6c-0.8,2.5-1.3,5.2-1.8,7.8
		c-0.5,2.5-0.8,5-1.1,7.5c-0.3-0.7-0.6-1.5-0.9-2.2c-0.8-2-1.7-3.9-2.6-5.9c-2-4.3-4.3-8.5-7.1-12.4c-1.1-1.4-2.3-2.8-3.5-4.1
		c-0.5-0.6-1.2-1-1.9-1.4c-0.2-0.1-0.4-0.2-0.6-0.3c-0.4-0.2-0.9-0.4-1.4-0.4c-0.7-0.1-1.4-0.1-2.1,0c-0.2,0.1-0.5,0.1-0.7,0.2
		c-0.4,0.2-0.8,0.3-1.2,0.5c-0.2,0.1-0.4,0.3-0.5,0.4c-0.4,0.3-0.7,0.6-0.9,1c-0.6,0.9-1.1,1.9-1.5,2.9c-0.8,1.8-1.4,3.8-1.9,5.7
		c-0.4,1.4-0.8,2.9-1.1,4.4c-0.4,2.1-0.7,4.2-1.1,6.3c-0.2,1-0.4,2.1-0.5,3.1c-0.3,2.2-0.6,4.4-0.9,6.6c-0.4,3.2-0.8,6.4-1.2,9.6
		c-0.2,1.7-0.4,3.3-0.6,5c-0.1,0.4-0.1,0.9-0.1,1.3c0,0,0,0.1,0,0.1c0-0.1-0.1-0.2-0.1-0.3c-1-2.1-1.9-4.2-2.8-6.3
		c-0.5-1.3-1.1-2.6-1.6-3.9c-0.4-1-0.8-2-1.2-3c-0.6-1.7-1.2-3.5-1.8-5.2c-0.3-0.8-0.5-1.7-0.8-2.5c0-0.3,0-0.5,0-0.8
		c0-0.8,0-1.6-0.1-2.4c-0.1-1.3-0.2-2.6-0.5-3.9c-0.1-0.8-0.3-1.6-0.6-2.3c-0.1-0.3-0.3-0.6-0.5-0.9c-0.3-0.2-0.6-0.5-0.9-0.7
		c-1.2-0.8-3.1,0-3.4,1.4c-0.1,0.5-0.2,0.9-0.2,1.4c0,0.3-0.1,0.5-0.1,0.8c0,0.6,0.1,1.1,0.2,1.7c0.3,1.5,0.6,3.1,1,4.6
		c0,0.6-0.1,1.1-0.1,1.7c-0.1,1.9-0.3,3.9-0.5,5.8c-0.3,1.8-0.5,3.6-0.8,5.5c-0.2,1.4-0.5,2.8-0.8,4.2c-0.4,1.9-0.8,3.9-1.2,5.8
		c-0.2,1.1-0.5,2.2-0.8,3.3c-0.4,1.5-0.8,2.9-1.2,4.4c-0.4,1.4-0.9,2.8-1.4,4.2c-0.4,1.2-0.9,2.4-1.4,3.6c-0.5,1.2-1.1,2.3-1.8,3.4
		c-0.6,1-1.3,2-2,2.9c-0.3,0.3-0.6,0.7-0.9,1c-0.6,0.6-1.2,1.2-1.8,1.7c-0.3,0.2-0.7,0.5-1.1,0.7c-0.4,0.2-0.8,0.4-1.2,0.6
		c-0.5,0.2-0.9,0.3-1.4,0.5c-0.4,0.1-0.8,0.2-1.2,0.3c-0.2,0-0.4,0-0.6,0.1c-0.3,0-0.7,0-1,0c-0.8-0.2-1.5-0.4-2.2-0.6
		c-0.1-0.1-0.3-0.1-0.4-0.2c-0.3-0.2-0.6-0.4-0.9-0.6c-0.6-0.6-1.2-1.1-1.8-1.8c-1.1-1.5-1.9-3.1-2.6-4.8c-0.6-1.4-1.1-2.9-1.6-4.3
		c-0.4-1.4-0.8-2.7-1.2-4.1c-0.2-0.7-0.5-1.5-0.7-2.2c-0.3-1.2-0.6-2.5-1-3.7c-0.5-1.8-0.9-3.7-1.4-5.5c-0.9-3.4-1.7-6.7-3.1-10
		c-0.5-1.1-0.9-2.2-1.5-3.2c-0.3-0.4-0.6-0.9-0.9-1.3c-0.3-0.4-0.7-0.8-1.1-1.2c-0.6-0.6-1.5-1-2.4-1.1c-0.5-0.1-0.9,0-1.4,0.1
		c-0.4,0.1-0.9,0.3-1.3,0.5c-0.7,0.4-1.2,1.2-1.7,1.9c-0.6,1-1.1,2.1-1.5,3.2c-0.5,1.2-1,2.4-1.5,3.6c-0.6,1.7-1.1,3.4-1.6,5.1
		c-0.8,2.8-1.3,5.7-1.8,8.5c-0.4,2.4-0.6,4.9-0.8,7.3c-0.3-0.6-0.7-1.1-1-1.7c-0.7-1.1-1.4-2.2-2.1-3.3c-1.4-2.1-3.1-3.9-5-5.6
		c-0.9-0.8-1.9-1.4-2.9-1.9c-0.9-0.5-1.9-0.7-3-0.9c-0.5-0.1-1-0.1-1.5-0.1c-0.5,0.1-1,0.1-1.4,0.2c-0.4,0.2-0.9,0.4-1.3,0.6
		c-0.4,0.3-0.8,0.6-1.2,0.9c-0.6,0.6-1.2,1.1-1.7,1.7c-0.7,0.8-1.4,1.8-1.9,2.7c-0.7,1.2-1.3,2.4-1.8,3.7c-0.5,1.2-1,2.5-1.3,3.8
		c-0.9,2.8-1.2,5.7-1.5,8.6c-0.3,3-0.4,6-0.3,9.1c0.1,4.2,0.4,8.4,1.1,12.6c-1.2-1.6-2.5-3.2-3.8-4.8c-1.1-1.3-2.3-2.6-3.5-3.8
		c-1.2-1.2-2.6-2.3-3.9-3.4c-1.3-1-2.6-1.9-4.1-2.7c-0.6-0.3-1.2-0.6-1.9-0.8c-0.9-0.4-1.7-0.7-2.6-0.9c-0.6-0.1-1.1-0.2-1.7-0.3
		c-0.3,0-0.7,0-1,0c-0.5,0.1-0.9,0.1-1.4,0.2c-1.3,0.4-2.7,1-3.5,2.1c-0.3,0.4-0.6,0.8-0.7,1.3c-0.3,0.9-0.5,1.7-0.7,2.7
		c-0.2,1.1-0.3,2.2-0.4,3.3c-0.2,1.6-0.3,3.1-0.5,4.7c-0.1,1.1-0.1,2.3-0.2,3.5c-0.1,0.9-0.1,1.8-0.2,2.7c0,0.4-0.1,0.9-0.1,1.3
		c0,3,0,6.1,0,9.1c0,2.7,0.2,5.5,0.3,8.2c0.1,1.8,0,3.7,0,5.5c0,2.1,0,4.1-0.2,6.2c-0.3,1.8-0.7,3.6-1.3,5.4
		c-0.2,0.5-0.4,0.9-0.7,1.3c0,0-0.1,0.1-0.1,0.1c-0.2,0.1-0.3,0.2-0.5,0.3c-0.2,0.1-0.3,0.1-0.5,0.1c0,0-0.1,0-0.1,0c0,0,0,0,0,0
		c-1-0.5-1.9-1.1-2.9-1.8c-1.8-1.4-3.4-2.9-5-4.5c-1.9-1.9-3.7-4-5.3-6.1c-1.7-2.2-3.3-4.5-4.8-6.9c-0.4-0.6-0.7-1.1-1-1.7
		c-0.2-1-0.4-1.9-0.7-2.9c-0.2-0.9-0.5-1.8-0.8-2.6c-0.4-1.3-0.9-2.6-1.5-3.9c-0.2-0.4-0.4-0.8-0.6-1.2c-0.2-0.3-0.5-0.7-0.8-1
		c-0.7-0.8-1.9-0.9-2.9-0.8c-0.7,0-1.3,0.3-1.9,0.7c0.1-0.8,0.2-1.5,0.3-2.3c0.2-1.3,0.2-2.6,0-3.9c0-0.6-0.2-1.1-0.4-1.6
		c-0.1-0.2-0.2-0.4-0.3-0.7c-0.2-0.4-0.5-0.8-0.7-1.2c-0.4-0.6-0.9-1.1-1.7-1.3c-1-0.3-1.9,0.1-2.7,0.7c-0.7,0.6-1.4,1.2-2,1.8
		c-1.1,1-2,2.2-2.9,3.2c-0.5,0.6-1.1,1.2-1.6,1.8c-1.2,1.3-2.3,2.6-3.5,3.9c-2.6,2.9-5.2,5.7-7.8,8.5c-1.7,1.8-3.3,3.5-5,5.3
		c-1,1-2,2-3,3c-1.7,1.7-3.3,3.4-5,5c-0.9,0.9-1.8,1.8-2.8,2.7c-0.7,0.7-1.4,1.4-2.1,2c0-0.1,0-0.1,0-0.2c0-0.5-0.2-1-0.4-1.5
		c-0.2-0.5-0.4-0.9-0.8-1.2c-0.3-0.4-0.6-0.8-1-1.2c-0.4-0.5-1.3-0.8-1.9-0.8c-0.8,0-1.4,0.3-1.9,0.8c-0.4,0.4-0.9,0.8-1.3,1.1
		c-0.4,0.4-0.8,0.8-1.2,1.3c-0.9,1.2-1.7,2.4-2.5,3.7c-0.6,0.9-1.2,1.8-1.8,2.8c-0.8,1.2-1.5,2.4-2.3,3.5c-1.5,2.3-2.9,4.7-4.3,7.1
		c-1.8,3-3.4,6.1-4.9,9.1c-1.6,3.1-3.1,6.2-4.5,9.4c-2.7,6-4.9,12.2-7,18.4c-0.8,2.4-1.6,4.9-2.3,7.4c-1,3.2-1.9,6.5-2.9,9.7
		c-0.7,2.5-1.5,5-2.2,7.4c-0.9,3.2-1.8,6.5-2.9,9.7c-0.5,1.6-1.1,3.2-1.7,4.8c-0.4,1.3-0.8,2.7-1.4,4c-0.2,0.3-0.3,0.7-0.5,1
		c-0.2,0.3-0.3,0.6-0.5,0.9c-0.2,0.2-0.3,0.4-0.5,0.5c-0.2,0.1-0.4,0.3-0.7,0.4c0.1,0,0.2-0.1,0.4-0.2c0.1-0.1,0.2-0.1,0.2-0.2
		c-0.1,0.1-0.1,0.1-0.2,0.2c0.1,0,0.2-0.1,0.2-0.1c-0.1,0.1-0.2,0.1-0.3,0.1c-0.1,0-0.1,0.1-0.2,0.1c0,0,0.1-0.1,0.1-0.1
		c-0.2,0.1-0.3,0.1-0.5,0.2c0,0-0.1-0.1-0.1-0.1c-0.5-0.6-1-1.3-1.4-1.9c-0.6-0.8-1.2-1.7-1.7-2.5c-1.3-2.1-2.5-4.3-3.7-6.5
		c-1.1-2.1-2.1-4.1-3.1-6.2c-1.7-3.6-3.4-7.2-5.1-10.8c-1.6-3.5-3.3-7.1-4.9-10.6c-0.9-2.1-1.9-4.1-2.9-6.2c-0.4-0.8-0.7-1.5-1-2.3
		c0.5-1.2,1-2.4,1.5-3.6c3.4-8.6,5.9-17.6,8-26.7c2.1-9.3,3.6-18.9,3.7-28.5c0.1-4.4-0.5-8.8-1.4-13.1c-0.5-2-1.1-4-1.9-5.9
		c-0.4-0.9-0.8-1.8-1.2-2.6c-0.6-1.2-1.3-2.2-2-3.3c-1.1-1.5-2.3-2.7-3.7-3.8c-0.7-0.5-1.4-1-2.1-1.4c-0.7-0.4-1.5-0.7-2.3-1
		c-0.8-0.3-1.7-0.4-2.6-0.5c-0.3,0-0.7-0.1-1-0.1c-0.6,0-1.3,0-1.9,0.1c-0.2,0-0.5,0.1-0.7,0.1c-0.6,0.1-1.2,0.3-1.8,0.5
		c-1.2,0.4-2.2,1.1-3.2,1.8c-0.7,0.5-1.3,1.1-2,1.8c-0.6,0.6-1,1.3-1.5,1.9c-0.5,0.7-0.9,1.6-1.2,2.4c-0.3,0.8-0.6,1.5-0.9,2.3
		c-0.6,1.7-0.9,3.6-1.3,5.3c-0.4,2.3-0.6,4.7-0.7,7.1c-0.1,2.2,0,4.4,0.1,6.6c0.1,2.2,0.2,4.5,0.4,6.7c0.4,4.8,1.1,9.6,2,14.3
		c1.7,9.5,4.3,18.8,7.6,27.9c1.3,3.6,2.8,7.1,4.3,10.6c-1.9,4.4-4,8.7-6.3,12.9c-2.4,4.2-5.2,8.2-8.1,12.1c-1.5,1.9-3,3.7-4.6,5.5
		c-1.9,2.2-3.9,4.2-6,6.2c-3.9,3.8-8.1,7.5-12.4,10.9c-0.6,0.5-1.2,0.9-1.9,1.4c1.5-7.8,2.5-15.7,2.8-23.6c0.2-4.7-0.1-9.4-0.4-14
		c-0.3-5-0.9-10-1.5-15c-0.8-5.9-1.8-11.7-3-17.5c-1.3-6.2-2.7-12.4-4.5-18.6c-1.7-5.8-3.7-11.6-6-17.2c-1-2.6-2.2-5.1-3.4-7.7
		c-1.4-2.9-2.9-5.8-4.4-8.7c-1-1.8-2-3.7-3-5.5c-1.1-2-2.2-4-3.3-6c-0.4-0.7-0.8-1.3-1.2-2c-0.8-1.4-1.7-2.9-2.5-4.3
		c-0.4-0.7-0.8-1.3-1.2-2c-0.7-1.1-1.3-2.3-2.1-3.3c-0.3-0.4-0.6-0.8-1-1.2c-0.2-0.1-0.3-0.2-0.5-0.4c-0.4-0.3-0.8-0.6-1.3-0.8
		c-1.1-0.6-2.7-0.3-3.3,0.9c-0.4,0.7-0.8,1.5-1.1,2.3c-0.4,1.2-0.7,2.5-1,3.7c-0.2,0.8-0.4,1.7-0.6,2.5c-0.4,1.5-0.7,3-1.1,4.5
		c-0.8,3.4-1.6,6.8-2.3,10.3c-0.9,4.1-1.8,8.1-2.8,12.2c-0.6,2.7-1.3,5.3-2,8c-0.7,2.7-1.4,5.3-2.2,7.9c-0.8,2.6-1.6,5.1-2.5,7.6
		c-1,2.8-2,5.6-3.1,8.4c-2.2,5.2-4.8,10.3-8.2,14.9c-0.7,0.9-1.3,1.7-2,2.5c-0.9,1.1-1.9,2.1-3,3.1c-0.5,0.4-1.1,0.7-1.7,1
		c-0.5,0.2-1,0.3-1.5,0.4c-0.6,0-1.1,0-1.7,0c-0.2,0-0.3-0.1-0.5-0.1c-0.2-0.1-0.4-0.2-0.6-0.3c-1.5-1.3-2.9-2.8-4.2-4.3
		c-0.5-0.7-1-1.4-1.5-2.2c-0.5-0.7-0.8-1.5-1.2-2.3c-1.1-2.9-1.9-5.8-2.3-8.9c-0.4-3.7-0.6-7.4-0.7-11.1c-0.1-1.8-0.2-3.7-0.2-5.5
		c0-0.7-0.1-1.3-0.1-2c0-3.2-0.1-6.4-0.1-9.5c0-1.2,0-2.5,0-3.7c0-1.9,0.1-3.9,0.1-5.8c0-1.9-0.2-3.8-0.3-5.8c0-0.4-0.1-0.7-0.3-1.1
		c-0.3-0.5-0.7-0.8-1.3-1c-0.4-0.1-0.7-0.1-1.1,0c-0.5,0.1-1.1,0.5-1.3,1c-0.4,0.8-0.7,1.6-1,2.4c-0.4,1-0.7,2-1,3.1
		c-0.3,0.9-0.5,1.9-0.8,2.8c-0.6,2.2-1.3,4.3-1.9,6.5c-0.9,3.1-1.7,6.2-2.6,9.3c-0.6,2.3-1.3,4.6-1.9,7c-1,4-1.9,8-2.9,12.1
		c-0.9,3.7-1.8,7.4-2.7,11c-0.4,1.6-0.6,3.1-0.9,4.7c-1.6,8.7-3.2,17.4-4.7,26.2c-0.2,1.4-0.5,2.8-0.7,4.1c-0.2,1.6-0.5,3.1-0.7,4.7
		c-1.1,7.5-2.2,15-3.3,22.4c-0.4,2.8-0.8,5.5-1.2,8.3c-0.5,3.5-1.2,7.1-1.8,10.6c-1.3,7.5-2.6,14.9-4.5,22.2
		c-0.9,3.5-1.9,6.9-3,10.4c-1.1,3.7-2.4,7.4-3.9,11c-1.3,3.1-2.8,6.2-4.8,9c-2,2.5-4.3,4.7-6.4,7.1c-0.4-0.3-0.9-0.6-1.3-0.9
		c-0.2-0.2-0.4-0.4-0.6-0.6c-0.1-0.2-0.3-0.5-0.4-0.7c-0.1-0.3-0.2-0.5-0.3-0.8c-0.2-0.5-0.3-1.1-0.4-1.6c0,0,0,0,0,0
		c-0.1-0.8-0.1-1.6-0.1-2.5c0,0,0,0,0,0c0,0.8,0,1.6,0,2.5c0,0.9,0.3,1.7,0.6,2.5c0.4,1.2,1.6,1.9,2.6,2.7c0.1,0.1,0.2,0,0.3,0
		c1.4-1.4,2.8-2.7,4.3-4.1c1.2-1.1,2.4-2.3,3.4-3.7c2.6-3.7,4.6-7.8,6.4-12c1.6-3.7,2.9-7.5,4.2-11.3c1.5-4.6,2.9-9.2,4-13.8
		c1.1-4.4,1.9-8.9,2.8-13.3c0.4-2.2,0.8-4.5,1.2-6.7c0.2-1.2,0.5-2.4,0.6-3.5c0.4-2.7,0.9-5.5,1.3-8.2c1.4-8.7,2.7-17.4,4.1-26.1
		c0.8-4.9,1.7-9.7,2.7-14.5c1.4-7.2,2.7-14.4,4.1-21.6c0.2-1.3,0.6-2.5,0.9-3.8c1-4,2-8.1,3-12.1c0.8-3.1,1.6-6.2,2.3-9.3
		c0.6-2.3,1.3-4.6,1.9-6.8c0.8-2.8,1.6-5.6,2.4-8.4c0.3-0.9,0.5-1.7,0.8-2.6c0,0.1,0,0.2,0,0.2c0,1.8,0,3.5,0,5.3
		c0,3.1-0.1,6.1,0,9.2c0.1,4.4,0.2,8.7,0.4,13.1c0.1,2,0.3,4,0.6,6c0.3,2,0.8,3.9,1.4,5.8c0.5,1.8,1.3,3.5,2.2,5.2
		c0.5,0.9,1.1,1.8,1.8,2.7c0.8,1.1,1.6,2,2.5,3c0.6,0.6,1.2,1.3,1.8,1.9c0.6,0.6,1.2,1,1.9,1.5c0.2,0.1,0.5,0.2,0.7,0.3
		c0.4,0.2,0.9,0.4,1.4,0.5c0.3,0,0.5,0.1,0.8,0.1c0.5,0.1,1.1,0.1,1.6,0.1c0.8,0,1.6-0.2,2.4-0.3c0.7-0.1,1.5-0.4,2.2-0.7
		c0.8-0.4,1.5-0.8,2.2-1.4c1-0.7,1.8-1.5,2.6-2.3c1.3-1.3,2.5-2.8,3.6-4.3c1.2-1.6,2.4-3.2,3.4-4.9c1.1-1.8,2.1-3.7,3-5.5
		c1.1-2.2,2.1-4.4,3.1-6.7c3.7-8.9,6.4-18.1,8.7-27.4c0.5-2.1,1-4.2,1.5-6.2c0.5-2.3,1-4.6,1.5-6.8c0.9-4,1.7-8,2.5-12
		c0.3-1.7,0.7-3.3,1-5c0.3-1.3,0.5-2.6,0.8-3.9c0.1-0.6,0.2-1.2,0.3-1.9c0.4,0.7,0.9,1.4,1.3,2.2c0.8,1.3,1.6,2.7,2.4,4
		c1,1.7,2,3.4,3,5.1c4,7.3,8.1,14.6,11.5,22.3c1.7,4.1,3.3,8.3,4.7,12.5c1.6,4.6,2.9,9.3,4,14.1c1.1,4.4,2,8.8,2.9,13.2
		c0.9,4.7,1.7,9.5,2.4,14.2c0.9,6.8,1.5,13.7,1.8,20.5c0.3,7.1-0.1,14.2-1,21.3c-0.8,5.4-1.8,10.8-3,16.1c-1.7,1.1-3.4,2.1-5.2,3.1
		c-4.3,2.5-8.8,4.6-13.3,6.7c-3.7,1.7-7.5,3.4-11.2,5.1c-2.9,1.1-5.9,2.3-8.8,3.4c-0.7,0.2-1.3,0.5-2,0.8c-0.3,0.1-0.5,0.2-0.8,0.3
		c-1.5,0.4-3,0.9-4.4,1.3c-1.9,0.6-3.8,1.1-5.8,1.7c-0.7,0.2-1.4,0.4-2.1,0.6c-3.4,0.9-6.8,1.7-10.2,2.6c-2.9,0.7-5.7,1.5-8.6,2.2
		c-0.8,0.2-1.6,0.4-2.4,0.7c-1.9,0.6-3.7,1.2-5.6,1.8c-1.2,0.4-2.5,0.8-3.8,1.2c-0.3,0.1-0.7,0.3-1,0.4c-1,0.4-1.9,0.7-2.9,1.1
		c-1.5,0.6-2.9,1.1-4.4,1.7c-1.4,0.5-2.8,1.1-4.2,1.7c-0.3,0.1-0.6,0.3-0.8,0.4c-0.4,0.3-0.8,0.6-1.2,0.9c-0.5,0.6-1,1.1-1.4,1.8
		c-0.2,0.4-0.3,0.8-0.3,1.2c0,0.7,0.3,1.2,0.7,1.7c0.4,0.5,0.9,1,1.5,1.4c0.2,0.1,0.5,0.3,0.7,0.4c0.5,0.2,1.1,0.5,1.6,0.7
		c0.7,0.3,1.4,0.6,2.1,0.9c1.5,0.6,3,1.3,4.6,1.9c1,0.4,1.9,0.8,2.9,1.2c1.2,0.5,2.4,0.9,3.6,1.3c4.6,1.6,9.3,2.6,14.1,3.6
		c4.4,0.9,8.9,1.6,13.4,2.1c2.3,0.3,4.6,0.3,6.9,0.4c2.7,0.1,5.3,0.1,8-0.1c4.1-0.3,8.2-1.3,12-2.7c1.8-0.7,3.6-1.5,5.3-2.4
		c2-1,3.8-2.4,5.5-3.8c3.1-2.5,5.6-5.7,7.9-8.8c2.8-3.8,4.8-8,6.7-12.3c1.7-4,3.3-8,4.6-12.2c1.1-3.4,2-6.8,2.9-10.2
		c3-2,6-4.2,8.8-6.4c3.7-2.9,7.1-6,10.5-9.2c6.4-6.1,12.1-12.9,17-20.2c3-4.5,5.6-9.2,7.9-14.1c2.7,6,5.5,12,8.3,18
		c1.7,3.6,3.3,7.2,5,10.7c1.5,3.3,3.2,6.5,5.1,9.6c0.5,0.9,1.1,1.7,1.6,2.6c0.5,0.8,1.1,1.5,1.6,2.3c0.4,0.6,0.9,1.2,1.4,1.8
		c0.3,0.3,0.7,0.6,1,0.9c0.4,0.2,0.8,0.4,1.2,0.5c0.6,0.2,1.4,0.2,2.1,0c0.2-0.1,0.5-0.1,0.7-0.2c0.5-0.2,0.9-0.4,1.4-0.6
		c0.2-0.1,0.5-0.3,0.7-0.4c0.4-0.3,0.7-0.6,1.1-0.9c0.4-0.3,0.7-0.7,0.9-1.1c0.3-0.4,0.6-0.8,0.9-1.3c0.4-0.7,0.7-1.4,1-2.1
		c0.3-0.8,0.6-1.6,0.9-2.4s0.5-1.6,0.8-2.5c0.4-1.3,1-2.6,1.4-4c1.4-4.3,2.6-8.7,3.9-13c0.4-1.2,0.7-2.5,1.1-3.7
		c1.3-4.3,2.6-8.7,3.9-13c0.7-2.2,1.4-4.4,2.2-6.6c1.5-4.4,3.1-8.7,4.9-13c1.8-4.2,3.8-8.3,5.9-12.4c2.3-4.5,4.8-8.8,7.4-13
		c1.2-1.9,2.4-3.8,3.7-5.7c0.8-1.2,1.6-2.5,2.4-3.8c-0.1,0.4-0.2,0.9-0.2,1.3c0,0.1,0,0.1,0,0.2c-0.1,0.2-0.1,0.4-0.1,0.6
		c-0.4,2.1-0.9,4.2-1.5,6.3c-0.5,1.8-0.9,3.6-1.4,5.4c-0.8,3.1-1.5,6.3-2.3,9.4c-0.4,1.5-0.6,2.9-0.9,4.4c-0.3,1.7-0.6,3.5-0.8,5.2
		c-0.5,4.1-0.5,8.1-0.4,12.2c0.1,1.8,0.2,3.5,0.4,5.3c0.2,2,0.6,3.9,0.9,5.9c0.1,0.6,0.2,1.3,0.3,1.9c0.2,0.9,0.6,1.6,1,2.4
		c0.2,0.2,0.3,0.4,0.5,0.7c0.3,0.4,0.7,0.8,1.1,1.1c0.2,0.2,0.4,0.3,0.7,0.5c0.4,0.3,0.8,0.6,1.3,0.7c0.4,0.3,0.9,0.4,1.4,0.4
		c0.3,0,0.6,0.1,0.9,0.1c0.5-0.1,1-0.1,1.5-0.2c0.5-0.2,1-0.4,1.4-0.6c0.7-0.4,1.4-0.9,2-1.4c1.1-1,2-2,2.9-3.2
		c0.6-0.7,1.1-1.5,1.6-2.2c0.5-0.8,0.9-1.7,1.4-2.6c0.7-1.5,1.2-3,1.8-4.5c0.6-1.6,1.1-3.3,1.7-4.9c1.2-3.9,1.9-7.9,2.6-11.9
		c0.3-1.8,0.5-3.6,0.7-5.3c0.2-1.9,0.2-3.8,0.1-5.7c-0.1-1.8-0.3-3.6-0.6-5.4c-0.3-1.9-0.9-3.8-1.7-5.6c-0.2-0.6-0.5-1.2-0.8-1.8
		c-0.4-0.8-1-1.5-1.5-2.2c-0.5-0.7-1.1-1.3-1.7-1.9c-0.5-0.6-1.2-1.1-1.9-1.6c-0.6-0.5-1.2-0.9-1.9-1.3c0.9-0.8,1.7-1.5,2.5-2.3
		c2.1-2,4.1-4,6.1-6.1c1.6-1.6,3.3-3.3,4.9-4.9c1.4-1.4,2.6-2.8,3.9-4.2c1.3-1.4,2.6-2.7,3.9-4.1c1.6-1.8,3.3-3.7,4.9-5.5
		c1.1-1.2,2.2-2.5,3.3-3.7c0.8-0.9,1.5-1.8,2.3-2.7c0.4-0.5,0.8-1,1.2-1.4c0,0.1,0,0.1,0,0.2c-0.1,1.1-0.3,2.1-0.4,3.2
		c0,0.4-0.1,0.8-0.1,1.2c-0.2,2.3-0.4,4.6-0.5,6.9c-0.1,1.5-0.2,3-0.4,4.5c-0.1,1.2-0.1,2.5-0.1,3.8c-0.1,2.3-0.1,4.6-0.2,6.9
		c0,0.9-0.1,1.8-0.1,2.7c0,0.4,0,0.7,0,1.1c0.1,3.7,0.2,7.5,0.4,11.2c0,1,0.1,2,0.2,3.1c0.2,1.9,0.4,3.8,0.5,5.7
		c0.2,1.8,0.3,3.6,0.7,5.3c0.2,0.8,0.4,1.5,0.7,2.3c0.1,0.2,0.2,0.5,0.3,0.7c0.3,0.4,0.6,0.8,0.9,1.2c0.2,0.2,0.4,0.3,0.6,0.5
		c0.4,0.3,0.9,0.6,1.4,0.8c0.3,0.1,0.5,0.2,0.8,0.3c0.5,0.1,1.1,0.2,1.7,0.3c0.2,0,0.5,0,0.7,0c0.6,0,1.1-0.1,1.6-0.4
		c1.1-0.4,1.9-1.1,2.8-1.8c0.7-0.5,1.2-1.3,1.8-2c0.5-0.7,1-1.4,1.4-2.2c0.4-0.8,0.7-1.6,1-2.4c0.3-0.9,0.5-1.8,0.7-2.7
		c0.4-1.8,0.6-3.7,0.8-5.5c0.3-2.7,0.2-5.4,0.1-8.1c-0.1-2.2-0.3-4.5-0.5-6.7c-0.1-0.7-0.2-1.5-0.3-2.2c0.3,0.4,0.7,0.9,1,1.3
		c2,2.5,4.1,4.9,6.5,7c2,1.9,4.2,3.8,6.7,5c0.5,0.3,1,0.4,1.5,0.5c0.5,0.1,1.1,0.2,1.6,0.1c1.4-0.1,2.7-0.6,3.9-1.3
		c0.4-0.3,0.8-0.6,1.2-1c0.4-0.4,0.7-0.8,1-1.2c0.3-0.4,0.6-0.9,0.8-1.3c0.4-0.7,0.7-1.6,0.9-2.3c0.5-1.4,0.8-2.9,1.1-4.3
		c0.3-1.7,0.4-3.5,0.5-5.2c0.1-1.5,0-2.9,0-4.4c0-1.8,0-3.7-0.1-5.5c-0.1-2.4-0.2-4.7-0.3-7.1c0-3-0.1-6-0.1-9c0-0.8,0-1.6,0.1-2.4
		c0-1.5,0.1-3.1,0.1-4.6c0-0.9,0.1-1.8,0.1-2.7c0-0.8,0.1-1.7,0.1-2.5c0-0.1,0-0.2,0-0.3c0-0.4,0-0.7,0-1.1c0-0.5,0-1,0.1-1.5
		c0.1-0.4,0.1-0.8,0.2-1.2c0.1,0,0.1-0.1,0.2-0.1c0.1,0,0.3-0.1,0.4-0.1c0.3,0,0.6,0,0.9,0c0.4,0.1,0.9,0.2,1.3,0.3
		c0.7,0.2,1.3,0.5,1.9,0.7c-0.2-0.1-0.4-0.2-0.6-0.3c0.6,0.3,1.2,0.6,1.8,1c0.8,0.5,1.6,1,2.4,1.6c1.5,1.2,3,2.5,4.3,3.9
		c1.6,1.6,3,3.4,4.4,5.2c2.9,3.8,5.4,8,7.9,12.1c1.5,2.5,2.9,5.1,4.2,7.7c0.3,0.5,0.7,0.9,1.1,1.1c0.7,0.4,1.6,0.6,2.5,0.3
		c0.8-0.2,1.5-0.8,1.9-1.5c0.4-0.7,0.6-1.7,0.3-2.5c-0.6-1.6-1.3-3.2-1.9-4.9c-0.6-1.6-1.2-3.3-1.7-5c-1.2-3.8-2-7.7-2.5-11.6
		c-0.9-7.1-1.2-14.4-0.3-21.5c0.2-1.4,0.5-2.8,0.8-4.2c0.3-1.4,0.8-2.7,1.3-4c0.7-1.5,1.4-2.9,2.3-4.2c0.5-0.5,0.9-1,1.4-1.5
		c-0.2,0.1-0.4,0.3-0.5,0.4c0.2-0.2,0.5-0.4,0.7-0.5c0.1,0,0.2,0,0.2,0c0.2,0,0.5,0,0.7,0c0.4,0.1,0.7,0.2,1.1,0.3
		c0.2,0.1,0.4,0.2,0.6,0.3c0.6,0.3,1.1,0.7,1.6,1.1c-0.2-0.1-0.3-0.3-0.5-0.4c1.4,1.2,2.6,2.5,3.7,3.9c1.1,1.5,2.1,3.2,3,4.8
		c1.3,2.2,2.3,4.5,3.3,6.8c-0.1-0.2-0.2-0.4-0.3-0.6c0.8,1.9,1.4,3.8,2.1,5.7c0.1,0.3,0.2,0.7,0.4,1c0,0,0,0,0,0.1
		c0.3,1.6,0.7,3.1,1,4.6c0.2,0.7,0.7,1.4,1.4,1.8c0.6,0.4,1.6,0.6,2.3,0.3c0.1,0,0.1-0.1,0.2-0.1c0.8-0.3,1.4-0.6,1.8-1.4
		c0.4-0.6,0.6-1.6,0.3-2.3c-0.2-0.6-0.4-1.1-0.6-1.7c-0.2-0.9-0.4-1.8-0.6-2.8c-0.8-6.4-0.6-12.9,0.2-19.3c0.5-3.1,1-6.2,1.8-9.3
		c0.7-2.9,1.7-5.8,2.8-8.7c0.1-0.2,0.2-0.4,0.3-0.6c0.1,0.2,0.2,0.4,0.4,0.5c0.2,0.4,0.4,0.8,0.6,1.2c1.7,4.1,2.6,8.4,3.6,12.6
		c0.7,3.1,1.4,6.2,2.2,9.2c0.5,1.8,1,3.6,1.5,5.4c0.4,1.6,1,3.1,1.6,4.7c0.8,2,1.7,4,2.9,5.8c0.5,0.7,1.1,1.4,1.7,2
		c0.2,0.2,0.5,0.4,0.7,0.6c0.4,0.4,0.9,0.7,1.4,1.1c1.5,1,3.2,1.6,5,2c0.3,0,0.6,0.1,0.9,0.1c0.6,0.1,1.1,0.2,1.7,0.1
		c0.9,0,1.8-0.2,2.6-0.3c0.9-0.1,1.8-0.5,2.6-0.8c1.1-0.4,2.1-1,3.1-1.6c0.7-0.5,1.4-1.1,2.1-1.6c0.7-0.6,1.3-1.3,2-2
		c1.2-1.4,2.3-3,3.2-4.5c1.1-1.7,1.9-3.7,2.6-5.6c0.4-1,0.7-2,1.1-3c0.5-1.4,0.9-2.8,1.4-4.2c1.5-5.1,2.4-10.3,3.4-15.4
		c0.2-1,0.3-2,0.4-3c0.3,0.9,0.7,1.8,1,2.7c0.9,2.4,1.8,4.8,2.8,7.1c0.5,1.3,1.1,2.6,1.6,3.9c0.9,2.2,1.6,4.4,2.8,6.4
		c0.4,0.7,1.1,1.2,1.9,1.4c1.1,0.3,2.2-0.1,3-0.8c0.3-0.2,0.5-0.4,0.7-0.7c0.2-0.2,0.3-0.4,0.5-0.6c0.2-0.5,0.4-1.1,0.6-1.6
		c0.1-0.6,0.2-1.2,0.2-1.8c0.1-0.6,0.1-1.4,0.1-2c0.1-1.5,0.2-3,0.3-4.5c0.2-2.4,0.5-4.9,0.7-7.3c0.6-5.2,1.2-10.3,1.9-15.5
		c0.4-2.4,0.7-4.8,1.1-7.1c0.2-1.2,0.4-2.4,0.6-3.6c0.3-1.4,0.6-2.8,1-4.2c0.2-0.7,0.4-1.4,0.6-2c0.3-0.9,0.6-1.7,1-2.6
		c0.1-0.2,0.2-0.3,0.3-0.5c0.1,0,0.2-0.1,0.3-0.1c0,0,0.1,0,0.1,0c0,0,0.1,0,0.1,0c0.1,0.1,0.3,0.2,0.4,0.3c1.2,1,2.2,2.2,3.2,3.5
		c3.3,4.6,5.8,9.8,8,15c1.3,3.1,2.5,6.3,3.5,9.6c0.7,2.2,1.3,4.4,2,6.6c0.2,0.5,0.3,1.1,0.4,1.6c0.2,1,0.5,2.1,0.7,3.1
		c0,0.5,0.1,1,0.1,1.5c0.1,1,0.2,2,0.4,3c0.1,0.4,0.1,0.7,0.2,1.1c0.1,0.7,0.3,1.3,0.5,1.9c0.4,1.4,1.6,2.3,3.1,2.3
		c1.7,0,3.2-1.4,3.2-3.2c0-0.2,0-0.5,0-0.7c-0.1-0.7-0.2-1.3-0.3-2c-0.1-0.5-0.3-1-0.4-1.5c-0.1-0.3-0.1-0.5-0.2-0.8
		c-0.4-3.4-0.5-6.9-0.6-10.3c-0.1-4.2,0.3-8.3,0.8-12.5c0.2-1.7,0.5-3.4,0.9-5.1c0.3-1.8,0.7-3.6,1.2-5.3c0.4-1.6,0.9-3.2,1.3-4.8
		c0.3-1.1,0.6-2.1,0.9-3.2c0.7-2,1.3-4.1,2.1-6.1c0.3-0.5,0.6-1.1,0.9-1.6c0.3-0.4,0.7-0.8,1-1.1c0,0,0.1,0,0.1,0.1
		c0.1,0.1,0.2,0.2,0.3,0.4c0.1,0.1,0.1,0.2,0.2,0.3c0.2,0.3,0.4,0.7,0.6,1.1c0.5,1.4,0.9,2.9,1.1,4.4c0.4,2.9,0.5,5.9,0.4,8.8
		c-0.1,1.8-0.1,3.5-0.2,5.3c-0.1,3-0.2,5.9-0.3,8.9c0,1.2-0.1,2.5-0.1,3.7c0,1,0,1.9,0,2.9c0,0.2,0.1,0.5,0.1,0.7
		c0,0.7,0.2,1.3,0.5,1.9c0.1,0.3,0.2,0.5,0.3,0.8c0.3,0.5,0.7,0.9,1.1,1.2c0.6,0.6,1.4,0.8,2.1,1.1c0.6,0.2,1.2,0.2,1.8,0
		c0.2,0,0.4-0.1,0.6-0.1c0.5-0.2,0.9-0.4,1.4-0.6c0.2-0.2,0.4-0.3,0.7-0.5c0.4-0.3,0.7-0.7,1-1.1c0.1-0.2,0.2-0.3,0.3-0.5
		c0.2-0.4,0.4-0.8,0.5-1.2c0.1-0.3,0.2-0.7,0.3-1c0.1-0.6,0.2-1.2,0.3-1.8c0.1-1.1,0.2-2.2,0.3-3.3c0.1-1,0.1-2,0.2-3
		c0.1-0.9,0.2-1.8,0.3-2.7c0,0.1,0,0.1,0,0.2c0.2-1.4,0.5-2.8,0.9-4.2c0.4-1.5,1-3,1.6-4.5c0.7-1.6,1.4-3.1,2.2-4.6
		c0.8-1.6,1.8-3.1,2.9-4.5c0.6-0.7,1.2-1.4,1.8-2.2c0.6-0.7,1.3-1.4,1.9-2c-0.1,0.4-0.3,0.8-0.4,1.2c-1.2,3.7-1.9,7.6-2.5,11.4
		c-0.2,1.8-0.4,3.6-0.5,5.4c-0.1,1.8,0,3.6,0.2,5.4c0.1,1.7,0.4,3.4,0.8,5c0.4,1.7,1.2,3.3,1.9,4.9c1.2,2.5,3.4,4.4,6,5.3
		c0.6,0.3,1.2,0.4,1.8,0.6c0.3,0,0.6,0.1,0.9,0.1c0.5,0.1,1.1,0.1,1.6,0.1c0.8,0,1.6-0.3,2.4-0.5c0.8-0.3,1.6-0.7,2.3-1.1
		c0.5-0.3,0.9-0.6,1.4-1c0.7-0.6,1.4-1.2,2.1-1.8c1-1,1.8-2.2,2.5-3.4c0.7-1.3,1.2-2.7,1.8-4c0.7-1.8,1.2-3.6,1.6-5.4
		c0.5-1.7,0.7-3.4,0.9-5.2c0.2-1.9,0.4-3.7,0.6-5.6c0.3-3.1,0.5-6.3,0.6-9.4c0-1.1,0-2.2,0-3.3c0.2,0.5,0.5,1.1,0.7,1.6
		c1.6,4.1,3.1,8.2,4.7,12.3c0.7,1.8,1.2,3.6,1.8,5.5c0.9,2.8,1.7,5.6,2.5,8.4c1.6,6.1,2.8,12.3,3.7,18.5c0.3,2.4,0.6,4.8,0.8,7.2
		c-0.4,0.9-0.7,1.8-1.1,2.7c-3.7,9.2-7.5,18.3-11.2,27.5c-1.8,4.1-3.6,8.3-5.6,12.4c-2.1,4.4-4.5,8.6-6.9,12.8
		c-2.2,3.8-4.4,7.6-6.7,11.3c-0.9,1.5-1.8,3.1-2.7,4.6c-0.4,0.8-0.8,1.5-1.3,2.3c-1.9,3.6-3.8,7.1-5.7,10.7
		c-0.4,0.8-0.8,1.5-1.2,2.3c-1.1,2.2-2.2,4.3-3.3,6.5c-1.2,2.5-2.5,4.9-3.8,7.3c-2,3.8-4,7.6-6.1,11.4c-0.4,0.8-0.8,1.6-1.2,2.5
		c-0.1,0.3-0.2,0.6-0.3,0.9c-0.2,0.6-0.4,1.2-0.4,1.8c-0.3,1.4-0.3,3.1,0.4,4.4c0.4,0.7,0.8,1.3,1.4,1.7c0.2,0.1,0.4,0.2,0.6,0.3
		c0.5,0.3,1.1,0.5,1.7,0.5c0.3,0,0.5,0.1,0.8,0.1c0.5-0.1,1.1-0.1,1.6-0.2c0.5-0.2,1-0.4,1.5-0.6c0.5-0.2,1-0.5,1.4-0.7
		c0.8-0.4,1.5-1,2.2-1.5c0.8-0.6,1.6-1.1,2.3-1.7c1.6-1.2,3.1-2.5,4.6-3.9c3.7-3.3,7.1-6.9,10.3-10.6c3-3.3,5.8-6.8,8.6-10.4
		c1.3-1.7,2.6-3.4,3.8-5.1c1.5-2.1,2.8-4.3,4.2-6.5c2.3-3.8,4.4-7.6,6.3-11.6c2.1-4.4,3.8-8.9,5.4-13.5c1.5-4.3,2.8-8.7,3.9-13.2
		c1.2-4.8,2-9.7,2.7-14.6c0.6-4.6,0.8-9.2,0.7-13.8c0-5-0.3-10.1-0.7-15.1c-0.1-0.7-0.1-1.3-0.2-2c0.5-1.2,0.9-2.3,1.4-3.5
		c1.6-4.2,3.3-8.3,4.8-12.6c1.6-4.5,3.1-9.2,4.4-13.8c1.2-4.3,2.3-8.6,3.3-12.9c1-4.7,1.8-9.5,2.6-14.3c0.2-1.4,0.3-2.7,0.5-4.1
		c0.3-2.4,0.6-4.8,0.9-7.1c0.3-2.2,0.4-4.3,0.6-6.5c0.3-5,0.2-10-0.3-15c-0.5-4.3-1.4-8.6-2.6-12.8c-1.2-4.1-2.7-8.3-5-11.9
		c-1-1.5-2.1-2.9-3.2-4.3c-1.3-1.6-3-2.8-4.8-3.8c-1.9-1.1-4-1.8-6-2.4c-2.1-0.6-4.4-0.8-6.6-0.9c-0.1,0-0.3,0-0.4,0
		C736.3,80.7,734,81.1,731.7,81.5L731.7,81.5z M678.9,153.5c0,0.1,0.1,0.2,0.1,0.3C679,153.7,679,153.6,678.9,153.5L678.9,153.5z
		 M644.3,160.1c0,0-0.1,0-0.1,0C644.2,160.1,644.2,160.1,644.3,160.1C644.3,160.1,644.3,160.1,644.3,160.1L644.3,160.1z
		 M644.6,160.1c0.1,0,0.3,0,0.4,0.1C644.9,160.1,644.8,160.1,644.6,160.1L644.6,160.1z M644.2,160.1
		C644.2,160.1,644.1,160.1,644.2,160.1C644.1,160.1,644.1,160.1,644.2,160.1C644.1,160.1,644.1,160.1,644.2,160.1
		C644.2,160.1,644.2,160.1,644.2,160.1L644.2,160.1z M644.1,160.1C644.1,160.1,644.1,160.1,644.1,160.1c-0.1,0-0.2,0-0.3,0.1
		C643.9,160.2,644,160.1,644.1,160.1L644.1,160.1z M643.8,160.7c-0.1,0.2-0.1,0.3-0.2,0.5C643.7,161,643.7,160.9,643.8,160.7
		L643.8,160.7z M656.2,179c0.1,0.1,0.1,0.3,0.2,0.4C656.3,179.2,656.3,179.1,656.2,179L656.2,179z M713.5,188.8
		c-0.1,0-0.1,0-0.2,0.1C713.4,188.8,713.5,188.8,713.5,188.8L713.5,188.8z M572.8,190.1c0.1,0.1,0.1,0.2,0.2,0.3
		C572.9,190.3,572.9,190.2,572.8,190.1C572.8,190.1,572.8,190.1,572.8,190.1L572.8,190.1z M573.8,191.9c0.1,0.1,0.1,0.3,0.2,0.4
		C573.9,192.2,573.8,192.1,573.8,191.9L573.8,191.9z M742.4,200.9c0,0.1,0,0.2,0.1,0.4C742.4,201.1,742.4,201,742.4,200.9
		L742.4,200.9z M546.6,206.3c-0.1,0.1-0.3,0.1-0.4,0.2C546.3,206.4,546.4,206.4,546.6,206.3L546.6,206.3z M547,206.5
		c0.2,0,0.4,0,0.6,0.1C547.4,206.6,547.2,206.6,547,206.5L547,206.5z M694.9,319.2c0.2-0.3,0.3-0.7,0.5-1c1-2,2.1-4,3.1-6.1
		c1.3-2.5,2.5-4.9,3.7-7.4c1-2.1,2-4.1,3-6.2c0.6-1.1,1.1-2.3,1.7-3.4c1.8-3.4,3.5-6.8,5.3-10.2c0.5-0.9,0.9-1.9,1.4-2.8
		c0.8-1.3,1.5-2.7,2.3-4c2-3.5,4-7,6-10.5c2.2-3.8,4.4-7.7,6.4-11.6c2.3-4.5,4.3-9.1,6.3-13.8c1.5-3.5,2.9-7.1,4.4-10.6
		c1.6-3.9,3.1-7.7,4.7-11.6c0,2.7,0,5.4-0.1,8.1c-0.1,2.9-0.4,5.9-0.7,8.8c-1.7,11.8-5,23.3-9.5,34.3c-3.9,9-8.8,17.5-14.7,25.3
		c-3.6,4.6-7.4,9.1-11.3,13.3c-3.9,4.2-7.9,8.2-12.4,11.7c-0.7,0.5-1.4,1-2.1,1.5C693.5,321.8,694.2,320.6,694.9,319.2L694.9,319.2z
		 M605.4,223.9c-0.1,0.1-0.1,0.1-0.2,0.2C605.3,224,605.3,224,605.4,223.9L605.4,223.9z M591.7,227.3c0.2,0.1,0.3,0.2,0.5,0.4
		C591.9,227.6,591.8,227.4,591.7,227.3L591.7,227.3z M595.1,229.1c0.2,0,0.4,0.1,0.7,0.1C595.5,229.1,595.3,229.1,595.1,229.1
		L595.1,229.1z M512.7,233.6c-0.1,0-0.1,0-0.2,0c0.2,0,0.3,0,0.5,0.1c-0.2,0-0.3,0-0.5-0.1c0,0,0,0,0,0c0,0,0,0,0,0
		c-0.1,0-0.1,0-0.2,0c0.1,0,0.1,0,0.2,0C512.5,233.6,512.6,233.6,512.7,233.6L512.7,233.6z M511.3,234.4c0,0.2-0.1,0.5-0.1,0.7
		C511.3,234.9,511.3,234.6,511.3,234.4L511.3,234.4z M350.1,246.7c0.4,0,0.9,0,1.3,0.1c0.3,0.1,0.6,0.1,0.9,0.2
		c0.6,0.1,1.2,0.3,1.7,0.6c-0.2-0.1-0.4-0.2-0.6-0.3c0.7,0.4,1.3,0.8,2,1.2c0.8,0.7,1.6,1.5,2.3,2.3c0.5,0.6,0.9,1.3,1.3,2
		c0.6,0.9,1,1.9,1.5,2.9c0.6,1.6,1.2,3.3,1.6,5c0.4,1.6,0.7,3.3,1,5c0.2,1.4,0.3,2.8,0.4,4.2c0.1,1.9,0.1,3.9,0,5.8
		c-0.1,3.7-0.5,7.5-1,11.2c-1.1,7.5-2.7,14.9-4.6,22.2c-1.4,5.2-3,10.3-4.8,15.4c-0.9-2.2-1.7-4.3-2.6-6.5c-1.3-3.6-2.5-7.3-3.6-11
		c-2.1-7.4-3.7-14.9-4.8-22.5c-0.5-4-0.8-7.9-1-12c-0.2-3.9-0.2-7.8,0.2-11.7c0.4-2.9,1.1-5.7,2.1-8.4c0.4-0.9,0.9-1.7,1.4-2.5
		c0.1-0.2,0.3-0.3,0.4-0.5c0.3-0.4,0.7-0.7,1.1-1c0.2-0.2,0.5-0.3,0.7-0.5c0.4-0.3,0.9-0.5,1.4-0.8c0.4-0.1,0.7-0.2,1.1-0.3
		C349.7,246.7,349.9,246.7,350.1,246.7L350.1,246.7z M351.5,246.8c0.2,0,0.4,0,0.6,0.1C351.9,246.8,351.7,246.8,351.5,246.8
		L351.5,246.8z M348.7,246.9c0,0-0.1,0-0.1,0.1C348.6,247,348.6,246.9,348.7,246.9L348.7,246.9z M346.6,248c0,0-0.1,0.1-0.1,0.1
		C346.5,248.1,346.6,248.1,346.6,248L346.6,248z M472.3,294.7c-0.2-1.6-0.2-3.2-0.3-4.9c-0.1-2.6-0.2-5.2-0.4-7.7c0-0.4,0-0.7,0-1.1
		c0-1.4,0.1-2.7,0.1-4.1c0.1-2.8,0.1-5.7,0.2-8.5c0-1.5,0.2-3,0.3-4.5c0.1-1.9,0.3-3.8,0.4-5.8c0.2,0.7,0.3,1.4,0.6,2.1
		c0.2,0.5,0.4,1.1,0.7,1.6c0.4,0.9,0.8,1.8,1.3,2.8c0.4,0.8,0.8,1.5,1.2,2.3c0.1,0.5,0.2,1.1,0.3,1.6c0.2,1.1,0.3,2.1,0.5,3.2
		c0.2,1.2,0.3,2.4,0.5,3.6c0.2,1.7,0.4,3.3,0.6,5c0.2,1.8,0.3,3.6,0.4,5.4c0.1,1.9,0.2,3.9,0.2,5.8c0,1.7-0.1,3.4-0.3,5.1
		c-0.2,1.1-0.3,2.2-0.6,3.3c-0.2,1.1-0.6,2.2-1,3.2c-0.2,0.4-0.4,0.7-0.6,1.1c-0.2,0.3-0.4,0.6-0.6,0.9c-0.2,0.2-0.3,0.4-0.5,0.6
		c-0.2,0.3-0.5,0.5-0.8,0.7c-0.1,0.1-0.2,0.1-0.4,0.2c0,0,0,0-0.1,0c0,0,0,0,0-0.1c-0.1-0.4-0.2-0.7-0.4-1.1
		c-0.3-0.8-0.4-1.7-0.5-2.5c-0.1-0.4-0.1-0.9-0.2-1.3c0,0,0,0.1,0,0.1C472.8,299.4,472.5,297,472.3,294.7L472.3,294.7z M733.4,271.4
		c-0.1,0.2-0.2,0.4-0.2,0.6C733.2,271.8,733.3,271.6,733.4,271.4L733.4,271.4z M502.6,285.5c0,0.1-0.1,0.1-0.1,0.2
		C502.6,285.6,502.6,285.5,502.6,285.5L502.6,285.5z M502.3,286c-0.1,0-0.1,0.1-0.2,0.1c0,0,0,0,0,0
		C502.2,286.1,502.3,286.1,502.3,286L502.3,286z M502.1,286.1C502.1,286.1,502.1,286.1,502.1,286.1c-0.1,0-0.1,0.1-0.2,0.1
		c-0.1,0.1-0.3,0.2-0.4,0.3c0.1-0.1,0.3-0.2,0.4-0.3c0,0,0,0-0.1,0c0,0,0,0,0.1,0c0,0,0,0,0.1-0.1c0,0,0,0-0.1,0
		C502,286.2,502.1,286.1,502.1,286.1L502.1,286.1z M500.3,286.2c0.2,0.1,0.4,0.2,0.5,0.2C500.7,286.3,500.5,286.3,500.3,286.2
		L500.3,286.2z M501.3,286.5c0.2,0,0.4,0,0.5,0.1C501.6,286.6,501.4,286.5,501.3,286.5L501.3,286.5z M426.6,307.7
		c0.6-2.6,1.2-5.3,1.8-7.9c0.7-3,1.5-6.1,2.2-9.1c0.7,0.4,1.3,0.8,2,1.3c0.4,0.3,0.7,0.6,1,0.9c0.6,0.6,1.2,1.3,1.7,2
		c-0.2-0.2-0.3-0.4-0.5-0.6c0.4,0.5,0.7,1,1,1.5c0.2,0.4,0.4,0.8,0.6,1.2c0.3,0.8,0.6,1.7,0.8,2.5c0.3,1.1,0.5,2.3,0.7,3.4
		c0.2,1.9,0.2,3.7,0.2,5.6c0,1.8-0.2,3.5-0.4,5.3c-0.5,3.5-1.2,7-2,10.4c-0.4,1.8-1,3.5-1.6,5.3c-0.6,1.8-1.2,3.5-1.9,5.2
		c-0.3,0.8-0.7,1.5-1.1,2.3c-0.4,0.8-0.9,1.5-1.4,2.2c-0.8,1-1.6,1.9-2.6,2.8c0.2-0.2,0.4-0.3,0.7-0.5c-0.3,0.3-0.7,0.5-1,0.7
		c0,0-0.1-0.1-0.1-0.1c-0.1-0.1-0.2-0.1-0.2-0.2c-0.1-0.1-0.1-0.2-0.2-0.3c-0.1-0.4-0.2-0.8-0.3-1.2c-0.1-0.6-0.2-1.2-0.3-1.9
		c-0.2-1.3-0.5-2.6-0.7-3.9c-0.7-5.8-0.9-11.8-0.2-17.6C425.3,313.8,425.9,310.7,426.6,307.7L426.6,307.7z M252.8,300
		c-0.1,0.1-0.1,0.3-0.2,0.4C252.7,300.3,252.7,300.2,252.8,300L252.8,300z M224.2,303.6c0,0.1,0,0.2,0,0.3
		C224.2,303.9,224.2,303.8,224.2,303.6L224.2,303.6z M475.6,305.3c-0.1,0.1-0.1,0.2-0.2,0.3C475.5,305.5,475.6,305.4,475.6,305.3
		L475.6,305.3z M473.4,306.3c0.2,0.1,0.3,0.1,0.5,0.2C473.8,306.4,473.6,306.4,473.4,306.3L473.4,306.3z M474.4,306.5
		C474.4,306.5,474.4,306.6,474.4,306.5C474.3,306.6,474.3,306.6,474.4,306.5C474.4,306.6,474.4,306.5,474.4,306.5L474.4,306.5z
		 M474.3,306.6C474.3,306.6,474.3,306.6,474.3,306.6C474.3,306.6,474.3,306.6,474.3,306.6C474.3,306.6,474.3,306.6,474.3,306.6
		C474.3,306.6,474.3,306.6,474.3,306.6L474.3,306.6z M474.2,306.7C474.2,306.7,474.2,306.7,474.2,306.7
		C474.2,306.7,474.2,306.7,474.2,306.7C474.2,306.7,474.2,306.7,474.2,306.7C474.2,306.7,474.2,306.7,474.2,306.7L474.2,306.7z
		 M474.6,306.7c0.1,0,0.3,0,0.4,0.1C474.9,306.7,474.7,306.7,474.6,306.7L474.6,306.7z M474.2,306.7
		C474.2,306.7,474.2,306.7,474.2,306.7c-0.1,0-0.1,0.1-0.2,0.1C474,306.8,474.1,306.7,474.2,306.7L474.2,306.7z M406.8,319.3
		c-0.1,0.1-0.1,0.3-0.2,0.4C406.7,319.6,406.8,319.4,406.8,319.3L406.8,319.3z M233.4,321.9c0.1,0.1,0.3,0.1,0.4,0.2c0,0,0,0,0,0
		C233.7,322.1,233.5,322,233.4,321.9L233.4,321.9z M233.8,322.1c0.1,0,0.2,0.1,0.3,0.1C234,322.2,233.9,322.2,233.8,322.1
		C233.8,322.1,233.8,322.1,233.8,322.1L233.8,322.1z M692,326.5c0,0.1,0,0.1,0,0.2C692,326.6,692,326.6,692,326.5L692,326.5z
		 M427.4,342c-0.1,0.1-0.3,0.1-0.4,0.2c0,0,0,0,0,0C427.1,342.1,427.2,342.1,427.4,342L427.4,342z M427.1,342.3
		C427.1,342.3,427.1,342.3,427.1,342.3c0.1,0,0.1,0.1,0.2,0.1C427.2,342.4,427.1,342.4,427.1,342.3L427.1,342.3z M426.3,342.4
		c-0.1,0-0.2,0-0.3,0C426.1,342.4,426.2,342.4,426.3,342.4L426.3,342.4z M336.2,355.7c0,0-0.1,0.1-0.1,0.1
		C336.1,355.8,336.1,355.8,336.2,355.7L336.2,355.7z M382.7,375.9c0,0.1-0.1,0.2-0.1,0.3C382.7,376.1,382.7,376,382.7,375.9
		L382.7,375.9z M381.4,378.4c-0.1,0.1-0.2,0.3-0.3,0.4C381.2,378.6,381.3,378.5,381.4,378.4L381.4,378.4z M312.7,378.8
		c-0.1,0.1-0.1,0.1-0.2,0.2C312.6,378.9,312.6,378.8,312.7,378.8L312.7,378.8z M379.7,378.8c0.1,0.1,0.2,0.2,0.3,0.3
		C379.9,379,379.8,378.9,379.7,378.8L379.7,378.8z M221.6,420.5c0.3-0.1,0.7-0.2,1-0.3c0.9-0.3,1.9-0.6,2.8-0.9
		c1.9-0.6,3.9-1.2,5.8-1.8c1.1-0.3,2.2-0.5,3.2-0.8c2.2-0.5,4.4-1.1,6.6-1.6c3.1-0.8,6.2-1.5,9.3-2.3c0.9-0.2,1.9-0.4,2.8-0.7
		c2-0.6,3.9-1.1,5.9-1.7c1.8-0.5,3.5-1,5.3-1.5c1-0.3,2.1-0.7,3.1-1.1c2.1-0.8,4.2-1.6,6.4-2.4c1.2-0.4,2.4-0.8,3.5-1.4
		c3.6-1.6,7.2-3.2,10.8-4.8c2.5-1.1,5-2.2,7.5-3.4c2.4-1.1,4.7-2.4,7-3.7c-1.5,5-3.2,9.9-5.2,14.7c-1.1,2.6-2.3,5.2-3.7,7.7
		c-1.3,2.3-2.8,4.5-4.4,6.6c-1,1.2-2,2.5-3.1,3.6c-1.1,1.2-2.3,2.2-3.5,3.2c-1,0.7-1.9,1.3-2.9,1.9c-1.1,0.6-2.2,1.2-3.3,1.7
		c-3.3,1.3-6.8,2.3-10.3,2.9c-3.2,0.4-6.5,0.4-9.8,0.3c-1.5,0-3.1-0.1-4.6-0.2c-1.8-0.1-3.7-0.3-5.5-0.6c-4.8-0.7-9.6-1.5-14.4-2.5
		c-2.2-0.5-4.3-1-6.5-1.6c-1.8-0.5-3.7-1.1-5.5-1.7c-3.1-1.1-6.3-2.3-9.4-3.5c0,0,0,0,0.1,0C214.3,423.2,218,421.9,221.6,420.5
		L221.6,420.5z M297.4,406.9c0,0.1-0.1,0.2-0.1,0.3C297.3,407.2,297.3,407,297.4,406.9L297.4,406.9z M211.2,424.4
		c-0.2,0.1-0.4,0.2-0.5,0.2C210.9,424.6,211.1,424.5,211.2,424.4L211.2,424.4z M179.4,438.5c0,0,0,0.1,0,0.1
		C179.3,438.6,179.4,438.5,179.4,438.5L179.4,438.5z M179.3,438.6C179.3,438.6,179.3,438.6,179.3,438.6
		C179.3,438.6,179.3,438.6,179.3,438.6L179.3,438.6z M174.6,447.6C174.6,447.6,174.6,447.6,174.6,447.6
		C174.6,447.6,174.6,447.6,174.6,447.6L174.6,447.6z M165.8,452.5C165.8,452.5,165.8,452.5,165.8,452.5
		C165.8,452.5,165.8,452.5,165.8,452.5L165.8,452.5z M380.7,379.1C380.6,379.1,380.6,379.1,380.7,379.1
		C380.6,379.1,380.6,379.1,380.7,379.1C380.6,379.1,380.7,379.1,380.7,379.1C380.7,379.1,380.7,379.1,380.7,379.1L380.7,379.1z
		 M502,286.2C502,286.2,501.9,286.2,502,286.2C502,286.2,502,286.2,502,286.2C502,286.2,502,286.2,502,286.2
		C502,286.2,502,286.2,502,286.2L502,286.2z M512.4,233.7C512.4,233.7,512.4,233.7,512.4,233.7C512.4,233.7,512.4,233.7,512.4,233.7
		C512.4,233.7,512.4,233.7,512.4,233.7C512.4,233.7,512.4,233.7,512.4,233.7L512.4,233.7z"/>
</g>
</svg>
