<?xml version="1.0" encoding="utf-8"?>
<!-- Generator: Adobe Illustrator 19.2.1, SVG Export Plug-In . SVG Version: 6.00 Build 0)  -->
<svg id="everydaySvg" version="1.1" xmlns="http://www.w3.org/2000/svg" xmlns:xlink="http://www.w3.org/1999/xlink" x="0px" y="0px"
	 viewBox="0 0 960 560" style="enable-background:new 0 0 960 560;" xml:space="preserve">
<style type="text/css">
	.st0{fill:none;stroke:#000000;stroke-width:4;stroke-miterlimit:10;}
</style>

<g id="everydayCursive">
	<path class="st0" d="M268.4,131.5c-2.3-5.9-10.4-6.9-16.5-4.9c-17.2,5.7-25.5,24.7-30.7,42.1c-2.3,7.6-4,16.8,1.2,22.8
		c2.8,3.2,7,4.7,11,5.8c14.2,3.7,29.4,3.4,43.4-0.9c-4.4-2.4-9.9,0-14.3,2.5c-15.8,9.3-30.7,23-34,41.1s10.7,39.4,29,37.6
		c12.8-1.2,22.2-12.4,28.4-23.6c6.2-11.2,11.1-23.7,20.9-31.9c1.6-1.3,3.4-2.6,5.5-2.6c2.2,0,4.1,1.2,5.7,2.8
		c12.5,12.5,1.6,37.5,14.5,49.7c6.7,6.3,17.6,6.2,25.8,2.1c8.2-4.1,14.3-11.4,20.1-18.6c4.8-6.1,9.7-14.9,4.9-21
		c-3.8-4.8-11.9-4.3-16.4-0.1c-4.5,4.2-6,10.7-6,16.9c-0.1,7.2,1.7,14.8,6.4,20.3c4.7,5.5,12.7,8.5,19.5,6c3.8-1.4,6.9-4.4,9.8-7.2
		c13-12.7,26-25.3,39-38c-7.3,9.2-11.8,20.6-12.6,32.2c-0.2,2.7-0.1,5.6,1.4,7.8c3.7,5.3,12.1,2.6,17.4-1.1
		c13.2-9.2,23.8-21.9,30.7-36.5c-3.5,5.7-7.1,11.6-7.9,18.2c-0.8,6.6,2,14.2,8.1,16.8c3.1,1.3,6.6,1.2,10,0.7
		c17.6-3.1,31.3-20.8,29.9-38.6c-15.2,36.2-13.1,79.2-35.2,111.7c-7.4-5.3-3.7-16.9,1.2-24.5c16.4-25.4,38.5-46.5,60.5-67.3
		c9.6-9.1,23.8-18.8,34.9-11.5c-10.5,5.7-19.4,14.5-25.1,24.9c-2.2,4.1-3.6,10.1,0.3,12.6c4.1,2.7,9.2-1.4,12.2-5.3
		c13.3-17.7,21.9-38.9,24.7-60.8c1-7.9,0.1-17.9-7.3-20.8c-10.4,21.9-11.8,48-3.7,70.9c2.6,7.2,8.7,15.4,16,13.3
		c3-0.9,5.2-3.3,7.2-5.7c9.5-10.8,19-21.7,28.4-32.5c-9.9,7.2-17,18.2-19.6,30.2c-0.8,3.5-0.5,8.2,2.9,9.5c1.8,0.7,3.9,0,5.6-0.8
		c11.1-5.3,18-18.2,16.2-30.4c-4.2,8.4-0.1,19.6,8.2,24.1c8.3,4.5,19.3,2.2,25.7-4.7c6.4-6.8,8.1-17.4,5.1-26.3
		c-2.1,7.7-3.2,16-0.7,23.5s9.5,14.1,17.4,13.9c7.9-0.2,14.5-6.9,17-14.5c2.5-7.5,1.7-15.7,0.7-23.6c-5.1,2.9-5.3,10-5.2,15.8
		c0.4,29.2-7.7,58.4-22.9,83.3c-4.2,6.9-9.2,13.7-16.1,17.8c-7,4.1-16.3,5.1-22.9,0.4c33.7-29.5,68-58.2,102.9-86.3"/>
	<path class="st0" d="M0,280 197,280 206,280 213,280 221.5,280 229.5,280 235.5,280 246,280 254,280 263,280 271,280 
		279,280 285.5,280 292,280 300.5,280 308,280 315.5,280 323,280 329,280 336.5,280 343,280 351.5,280 361,280 368,280 377,280 
		413.5,280 419.5,280 427,280 433.5,280 467.5,280 474.5,280 480,280 483.5,280 490.5,280 496.5,280 503,280 544,280 551.5,280 
		558.5,280 564.5,280 569.5,280 575.5,280 590.5,280 597,280 605,280 613,280 621,280 629,280 672,280 679.5,280 686,280 693.5,280 
		701.5,280 707.5,280 715.5,280 722.5,280 730.5,280 741,280 749,280 960,280z 	"/>
</g>
<g id="Layer_2">
	<path class="st0" d="M222.1,277.4c-2.3,0.5-3.6-2.6-3.9-5c-3.2-25.2,1.5-50.8,1.1-76.2c-0.1-5.6-0.4-11.2-1.5-16.6
		c-0.1-0.6-0.3-1.2-0.8-1.4c-0.5-0.3-1.3,0.2-1,0.7c-1.1,0.2-3.2,5.4-4.2,5.7c19.9-3.5,40.1-5,60.2-4.5"/>
	<path class="st0" d="M224,227c-1,0.8-2,1.5-3,2.3c15.3-1.6,30.6-3.2,46-4.8"/>
	<path class="st0" d="M221,275.9c20.1-0.5,40.1-2.4,59.8-5.8"/>
	<path class="st0" d="M290.3,239.9c3.3,12,6.9,23.9,10.7,35.8c5.8-1,9.4-6.7,12.1-11.9c5.6-10.7,10.8-21.6,15.4-32.7
		c0.7-1.7,1.2-4-0.4-4.9c-1.2,0.3-1.3,2.4,0,2.7"/>
	<path class="st0" d="M352.1,248.6c8.5-0.6,16.4-5.9,20.2-13.5c0.3-0.6,0.6-1.3,0.5-1.9c-0.3-2-3.1-2.2-5.1-1.8
		c-11.9,2.5-24.8,8.7-28,20.4c-2.3,8.7,2.1,18.7,10.2,22.7c8,4,18.7,1.7,24.3-5.3"/>
	<path class="st0" d="M401.9,245.5c4.7,9.4,5.4,20.8,1.7,30.7c-1.2-6.5-1.5-13.3,0.5-19.5c1.9-6.3,6.4-12,12.5-14.5
		c6.1-2.4,13.9-1,17.9,4.3"/>
	<path class="st0" d="M456.9,249.1c2.5,3.8,0.2,8.7-1.8,12.7c-2,4-3.6,9.5-0.3,12.6c1.2,1.1,2.8,1.6,4.4,2
		c10.1,2.2,21.3-2.6,26.8-11.3c1.3-2.1,2.3-4.7,1.7-7.1c-0.6-2.4-3.5-4.3-5.7-3.1c-1.5,0.8-2.1,2.7-2.5,4.3
		c-5.1,22.9,5.6,47.8-2.6,69.7c-7.4,19.8-29.5,31.8-50.6,31c-8.4-0.3-18.6-4.5-18.9-12.9"/>
	<path class="st0" d="M539,248.7c-9.5,1.1-18.8,4.9-26.3,10.9c-4.1,3.2-7.9,8.6-5.6,13.2c2.1,4.1,7.8,4.7,12.1,3.4
		c10.6-3.1,17.3-13.8,20.8-24.3c2.3-7,3.6-14.3,3.8-21.6c0.3-9.2-0.8-18.9,3.3-27.1c-3.9,12.2-7.9,24.7-8,37.6
		c-0.1,12.9,4.2,26.4,14.3,34.4c2.2-1.6,3.6-4.4,3.4-7.2"/>
	<path class="st0" d="M606.9,251.3c1.6-0.8,2-3.2,1.2-4.8c-0.9-1.6-2.6-2.6-4.4-3.1c-8-2.1-15.9,4.3-19.5,11.7
		c-1.9,3.9-3,8.3-2.2,12.6c0.8,4.2,3.8,8.2,8,9.3c5.9,1.5,11.9-3,14.2-8.6c2.3-5.6,1.8-11.9,1.3-17.9c1.2,8.1,4.9,15.9,10.5,21.9
		c2.5,2.7,5.5,5.1,9.1,5.4c3.6,0.3,7.7-2.2,7.8-5.8"/>
	<path class="st0" d="M649.8,249.2c-2.4,8.2,0.4,17.9,7.2,23.1c6.8,5.2,17.3,5.2,23.8-0.3c6.5-5.6,8-16.3,2.8-23.2
		c-4.4,9.5-1.9,20.6-2.5,31.1c-0.9,16.8-9.8,32.3-21.5,44.4s-26,21.2-40.2,30.2c-6.2,3.9-12.8,8-20.2,8c-11.2,0-19.9-9.2-27.1-17.7"
		/>
	<path class="st0" d="M0,280 196,280 198.8,280 203.5,280 207,280 211.8,280 218.8,280 223.8,280 231,280 235.7,280 
		242,280 248,280 253.3,280 258,280 263.5,280 267.5,280 272,280 279,280 286,280 291,280 297.5,280 302.3,280 309.7,280 319,280 
		329.1,280 335.5,280 342.5,280 348.8,280 356.6,280 363.8,280 374.1,280 386,280 395,280 404,280 414,280 425,280 437.5,280 
		451,280 456.8,280 464,280 473.5,280 480.7,280 485,280 491,280 496.5,280 500,280 507,280 513.5,280 522.5,280 529,280 538.5,280 
		546.5,280 556.9,280 563.2,280 572.2,280 579.5,280 588,280 595,280 605,280 613,280 622.5,280 633,280 644,280 651.5,280 661,280 
		675,280 690,280 699.5,280 710,280 960,280z 	"/>
</g>
</svg>

