<?xml version="1.0" encoding="utf-8"?>
<!-- Generator: Adobe Illustrator 19.2.1, SVG Export Plug-In . SVG Version: 6.00 Build 0)  -->
<svg version="1.1" id="Layer_1" xmlns="http://www.w3.org/2000/svg" xmlns:xlink="http://www.w3.org/1999/xlink" x="0px" y="0px"
	 viewBox="0 0 960 560" style="enable-background:new 0 0 960 560;" xml:space="preserve">
<style type="text/css">
	.st0{fill:#070707;}
</style>
<g>
	<path class="st0" d="M308.8,262.5c-0.2,0.3-0.4,0.7-0.6,1c0,0,0,0,0,0c-2.3,3.1-4.6,6.3-7.6,8.8c-2.3,1.7-4.9,3-7.5,4.1
		c-6.7,2.8-13.7,4.7-20.8,5.9c-2.3,0.3-4.5,0.5-6.8,0.7c-2.4,0.2-4.8,0.2-7.2,0c-2.2-0.3-4.4-0.6-6.5-1.3c-1.2-0.5-2.3-1.1-3.4-1.8
		c-0.5-0.4-0.9-0.8-1.4-1.2c-0.2-0.2-0.3-0.5-0.4-0.7c-0.2-0.6-0.3-1.1-0.5-1.7c0-0.5-0.1-0.9,0-1.4c0.3-2.1,0.7-4.1,1.1-6.2
		c0.3-1.6,0.6-3.2,0.9-4.7c0.8-3.9,1.7-7.8,2.4-11.7c1.3-6.7,2.4-13.5,3.3-20.3c0.8-6.1,1.5-12.2,2.1-18.3c0,0,0,0,0,0
		c-3.3,9-6.2,18.1-8.7,27.4c-0.6,2.1-1.2,4.3-1.6,6.4c-1,4.4-1.9,8.8-2.7,13.2c-0.6,3.1-1.2,6.2-1.8,9.3c-0.2,0.9-0.4,1.8-0.5,2.7
		c-0.2,1-0.3,2-0.4,3.1c-0.1,1.3,0.2,2.6,0.5,3.9c0.3,1.1,0.9,2.1,1.5,3c0.8,0.9,1.5,1.7,2.5,2.4c0.9,0.7,1.9,1.3,3,1.9
		c1.2,0.7,2.6,1.1,3.9,1.5c2.2,0.7,4.6,1,6.9,1.2c2.4,0.2,4.7,0.2,7.1,0c4.7-0.3,9.4-0.9,14-2.2c4.7-1.3,9.3-3.3,13.6-5.7
		c2-1.1,3.9-2.4,5.7-3.8c1.9-1.4,3.6-3.1,5-5c1-1.4,1.8-2.8,2.5-4.3c0.4-0.8,0.7-1.5,1-2.3C307.9,265,308.4,263.8,308.8,262.5
		C308.9,262.5,308.9,262.5,308.8,262.5C308.9,262.5,308.9,262.5,308.8,262.5L308.8,262.5z"/>
	<path class="st0" d="M295.8,207.3c-2.4,0.3-4.8,0.7-7.2,1.1c-2.4,0.4-4.8,0.9-7.2,1.4c-1.8,0.4-3.6,0.8-5.4,1.3
		c-2.8,0.7-5.6,1.4-8.3,2.2c-0.3,0.1-0.5,0.1-0.8,0.3c-4.1,1.3-8.1,2.8-12,4.4c-2,0.8-4,1.6-5.9,2.5c-3,1.3-6,2.7-8.9,4.1
		c0,0,0,0,0,0c5.2-1.1,10.5-2.3,15.7-3.7c4.2-1.1,8.3-2.3,12.4-3.6c0.4-0.1,0.9-0.3,1.2-0.4c1.3-0.4,2.7-0.9,4-1.4
		c2.6-0.9,5.1-1.9,7.7-2.8c4.1-1.6,8.2-3.1,12.3-4.6C294.2,207.8,295,207.5,295.8,207.3C295.8,207.3,295.8,207.3,295.8,207.3
		C295.8,207.3,295.8,207.3,295.8,207.3L295.8,207.3z"/>
	<path class="st0" d="M299.5,232.1c-1.1,0.6-2.3,1.3-3.5,1.8c-1.8,0.9-3.6,1.8-5.4,2.6c-1.5,0.7-3.1,1.3-4.7,1.8
		c-1.8,0.6-3.7,1.1-5.5,1.5c-3.9,0.9-7.8,1.7-11.6,2.5c-2,0.4-4,1-6,1.4c-1.3,0.3-2.7,0.6-4,1c-3.8,1-7.6,2-11.3,3.2
		c-3.7,1.1-7.4,2.3-11.1,3.5c0,0,0,0,0,0c4-0.1,8-0.4,12-0.7c4-0.4,8-0.9,12-1.5c4.2-0.6,8.3-1.4,12.3-2.5c4-1.1,7.8-2.5,11.6-4.1
		c3.6-1.6,6.8-3.8,9.9-6.2C296,235.1,297.8,233.7,299.5,232.1C299.6,232.1,299.6,232.1,299.5,232.1
		C299.6,232.1,299.5,232.1,299.5,232.1L299.5,232.1z M290.6,236.6c-0.1,0-0.1,0-0.2,0.1C290.5,236.6,290.6,236.6,290.6,236.6
		L290.6,236.6z"/>
	<path class="st0" d="M352,237.5c-1.8-0.6-3.7-0.8-5.5-0.7c-1.9,0-3.8,0.4-5.7,0.9c-1.9,0.5-3.7,1.3-5.5,2.2
		c-3.6,1.8-6.9,4.4-9.7,7.2c-1.4,1.4-2.7,3-4,4.6c-1.3,1.7-2.5,3.4-3.6,5.2c-0.5,0.8-0.9,1.6-1.4,2.5c0-1.3,0.1-2.6,0.1-4
		c0.1-4.3,0.1-8.6,0.1-13c0,0,0,0,0,0c-1.2,4.9-2.3,9.9-3.3,14.9c-0.3,1.6-0.6,3.3-1,4.9c-0.5,1.7-1.2,3.4-1.3,5.2
		c-0.1,0.9,0.1,1.9,0.5,2.7c0.5,1,1.5,1.4,2.5,1.6c1.1,0.2,2.2-0.2,2.7-1.2c0.6-1.2,1.2-2.5,1.9-3.7c0.7-1.3,1.4-2.6,2.1-3.8
		c1.3-2.4,2.8-4.7,4.4-7c2.2-3.1,4.7-5.9,7.6-8.3c2.1-1.6,4.3-3,6.6-4.1c1.7-0.7,3.4-1.2,5.2-1.6c1.1-0.1,2.3-0.2,3.4-0.1
		c0.8,0.1,1.6,0.3,2.3,0.5c0.1,0,0.2,0.1,0.3,0.1c0.1,0.1,0.3,0.3,0.4,0.4c0.3,0.5,0.6,0.9,0.8,1.4c0.5,1.2,0.8,2.5,1.1,3.8
		c0.3,2.7,0.2,5.4,0,8c-0.1,1.2-0.3,2.4-0.5,3.6c-1,2.7-2,5.5-3,8.2c-0.3,0.7-0.6,1.5-0.7,2.3c-0.1,0.4-0.1,0.8-0.1,1.3
		c0,0.6,0.3,1.2,0.6,1.7c0.3,0.6,1,0.9,1.6,0.9c0.7,0,1.2-0.4,1.5-0.9c0.4-0.7,0.8-1.3,1.2-2c0.4-0.9,0.7-1.8,1-2.7
		c0.6-1.8,1.2-3.5,1.7-5.3c0.5-1.9,1-3.7,1.4-5.7c0.3-1.8,0.5-3.7,0.6-5.6c0.2-3.7-0.4-7.3-2.1-10.5c-0.4-0.7-0.9-1.4-1.5-2
		C353.9,238.4,353,237.8,352,237.5L352,237.5z M353.3,248.3c0,0.1,0,0.1,0,0.2C353.3,248.4,353.3,248.4,353.3,248.3L353.3,248.3z
		 M325.8,255.3c-0.1,0.1-0.2,0.2-0.2,0.3C325.6,255.6,325.7,255.5,325.8,255.3L325.8,255.3z"/>
	<path class="st0" d="M376.2,209.3c0.2,2,0.4,4,0.5,5.9c0.1,2,0.2,4.1,0.3,6.1c0.2,4.3,0.5,8.7,0.7,13c0.2,4.4,0.4,8.8,0.8,13.1
		c0.1,1.8,0.3,3.5,0.4,5.3c0.2,3.1,0.6,6.1,0.7,9.2c0.2,3.7,0.5,7.5,0.2,11.2c0,0,0-0.1,0-0.1c-0.1,0.7-0.2,1.4-0.3,2.1c0,0,0,0,0,0
		c1.4-2.1,2-4.6,2.6-7c0.4-1.5,0.7-3,1-4.5c0.2-1.3,0.5-2.6,0.7-4c0.2-2.2,0.5-4.3,0.7-6.5c0.1-1.5,0.3-3.1,0.3-4.6
		c0.1-4.6-0.1-9.2-0.8-13.8c-0.7-4.6-1.7-9.1-3.1-13.5c-0.7-2.2-1.5-4.4-2.3-6.5C378,213,377.1,211.1,376.2,209.3
		C376.2,209.3,376.2,209.3,376.2,209.3C376.2,209.3,376.2,209.3,376.2,209.3L376.2,209.3z"/>
	<path class="st0" d="M410.5,248c-4.6-0.1-9.2,0.2-13.7,0.8c-2.5,0.3-4.9,0.8-7.3,1.2c-0.5,0.1-1.1,0.2-1.6,0.4
		c-1.4,0.4-2.9,0.7-4.2,1.3c-1.7,0.5-3.3,1.2-4.9,1.8c-1.5,0.6-3,1.4-4.5,2.1c-4.7,2.4-9.1,5.2-13.4,8.3c0,0,0,0,0,0
		c5-0.7,10.1-1.6,15-2.8c1.6-0.4,3.2-0.8,4.7-1.3c1.8-0.5,3.6-1,5.3-1.6c0.2,0,0.3,0,0.5-0.1c0.3-0.1,0.5-0.2,0.8-0.3
		c0.6-0.2,1.1-0.4,1.7-0.6c0.6-0.2,1.1-0.4,1.7-0.7c1.9-0.8,3.8-1.6,5.7-2.4c2.9-1.3,5.8-2.7,8.7-4
		C406.7,249.5,408.6,248.7,410.5,248C410.5,248,410.5,248,410.5,248C410.5,248,410.5,248,410.5,248L410.5,248z"/>
	<path class="st0" d="M408.5,244.4c-0.8,2.4-1.4,4.7-1.9,7.2c-0.4,1.9-0.8,3.9-1.1,5.9c-0.3,2.5-0.5,5-0.6,7.6
		c-0.1,3.3-0.1,6.6,0.8,9.8c0.3,0.9,1.1,1.5,2.1,1.5c1.2,0,2-1,2-2.2c0-0.9,0-1.7,0-2.6c0-0.3,0-0.7,0.1-1c0.1-1.1,0.2-2.2,0.3-3.3
		c0-0.8,0-1.6,0-2.5c0-2.3-0.1-4.7-0.3-7c-0.2-1.9-0.3-3.8-0.4-5.7C409.2,249.6,408.8,247,408.5,244.4
		C408.5,244.4,408.5,244.3,408.5,244.4C408.5,244.3,408.5,244.3,408.5,244.4L408.5,244.4z"/>
	<path class="st0" d="M417.2,206.4c-1,1.1-1,2.9,0.1,3.9c1.1,1,2.9,1,3.9-0.1c1-1.1,1-2.9-0.1-3.9S418.3,205.3,417.2,206.4
		L417.2,206.4z"/>
	<path class="st0" d="M449.8,210.5c-0.2,6-0.4,12-0.5,18.1c0,1.8-0.1,3.6-0.2,5.4c-0.1,3.3-0.1,6.7-0.1,10c0,1.6,0,3.1,0,4.7
		c0,1.7,0,3.4,0,5.1c0,0.8,0,1.5,0,2.3c0,2.3,0,4.6,0,6.9c0,2.5,0.1,5,0.1,7.4c-0.2-0.2-0.3-0.4-0.5-0.6c-0.6-0.8-1.3-1.6-2-2.4
		c0,0,0,0,0,0c0.3,0.7,0.6,1.4,1,2c0.2,0.5,0.5,1,0.7,1.5c0.3,0.5,0.7,0.7,1.2,1c0.3,0.2,0.9,0,0.9-0.4c0.3-1.6,0.5-3.3,0.6-4.9
		c0,0.1,0,0.2,0,0.2c0.4-3.8,0.7-7.7,0.9-11.5c0.2-3.9,0.4-7.9,0.3-11.8c0,0,0,0.1,0,0.1c0.1-0.6,0-1.3,0-2c0-0.8,0-1.6-0.1-2.4
		c-0.1-1.8-0.1-3.6-0.2-5.4c-0.1-1.8-0.1-3.6-0.3-5.4C451.1,222.5,450.6,216.5,449.8,210.5C449.8,210.5,449.8,210.5,449.8,210.5
		C449.8,210.5,449.8,210.5,449.8,210.5L449.8,210.5z M448.5,269.8C448.5,269.8,448.5,269.9,448.5,269.8
		C448.5,269.9,448.5,269.8,448.5,269.8L448.5,269.8z"/>
	<path class="st0" d="M473.9,245.9c-1.4,0.5-2.8,0.9-4.2,1.2c-3.4,0.9-6.8,1.5-10.3,2c-2.1,0.3-4.1,0.6-6.2,1c-1.7,0.3-3.3,0.6-5,1
		c-0.7,0.1-1.5,0.3-2.2,0.5c-0.6,0.1-1.1,0.2-1.6,0.4c-0.9,0.2-1.9,0.4-2.8,0.7c-2.7,0.6-5.4,1.4-8.1,2.2c-2.7,0.8-5.4,1.7-8,2.6
		c-3,1.1-6.1,2.1-9.1,3.2c0,0,0,0,0,0c3.1,0.1,6.2,0.2,9.4,0c2.8-0.2,5.7-0.4,8.5-0.7c3-0.3,5.9-0.8,8.9-1.3
		c0.9-0.2,1.9-0.3,2.8-0.6c0.5-0.1,0.9-0.2,1.4-0.3c0.5-0.1,1-0.3,1.5-0.4c1.3-0.4,2.5-0.8,3.8-1.2c2.2-0.7,4.3-1.5,6.5-2.3
		c2.8-1.1,5.6-2.3,8.3-3.8c1.4-0.7,2.7-1.6,4-2.4C472.2,247.1,473.1,246.5,473.9,245.9C473.9,246,473.9,245.9,473.9,245.9
		C473.9,245.9,473.9,245.9,473.9,245.9L473.9,245.9z M459.4,249.2c-0.1,0-0.3,0-0.4,0.1C459.1,249.2,459.2,249.2,459.4,249.2
		L459.4,249.2z"/>
	<path class="st0" d="M507.3,247.9c-0.7-0.6-1.6-0.9-2.5-0.6c-1.1,0.3-1.9,1.4-1.9,2.6c0,0.3,0,0.7,0,1c-0.3,2-0.9,3.9-1.5,5.8
		c-0.5,1.2-1.1,2.4-1.8,3.6c-0.9,1.1-1.9,2.2-3,3.1c-1.2,0.9-2.5,1.7-3.8,2.3c-0.8,0.3-1.6,0.5-2.5,0.7c-0.8,0.1-1.5,0.1-2.3,0.1
		c-0.7-0.1-1.3-0.3-2-0.5c-0.9-0.4-1.7-0.8-2.5-1.3c-0.8-0.6-1.5-1.3-2.1-2c-1.2-1.6-2.3-3.3-3.1-5.1c-0.3-0.8-0.6-1.6-0.7-2.4
		c0-0.2,0-0.5,0-0.8c0,0,0,0,0,0.1c0.1-1.2,0.3-2.4,0.6-3.6c0,0,0,0,0,0c-0.5,1-0.9,2-1.2,3c-0.4,1-0.3,2.1-0.1,3.2
		c0.5,2.6,1.5,5.2,2.9,7.4c1.3,2.2,3.4,3.9,5.7,4.9c2.6,1.1,5.5,1.1,8.2,0.4c1.3-0.4,2.5-1,3.7-1.6c1.3-0.7,2.5-1.6,3.6-2.6
		c1-0.9,1.9-1.9,2.7-3c0.2,2,0.3,4,0.5,5.9c0.3,3.3,0.6,6.5,0.9,9.8c0.2,2.3,0.3,4.6,0.5,6.9c0.1,2.5,0.3,5.1,0.4,7.6
		c0.1,1.4,0,2.8,0,4.2c-0.1,2.8-0.1,5.6-0.2,8.5c-0.1,3.7-0.4,7.4-0.8,11.1c-0.4,3.6-0.8,7.2-1.4,10.8c-0.6,3.5-1.6,7-2.9,10.4
		c-0.7,1.9-1.5,3.7-2.5,5.4c-0.9,1.7-2,3.4-3.1,5c-2.2,3-4.6,5.7-7.5,8c-2.8,2.2-5.9,4-9.2,5.5c-3.3,1.4-6.8,2.4-10.3,3
		c-2.7,0.4-5.5,0.5-8.2,0.3c-1.4-0.2-2.8-0.5-4.1-0.9c-1.9-0.7-3.6-1.7-5.3-2.9c-1.4-1.1-2.7-2.2-3.9-3.6c-1.2-1.5-2.2-3.1-3.3-4.6
		c-1.1-1.6-2.1-3.2-3.1-4.8c0,0,0,0,0,0c0.6,1.6,1.2,3.3,1.8,4.9c0.8,1.9,1.6,3.7,2.5,5.5c1.7,3.4,4.6,6.1,7.7,8.2
		c1.5,1,3.1,1.7,4.8,2.3c1.9,0.6,3.9,0.8,5.8,1c3.8,0.3,7.7-0.2,11.4-1.1c1.8-0.5,3.5-1.1,5.2-1.8c2-0.8,3.9-1.8,5.8-2.8
		c3.5-2,6.7-4.5,9.5-7.4c2.9-3,5.3-6.4,7.4-9.9c2.1-3.5,3.5-7.4,4.7-11.3c0.6-1.8,1.1-3.7,1.4-5.6c0.4-2.1,0.7-4.2,0.9-6.2
		c0.5-4.1,1-8.3,1.3-12.4c0.1-2,0.3-3.9,0.3-5.9c0-1.9,0.1-3.8,0.1-5.7c0-1.8,0.1-3.6,0.1-5.4c0-0.6,0-1.3,0-1.9
		c-0.2-3.6-0.4-7.2-0.5-10.9c-0.1-2.1-0.3-4.3-0.5-6.4c-0.2-2.4-0.4-4.8-0.6-7.2c-0.5-5.7-1.1-11.5-1.3-17.3c0-0.2,0-0.3,0-0.5
		C508.1,249.2,507.9,248.5,507.3,247.9C507.3,248,507.3,247.9,507.3,247.9L507.3,247.9z M477.6,255.1
		C477.6,255.1,477.6,255.1,477.6,255.1C477.6,255.1,477.6,255.1,477.6,255.1L477.6,255.1z M478.2,257.4c0,0,0,0.1,0,0.1
		C478.3,257.4,478.3,257.4,478.2,257.4L478.2,257.4z M481.4,262.6c0,0.1,0.1,0.1,0.1,0.2C481.5,262.7,481.5,262.6,481.4,262.6
		L481.4,262.6z"/>
	<path class="st0" d="M605.9,198c-1.3-0.2-2.6-0.4-3.9-0.6c-1.2-0.2-2.4-0.2-3.6-0.2c-2.9-0.1-5.9-0.1-8.8,0.1
		c-5.8,0.5-11.2,2.5-16.4,5.1c-5.3,2.7-10.2,6.3-14.6,10.4c-4.5,4.1-8.4,8.9-11.6,14.1c-1.4,2.4-2.6,4.9-3.5,7.5
		c-0.4,1.2-0.8,2.4-1.1,3.7c-0.4,1.6-0.5,3.3-0.6,4.9c-0.2,2.7,0.1,5.5,0.8,8.1c0.3,1.3,0.9,2.5,1.4,3.7c0.6,1.3,1.4,2.6,2.2,3.8
		c0.8,1.1,1.7,2.1,2.6,3.1c1,1,2.1,1.8,3.3,2.6c2.4,1.7,5.2,2.8,7.9,3.8c2.6,1,5.4,1.5,8.1,1.7c2.9,0.3,5.8,0,8.7-0.7
		c3.7-0.8,7.2-2.3,10.3-4.4c1.5-0.9,2.8-2,4.2-3.2c1.7-1.4,3.1-3,4.5-4.7c2.2-2.8,3.7-5.9,5.2-9.1c0.7-1.5,1.4-3.1,2-4.7
		c0,0,0,0,0,0c-0.2,0.4-0.5,0.7-0.7,1.1c0,0,0,0,0,0c-0.8,1.1-1.6,2.2-2.5,3.3c-1.1,1.4-2.2,2.7-3.3,4c-1.3,1.4-2.6,2.7-4.1,3.9
		c-2.6,2-5.4,3.7-8.4,5.1c-2.6,1.1-5.2,1.8-7.9,2.3c-2.5,0.3-4.9,0.4-7.4,0.2c-2.3-0.3-4.4-0.8-6.6-1.6c-2.2-0.9-4.3-1.9-6.3-3.2
		c-1-0.8-1.9-1.6-2.8-2.6c-0.9-1.3-1.7-2.6-2.4-4c-0.4-1.1-0.8-2.3-1-3.5c-0.2-1.6-0.2-3.2-0.1-4.9c0.2-2,0.7-3.9,1.3-5.7
		c1.3-3,2.9-5.8,4.8-8.5c3.7-4.9,8-9.1,12.8-13c-0.1,0.1-0.2,0.2-0.3,0.3c0.3-0.2,0.6-0.5,0.8-0.7c-0.1,0.1-0.2,0.2-0.4,0.3
		c0.1-0.1,0.3-0.2,0.4-0.3c0.2-0.1,0.3-0.3,0.5-0.4c-0.1,0.1-0.3,0.2-0.4,0.3c5.9-4.7,12.1-9.3,19-12.4c2.9-1.2,5.8-2.1,8.8-3
		c1.5-0.4,3-0.9,4.5-1.3C602.9,198.5,604.4,198.3,605.9,198C605.9,198,605.9,198,605.9,198C605.9,198,605.9,198,605.9,198L605.9,198
		z M555.6,229.3c-0.1,0.1-0.1,0.2-0.2,0.3C555.4,229.5,555.5,229.4,555.6,229.3L555.6,229.3z M569.1,215.6
		C569.1,215.6,569.1,215.6,569.1,215.6C569.1,215.6,569.2,215.5,569.1,215.6C569.2,215.5,569.2,215.5,569.1,215.6L569.1,215.6z"/>
	<path class="st0" d="M617.3,234c-0.9,4-1.5,8-1.8,12.1c0,0,0,0,0,0c0,0,0,0,0,0c0,0.3,0,0.5,0,0.8c0,0.7-0.1,1.3-0.1,2
		c-0.1,1.2-0.1,2.5,0,3.7c0,0.7,0,1.3,0,2c0,0.6,0.1,1.2,0.2,1.8c0.1,0.7,0.2,1.5,0.2,2.2c0,0.5,0.1,0.9,0.1,1.4
		c0.1,1.1,0.7,2.1,1.9,2.4c1.2,0.3,2.8-0.5,3-1.9c0.3-2.2,0.6-4.6,0.3-6.9C620.8,246.9,619.3,240.3,617.3,234
		C617.3,234,617.3,234,617.3,234C617.3,234,617.3,234,617.3,234L617.3,234z"/>
	<path class="st0" d="M627.9,191c-1.1,1.1-1,2.9,0.1,4s2.9,1,4-0.1c1.1-1.1,1-2.9-0.1-4C630.8,189.8,629,189.8,627.9,191L627.9,191z
		"/>
	<path class="st0" d="M650.3,205c0,2.8,0.2,5.7,0.2,8.5c0,2.4,0.2,4.7,0.3,7.1c0.3,4,0.7,7.9,1.3,11.8c0.5,4.6,1.4,9.2,2.4,13.8
		c0.3,1.5,0.6,2.9,0.9,4.4c0.7,3.1,1.4,6.3,2,9.4c0.1,0.6,0.1,1.1,0.1,1.6c0,0.3-0.1,0.6-0.3,0.9c0,0,0,0,0,0
		c-0.1,0.1-0.1,0.2-0.2,0.3c0,0,0,0,0,0c0,0,0,0,0,0c0,0,0,0,0,0c0,0,0,0,0,0c-0.1,0.1-0.2,0.2-0.3,0.3c0,0,0,0,0,0
		c0.4-0.2,0.8-0.5,1.1-0.9c0.6-0.9,0.8-1.8,1-2.8c0.3-1.9,0.5-3.8,0.6-5.7c0.1-2.3,0.3-4.6,0.3-7c0-1.6-0.1-3.3-0.1-4.9
		c-0.1-1.5-0.1-3-0.3-4.5c-0.1-1.3-0.2-2.7-0.4-4.1c-0.5-3.8-1.5-7.6-2.5-11.3c-0.8-2.8-1.7-5.6-2.6-8.4
		C652.9,210.7,651.6,207.9,650.3,205C650.4,205,650.4,205,650.3,205C650.4,205,650.3,205,650.3,205L650.3,205z M657.5,261.7
		C657.5,261.7,657.5,261.7,657.5,261.7C657.5,261.7,657.5,261.7,657.5,261.7L657.5,261.7z M657.1,262.9
		C657.1,262.9,657.1,262.9,657.1,262.9C657.1,262.8,657.1,262.8,657.1,262.9C657.1,262.8,657.1,262.9,657.1,262.9L657.1,262.9z"/>
	<path class="st0" d="M686.6,224.6c-0.6,0.3-1.2,0.6-1.8,0.9c0,0,0,0,0,0c0,0,0,0,0,0c0,0,0,0,0,0c0,0,0,0,0,0
		c-1.4,0.6-2.9,1.2-4.3,1.7c-1.5,0.6-3,1.2-4.6,1.7c-2.1,0.7-4.3,1.2-6.5,1.7c-2.2,0.5-4.5,0.9-6.8,1.3c-1.1,0.2-2.3,0.4-3.4,0.6
		c-1.1,0.2-2.3,0.4-3.4,0.8c-0.8,0.2-1.6,0.4-2.4,0.6c-0.6,0.1-1.2,0.3-1.7,0.4c-4.3,1-8.5,2.3-12.7,3.8c-1.6,0.5-3.2,1.1-4.8,1.7
		c-2.7,1-5.4,2-8.1,3c0,0,0,0,0,0c3.2,0.2,6.3,0.3,9.5,0.2c2.6-0.1,5.1-0.3,7.6-0.5c4.9-0.4,9.9-1,14.7-2.1c-0.2,0-0.5,0.1-0.7,0.1
		c0.9-0.1,1.8-0.3,2.8-0.6c0.9-0.2,1.8-0.5,2.7-0.8c2-0.6,3.9-1.3,5.9-2.1c3.8-1.6,7.4-3.6,10.6-6.1c1.5-1.2,3-2.4,4.4-3.6
		C684.7,226.5,685.7,225.6,686.6,224.6C686.7,224.6,686.7,224.6,686.6,224.6C686.6,224.6,686.6,224.6,686.6,224.6L686.6,224.6z
		 M684.8,225.5C684.8,225.5,684.8,225.5,684.8,225.5C684.8,225.5,684.8,225.5,684.8,225.5C684.8,225.5,684.8,225.5,684.8,225.5
		L684.8,225.5z"/>
	<path class="st0" d="M720.9,230c-0.7-0.2-1.4-0.1-2.1,0.1c-0.1,0-0.2,0.1-0.3,0.2c-0.3,0.1-0.7,0.3-1,0.5c-0.5,0.3-0.9,0.7-1.3,1
		c-0.4,0.3-0.7,0.8-1,1.2c-0.3,0.5-0.7,0.9-0.9,1.4c-0.5,0.9-0.8,1.9-1.2,2.9c-0.4,1.1-0.6,2.2-0.9,3.4c-0.4,2.1-0.6,4.2-0.7,6.3
		c-0.1,0.8-0.1,1.6-0.1,2.3c-0.1,0-0.2,0.1-0.2,0.1c-0.7,0.3-1.4,0.5-2.1,0.6c-0.5,0.1-1,0.1-1.5,0.1c-0.7-0.1-1.4-0.3-2.1-0.5
		c-1.2-0.5-2.3-1.1-3.4-1.9c-2.6-1.9-4.9-4.3-6.9-6.8c-1.2-1.5-2.3-3-3.1-4.8c-0.6-1.4-1.1-2.9-1.4-4.4c0,0,0,0,0,0c0,0,0,0,0,0
		c0,0,0,0,0,0c0,0,0,0,0,0c0-0.2-0.1-0.5-0.1-0.7c0,0,0,0,0,0c-0.2,1.7-0.1,3.4,0.1,5c0.3,2,1.1,3.8,1.9,5.6c0.9,1.8,2,3.5,3.2,5.2
		c1.3,1.8,2.7,3.5,4.4,4.9c0.8,0.6,1.6,1.2,2.4,1.7c0.9,0.5,1.8,0.9,2.7,1.2c1.9,0.7,3.9,0.6,5.9,0.2c-0.1,2.8-0.1,5.6-0.2,8.3
		c-0.1,5-0.2,10.1-0.7,15.1c-0.5,4.2-1,8.4-1.9,12.5c-0.9,4.2-2.1,8.4-3.5,12.4c-1.9,5-4.4,9.8-7.5,14.1c-3.6,4.9-7.9,9.2-12.6,13.1
		c-3,2.4-6.2,4.5-9.6,6.5c-3.1,1.8-6.3,3.5-9.7,5c-1.7,0.7-3.3,1.3-5.1,1.9c-1.8,0.5-3.6,0.9-5.5,1.2c-3.1,0.4-6.3,0.6-9.5,0.3
		c-1.7-0.2-3.5-0.5-5.2-0.8c-1.9-0.4-3.8-1-5.6-1.7c0.1,0,0.1,0.1,0.2,0.1c-2.8-1.1-5.7-2.2-8.4-3.6c0,0,0,0,0,0
		c2.3,1.8,4.7,3.4,7.1,4.9c1.7,1,3.4,2,5.3,2.7c2,0.8,4,1.4,6,1.9c4,1,8.3,1.1,12.4,0.6c2-0.2,4-0.6,6-1.2c2.2-0.6,4.2-1.5,6.3-2.4
		c4-1.9,7.9-4.1,11.6-6.4c3.9-2.5,7.5-5.3,10.9-8.5c3.3-3.1,6.4-6.5,9.1-10.2c2.7-3.7,4.9-7.6,6.8-11.8c2.9-6.4,4.8-13.3,6.1-20.1
		c0.7-3.6,1.1-7.1,1.5-10.7c0.4-3.7,0.5-7.4,0.7-11.1c0.2-5,0.2-10.1,0.5-15.1c0,0,0.1,0,0.1-0.1c1.8-1.5,3.1-3.5,4.2-5.5
		c1.4-2.8,1.9-5.9,2.4-9c0.2-1.2,0.2-2.3,0.3-3.5c0-1-0.4-2.2-1.1-2.9C722.1,230.4,721.4,230.1,720.9,230L720.9,230z M710.2,278.2
		c0,0.1,0,0.2,0,0.4C710.1,278.5,710.1,278.4,710.2,278.2L710.2,278.2z M665.3,341.9c-0.1,0-0.2,0.1-0.3,0.1
		C665.1,341.9,665.2,341.9,665.3,341.9L665.3,341.9z M690.5,231.6C690.5,231.6,690.5,231.6,690.5,231.6
		C690.5,231.6,690.5,231.6,690.5,231.6C690.5,231.6,690.5,231.6,690.5,231.6L690.5,231.6z"/>
</g>
</svg>
