<?xml version="1.0" encoding="utf-8"?>
<!-- Generator: Adobe Illustrator 19.2.1, SVG Export Plug-In . SVG Version: 6.00 Build 0)  -->
<svg version="1.1" id="Layer_1" xmlns="http://www.w3.org/2000/svg" xmlns:xlink="http://www.w3.org/1999/xlink" x="0px" y="0px"
	 viewBox="0 0 960 560" style="enable-background:new 0 0 960 560;" xml:space="preserve">
<style type="text/css">
	.st0{fill:#020808;}
</style>
<g>
	<path class="st0" d="M488.8,248.3c-0.6-0.3-1.2-0.5-1.9-0.7c-1.2-0.4-2.5-0.5-3.8-0.7c-2.4-0.2-4.7-0.3-7.1-0.3
		c-2.4,0-4.8,0-7.2,0.1c-1.6,0-3.3,0-4.9-0.1c-7.4-0.1-14.7-0.3-22.1-0.5c-2.4-0.1-4.8-0.2-7.2-0.1c-4.5,0.1-8.9,0.1-13.4,0.2
		c-6.7,0.1-13.3,0.4-20,0.6c-0.6,0-1.1,0-1.7,0.1c0.3-1.8,0.6-3.7,0.9-5.5c0.6-4.2,0.9-8.4,0.9-12.6c0-3.7-0.5-7.4-1.2-11
		c-0.1-0.5-0.2-1-0.3-1.5c-0.1-0.4-0.5-1.3-0.7-1.5c-0.5-0.6-0.9-1.1-1.7-1.5c-0.5-0.3-1.1-0.4-1.7-0.5c-0.7-0.2-1.6,0-2.3,0.2
		c-0.5,0.1-1,0.4-1.4,0.7c-1.1,0.7-1.8,1.9-2.3,3.1c-0.4,1-0.7,2-1,3c-0.3,1.1-0.6,2.2-0.8,3.3c-0.4,2.4-0.7,4.9-1,7.3
		c-0.5,5-0.8,10.1-1.1,15.1c0,0.5-0.1,0.9-0.1,1.4c-1.4,0-2.8,0-4.3,0c-2.3,0-4.6,0-6.8,0c-4.4-0.1-8.7-0.2-13.1-0.2
		c-2.8,0-5.6,0-8.4,0.1c-2.9,0-5.8,0.1-8.7,0.2c-4.9,0.2-9.7,0.4-14.6,0.7c0.5-2.3,0.9-4.5,1.3-6.8c0.6-3.7,1-7.5,1.5-11.3
		c0.1-0.6,0.1-1.3,0.1-1.9c0.1-1.2,0.2-2.5,0.2-3.7c0.1-1.7,0.2-3.4,0.2-5.1c0-1.3,0.1-2.6,0.1-4c0-0.8,0-1.7,0-2.5c0-0.7,0-1.4,0-2
		c-0.1-1.2-0.6-2.1-1.1-3.2c-0.3-0.5-0.8-0.9-1.3-1.2c-0.6-0.3-1.1-0.4-1.8-0.3c-1.2,0.1-2.2,0.8-2.8,1.9c-0.5,0.9-0.9,1.7-1.3,2.7
		c-0.4,1.2-0.8,2.4-1,3.6c-0.3,1.2-0.6,2.5-0.8,3.8c-0.4,2.1-0.8,4.1-1.1,6.2c-0.5,2.8-1,5.7-1.5,8.5c-0.6,3.4-1.2,6.8-1.7,10.3
		c-0.3,1.9-0.5,3.8-0.8,5.7c0,0-0.1,0-0.1,0c-2.1,0.1-4.1,0.2-6.2,0.6c0,0,0,0,0,0c0.3,0,0.7,0,1,0c0,0,0,0,0,0
		c1.7,0.1,3.4,0.3,5.1,0.5c-0.2,1.7-0.5,3.3-0.7,5c-0.6,4.5-1.1,8.9-1.3,13.4c-0.8,1.9-1.6,3.8-2.5,5.7c-2.2,4.7-4.8,9.2-7.7,13.6
		c-2.5,3.7-5.2,7.2-8.4,10.2c-1.2,1-2.4,1.8-3.8,2.6c-0.5,0.2-0.9,0.4-1.4,0.5c-0.1,0-0.2,0-0.3,0c0,0-0.1,0-0.1,0
		c-0.1-0.1-0.3-0.1-0.4-0.2c0,0,0,0,0,0c-0.2-0.2-0.3-0.5-0.4-0.7c-0.3-0.6-0.5-1.3-0.6-2c-0.5-2.7-0.4-5.4-0.4-8.1
		c0-1.6,0.1-3.2,0.1-4.8c0-1.6,0-3.1,0-4.7c0-0.8,0-1.6,0-2.4c0-0.8,0-1.6,0-2.4c-0.1-1.8-0.2-3.7-0.4-5.5c-0.2-2.4-0.7-4.7-1.2-7.1
		c-0.2-1-0.6-1.9-1-2.8c-0.5-1.2-1.2-2.2-2.1-3.1c-0.4-0.4-0.9-0.7-1.4-0.8c-0.3-0.1-0.6-0.2-0.9-0.3c-0.4,0-0.8-0.1-1.3,0
		c-0.7,0-1.4,0.4-2,0.7c-0.5,0.3-1,0.7-1.4,1.1c-1.2,1.4-2.2,3.1-3.1,4.7c-0.8,1.3-1.7,2.7-2.5,4.1c-0.9,1.6-1.8,3.2-2.7,4.8
		c-0.3,0.5-0.5,1.1-0.8,1.6c-0.6,1.1-1.1,2.2-1.7,3.4c-1.5,3-2.9,6.1-4.3,9.2c-0.6,1.2-1.1,2.5-1.6,3.8c-0.1,0.3-0.2,0.6-0.4,0.8
		c0.2-2.8,0.3-5.6,0.5-8.4c0.2-4.5,0.1-9-0.4-13.4c-0.2-2.2-0.6-4.4-1.2-6.6c-0.3-1.1-0.9-2.1-1.4-3.1c-0.8-1.3-2.1-2.2-3.6-2.7
		c-1.1-0.3-2.1-0.1-3.2,0.3c-0.3,0.1-0.6,0.3-0.9,0.4c-0.4,0.2-0.7,0.3-1.1,0.5c-0.3,0.2-0.6,0.5-0.9,0.8c-0.9,0.9-1,2.3-1,3.5
		c0,1.3,0,2.5,0,3.8c-0.1,1.4-0.2,2.7-0.4,4.1c-0.4,4-1.2,7.9-2.4,11.8c-2.2,6.5-5.5,12.6-9.2,18.4c-2.6,4-5.4,7.8-8.5,11.4
		c-3,3.5-6.1,6.8-9.5,9.9c-3.8,3.3-7.8,6.3-12.2,8.6c-2.2,1-4.4,1.8-6.8,2.4c-1.9,0.4-3.7,0.5-5.7,0.5c-1.8-0.1-3.6-0.5-5.4-1
		c-1.5-0.5-3-1.2-4.4-2.1c-0.9-0.6-1.6-1.3-2.4-2.1c-0.8-1-1.6-2.1-2.2-3.2c-0.7-1.7-1.2-3.4-1.7-5.1c-0.8-4-0.9-8.2-0.7-12.3
		c0.2-2.9,0.5-5.8,1-8.7c0.5-3.2,1.4-6.2,2.3-9.3c0.9-2.7,1.8-5.5,2.8-8.2c0.8-2.1,1.6-4.2,2.5-6.2c1.4-3.5,3.1-6.8,5.1-9.9
		c1.7-2.5,3.5-4.8,5.7-6.8c0.5-0.4,1-0.8,1.5-1.2c0.4-0.1,0.7-0.3,1.1-0.4c0.6-0.2,1.2-0.5,1.7-0.8c1.4-0.7,3-1.3,4-2.6
		c0.6-0.9,1-1.7,0.9-2.8c-0.1-1.3-0.9-2.6-2.2-3.1c-0.7-0.3-1.5-0.6-2.3-0.5c-0.6,0.1-1.2,0.2-1.7,0.4c-1,0.3-1.9,0.9-2.9,1.4
		c-1.5,0.9-3,1.9-4.3,3c-2.5,1-5.1,1.8-7.8,2.5c-1.8,0.3-3.6,0.5-5.5,0.4c-1.5-0.1-2.9-0.4-4.3-0.8c-0.7-0.3-1.4-0.6-2.1-1
		c-0.7-0.5-1.3-1-1.9-1.6c-0.4-0.5-0.8-1.1-1.1-1.7c-0.4-0.9-0.7-1.7-0.9-2.6c-0.2-1.2-0.3-2.3-0.3-3.5c0.1-2,0.4-3.9,0.8-5.9
		c0.5-2.1,1.1-4.2,1.8-6.3c1-3,2.2-6,3.4-8.9c0.5-1.2,1-2.5,1.6-3.7c1.3-2.8,2.6-5.5,3.9-8.3c1-2.1,1.9-4.3,3-6.4
		c3.1-6.1,6.4-12,10.1-17.8c3.8-5.7,8-11.3,13.2-15.9c-0.1,0.1-0.1,0.1-0.2,0.2c2.3-2,4.8-3.7,7.4-5.1c1.5-0.7,3-1.3,4.6-1.7
		c0.6-0.1,1.3-0.2,1.9-0.2c0,0,0,0,0,0c0.3,0,0.6,0,0.9,0.2c0,0,0,0,0,0c0.9,0.5,1.8,1,2.7,1.5c0,0,0,0,0,0
		c-0.9-0.6-1.7-1.2-2.6-1.8c-0.4-0.3-1-0.3-1.5-0.3c-1,0-2,0.1-3,0.3c-4.2,1-8,3.1-11.4,5.6c-3.8,2.7-7.1,6-10.1,9.4
		c-3.2,3.6-6.2,7.5-8.9,11.5c-2.8,4-5.3,8.2-7.8,12.5c-0.7,1.2-1.2,2.4-1.8,3.6c-1.9,3.7-3.7,7.4-5.5,11.1c-0.4,0.8-0.7,1.6-1.1,2.4
		c-0.9,2-1.7,4-2.5,6c-0.8,2-1.5,4-2.2,6c-0.7,2.2-1.4,4.5-1.9,6.8c-0.4,2-0.7,4-0.8,6c-0.1,2.2,0.2,4.3,0.8,6.3
		c0.5,1.8,1.5,3.5,2.8,4.9c1.4,1.7,3.1,3,5.1,4c0.9,0.4,1.9,0.7,2.8,1c1,0.3,2,0.5,3,0.7c1.1,0.2,2.3,0.2,3.5,0.2
		c1.1,0,2.1-0.1,3.2-0.1c0.1,0,0.1,0,0.2,0c-0.7,1-1.3,2.1-1.9,3.2c-2.6,4.5-4.4,9.5-6.4,14.3c-0.5,1.3-0.9,2.6-1.3,3.9
		c-0.7,2.1-1.5,4.2-2.1,6.4c-0.6,2.1-1.2,4.2-1.7,6.4c-0.5,2.4-0.9,4.8-1.1,7.2c-0.5,4.7-0.6,9.5-0.2,14.2c0.2,2.3,0.6,4.6,1.2,6.8
		c0.6,2.4,1.5,4.6,2.7,6.7c1.1,2,2.7,3.7,4.4,5.2c0.9,0.8,2,1.5,3,2.1c1.1,0.7,2.2,1.2,3.4,1.7c4.4,1.8,9.3,2.4,14.1,1.9
		c2.3-0.3,4.5-0.8,6.7-1.5c2.3-0.7,4.5-1.8,6.7-3c3.9-2.1,7.5-4.9,10.9-7.7c3.7-3.1,7-6.5,10.1-10.1c3.1-3.5,6-7.3,8.7-11.1
		c2.8-4.1,5.5-8.4,7.7-12.8c3.1-6.1,5.3-12.6,6.3-19.3c0.1,2.1,0,4.3,0,6.4c-0.2,2.4-0.3,4.8-0.5,7.2c-0.2,2.4-0.4,4.7-0.6,7.1
		c-0.2,2.8-0.5,5.5-0.7,8.3c-0.1,1.3-0.1,2.6-0.2,3.9c0,0.7-0.1,1.3-0.1,2c0,1-0.1,2,0.1,3c0.1,0.7,0.3,1.3,0.6,1.8
		c0.4,0.6,0.9,1,1.5,1.3c1.2,0.6,2.7,0.5,3.8-0.3c0.4-0.3,0.8-0.6,1.1-0.9c0.3-0.4,0.6-0.9,0.9-1.3c0.4-0.6,0.6-1.3,0.9-2
		c0.5-1.3,0.8-2.7,1.2-4.1c1.2-3.3,2.5-6.5,3.7-9.8c0.5-1.4,1.1-2.8,1.7-4.1c0.6-1.4,1.1-2.8,1.7-4.2c1.3-3,2.6-6,4-9
		c0.9-1.8,1.7-3.6,2.6-5.4c0.7-1.5,1.6-3,2.4-4.5c0.5-0.9,1-1.9,1.5-2.8c0.4-0.6,0.7-1.3,1.1-1.9c0,0.1,0,0.2,0.1,0.3
		c0.9,4.5,1,9.1,1,13.7c0,3.4-0.1,6.8-0.2,10.1c-0.1,1.5-0.1,3-0.1,4.5c0,2.2,0.2,4.4,0.7,6.6c0.5,2.3,1.6,4.6,3.4,6.2
		c0.1,0.1,0.3,0.2,0.4,0.3c0.4,0.3,0.8,0.6,1.3,0.8c0.5,0.3,1.3,0.5,1.9,0.7c1,0.3,2.1,0.3,3.2,0.2c2.3-0.4,4.3-1.5,6.3-2.7
		c1.9-1.2,3.7-2.8,5.3-4.5c1.7-1.7,3.3-3.6,4.7-5.6c1.5-2,2.8-4.1,4.1-6.1c0.9-1.3,1.7-2.7,2.5-4.1c0.1,1.3,0.3,2.5,0.4,3.8
		c0.6,4.6,1.5,9.3,2.7,13.8c1.2,4.3,2.8,8.8,5.7,12.2c1.5,1.8,3.3,3.3,5.5,4.2c2.4,1,5.1,0.7,7.5-0.2c2.1-0.8,3.8-2.3,5.2-4
		c0.6-0.7,1.2-1.5,1.7-2.3c0.8-1.2,1.5-2.4,2.2-3.7c1-2,1.8-4.1,2.6-6.2c0.1-0.3,0.2-0.6,0.3-0.9c0.4,0.8,0.9,1.6,1.3,2.4
		c1.1,1.9,2.6,3.6,4.3,4.9c1.1,0.9,2.3,1.6,3.7,2c1.2,0.4,2.6,0.4,3.9,0.3c1.1-0.1,2.3-0.4,3.4-0.7c1.1-0.3,2.1-0.9,3.1-1.4
		c0.9-0.5,1.7-1.1,2.5-1.7c1-0.8,2-1.8,3-2.7c1.6-1.6,2.9-3.3,4.1-5.2c1.5-2.1,2.8-4.4,4.1-6.6c0.4-0.7,0.8-1.4,1.2-2.1
		c0,0.4,0,0.7,0.1,1.1c0.2,4.9,0.9,9.7,1.9,14.5c0.2,1,0.5,2.1,0.8,3.1c0.1,0.4,0.2,0.9,0.4,1.3c0.2,0.5,0.5,1.3,0.8,1.7
		c0.7,1,1.6,1.9,2.8,2.5c0.5,0.3,1.2,0.6,1.8,0.7c0.5,0.1,0.9,0.1,1.4,0.1c0.4,0,0.9-0.1,1.3-0.2c2-0.5,3.5-1.9,5-3.2
		c1.7-1.6,3-3.7,4.1-5.8c1.1-1.9,2.1-3.9,3-5.9c0.9-1.9,1.7-3.9,2.5-5.8c0.1-0.2,0.1-0.4,0.2-0.6c0.3,0.6,0.6,1.1,1,1.7
		c1.2,1.9,2.8,3.6,4.5,5c1,0.8,2,1.5,3.1,2.1c1.2,0.7,2.5,1.1,3.8,1.4c1.1,0.3,2.4,0.4,3.5,0.4c1.2,0,2.3-0.1,3.4-0.4
		c0.6-0.2,1.2-0.4,1.8-0.6c-1.4,1.7-2.7,3.3-4.1,5c-1.4,1.7-2.8,3.3-4.1,5c-0.5,0.6-0.9,1.1-1.4,1.7c-2.4,3.3-4.9,6.6-7.3,9.9
		c-1.4,1.9-2.8,3.7-4.1,5.7c-2.5,3.7-5,7.5-7.5,11.2c-3.2,4.7-6.2,9.6-9,14.6c-2.4,4.3-4.4,8.9-5.9,13.5c-1.3,4.2-2.2,8.7-1.7,13.1
		c0.1,1.1,0.4,2.3,0.7,3.4c0.3,1,0.6,1.9,1.1,2.9c0.5,1,1,2,1.8,2.8c0.4,0.5,0.8,0.9,1.3,1.4c0.6,0.6,1.3,1,2,1.4
		c3.9,2.5,8.7,3.4,13.3,3c1.2-0.1,2.4-0.4,3.5-0.6c1-0.2,2-0.5,2.9-0.9c2.3-0.8,4.4-2,6.5-3.2c4-2.5,7.7-5.7,10.6-9.4
		c1.4-1.9,2.7-3.9,3.9-6c1.2-2.2,2.2-4.4,3.1-6.7c0.9-2.3,1.6-4.8,2.3-7.2c0.7-2.4,1.3-4.8,1.8-7.3c1-4.7,1.7-9.4,2.2-14.2
		c0.2-2.3,0.4-4.6,0.6-6.9c0.1-1.9,0.3-3.8,0.4-5.8c0.1-3.9,0.2-7.7,0.4-11.6c0.1-2.5,0.2-5,0.2-7.4c-0.1-3.8-0.1-7.6-0.2-11.4
		c1.9-2,3.8-4.1,5.8-6.1c0.7-0.8,1.4-1.5,2.2-2.3c0.8-0.9,1.7-1.7,2.6-2.5c3.1-2.9,6.1-5.9,9.2-8.8c2.3-2.2,4.6-4.3,7-6.5
		c4.7-4.4,9.4-8.8,14.1-13.2c0.6-0.5,1.2-1.1,1.7-1.6c1-0.9,2-1.8,2.9-2.8c0.3-0.3,0.6-0.5,0.8-0.9c0.4-0.5,0.8-1.3,0.9-2
		c0.3-1.5-0.4-2.9-1.4-4C489.9,249,489.3,248.6,488.8,248.3C488.8,248.4,488.8,248.3,488.8,248.3L488.8,248.3z M485.7,254.8
		c0.1,0.1,0.3,0.2,0.4,0.2C485.9,255,485.8,254.9,485.7,254.8L485.7,254.8z M481.9,254.2c-0.6,0.6-1.2,1.2-1.8,1.7
		c-1.3,1.2-2.6,2.4-3.8,3.6c-2.4,2.3-4.9,4.5-7.3,6.8c-4.5,4.2-9,8.3-13.4,12.6c-2.8,2.7-5.6,5.3-8.4,8c-0.1,0.1-0.3,0.3-0.4,0.4
		c0.4-0.8,0.8-1.7,1.1-2.5c0.9-2.4,1.7-4.9,2.1-7.4c0.4-2.8,0.4-5.6,0.2-8.3c-0.1-1.3-0.2-2.6-0.5-3.9c-0.2-0.9-0.7-1.9-1.4-2.5
		c-0.6-0.5-1.2-0.9-1.9-1.2c-1.5-0.8-3.6-0.4-4.7,1c-0.4,0.4-0.7,0.8-1.1,1.3c-0.5,0.5-0.8,1.2-1.2,1.8c-0.3,0.5-0.4,1-0.6,1.5
		c-0.2,0.7-0.5,1.4-0.6,2.1c-0.3,1.1-0.5,2.2-0.7,3.3c-0.2,1.3-0.4,2.5-0.5,3.8c-0.2,2.3-0.3,4.7-0.4,7.1c-0.1,2-0.1,4-0.1,5.9
		c-1.2,1.7-2.6,3.4-4.1,4.8c-1,0.8-2.1,1.6-3.3,2.2c-0.6,0.2-1.1,0.5-1.7,0.6c-0.5,0.1-0.9,0.1-1.4,0.1c-0.8-0.1-1.5-0.2-2.3-0.4
		c-0.6-0.2-1.2-0.5-1.8-0.9c-1-0.7-1.9-1.5-2.7-2.4c-0.9-1.1-1.7-2.3-2.4-3.6c-0.9-1.9-1.5-3.8-2-5.8c-0.1-0.5-0.2-0.9-0.2-1.4
		c0.2-0.7,0.4-1.3,0.6-2c0.5-1.7,1-3.5,1.6-5.2c0.2-0.5,0.2-1.1,0.4-1.6c0.3-1.1,0.5-2.2,0.8-3.4c0.3-1.4,0.6-2.7,0.8-4.1
		c0.6-3.5,1.2-7.1,1.4-10.7c0.1-0.5,0.1-1.1,0.1-1.6c0-0.1,0-0.3-0.1-0.4c4.5-0.1,9-0.1,13.6-0.2c1.1,0,2.3,0,3.4-0.1
		c1.1,0,2.2,0.1,3.3,0.1c4.3,0.1,8.5,0.2,12.8,0.3c3,0.1,6.1,0.1,9.1,0.1c1.8,0,3.5,0,5.3,0.1c3.8,0.1,7.5-0.2,11.3,0
		c0.7,0,1.4,0,2.1,0.1C481.3,254.1,481.6,254.1,481.9,254.2L481.9,254.2z M481.6,254.1c-0.1,0-0.2,0-0.3,0
		C481.5,254.1,481.6,254.1,481.6,254.1L481.6,254.1z M392.4,218.1c0,0,0,0.1,0.1,0.1C392.5,218.2,392.5,218.2,392.4,218.1
		L392.4,218.1z M400,254.3c3.3-0.1,6.6-0.2,9.9-0.3c-0.1,0.2-0.2,0.4-0.4,0.6c-0.6,1-1,2-1.3,3.1c-0.4,1.2-0.8,2.4-1.1,3.7
		c-0.6,2.3-0.8,4.6-1,7c-0.4,4.6-0.3,9.3,0.2,13.9c-1,2.6-1.9,5.3-2.9,7.9c-0.6,1.8-1.4,3.5-2.1,5.2c-0.7,1.8-1.5,3.5-2.4,5.2
		c-0.8,1.5-1.6,3-2.5,4.5c-0.6,0.9-1.3,1.7-2.1,2.4c-0.1-0.4-0.2-0.9-0.4-1.3c-0.2-0.8-0.4-1.6-0.6-2.5c-0.8-3.8-1.2-7.7-1.5-11.6
		c-0.2-2.9-0.3-5.9-0.2-8.9c0.1-3,0.1-5.9,0.2-8.9c1-2.8,2-5.6,2.9-8.5c1.2-3.7,2.3-7.5,3.2-11.4C398.6,254.4,399.3,254.3,400,254.3
		L400,254.3z M332.7,250.7c6,0.5,12.1,0.9,18.1,1.4c7.3,0.6,14.6,1.2,21.8,1.7c4.2,0.3,8.3,0.4,12.5,0.5c0,0.4,0,0.9-0.1,1.3
		c-0.2,4-0.4,8-0.6,11.9c-0.1,1.3-0.1,2.6-0.2,3.9c-1.1,2.8-2.2,5.6-3.5,8.3c-2.3,5.1-5,9.9-8,14.6c-0.7,1.1-1.5,2.1-2.3,3.2
		c-0.9,1.1-1.9,2.1-2.9,3.1c-0.9,0.8-1.8,1.4-2.8,2c-0.7,0.3-1.4,0.5-2.1,0.7c-0.5,0.1-1,0.1-1.5,0.1c-0.1,0-0.2,0-0.3-0.1
		c-0.1-0.1-0.2-0.1-0.4-0.2c-0.6-0.4-1.1-0.9-1.6-1.4c-0.9-1.1-1.6-2.2-2.3-3.4c-0.6-1.4-1.1-2.9-1.5-4.4c-0.5-2.6-0.7-5.3-0.7-8
		c0-1.2,0.1-2.5,0.1-3.7c0-0.5,0-1,0.1-1.5c0-0.1,0-0.2,0-0.4c0.1-0.4,0.1-0.9,0.2-1.3c0.2-1.2,0.3-2.5-0.1-3.7
		c-0.6-1.6-2.2-2.7-3.9-2.6c-1.7,0.1-3.1,1.5-3.5,3.2c-0.2,1.2-0.2,2.4-0.3,3.6c0,0.1,0,0.2,0,0.3c-0.1,0.9-0.3,1.7-0.4,2.6
		c-0.2,1.5-0.5,2.9-0.8,4.4c-0.4,1.6-0.7,3.3-1.2,4.9c-0.6,2-1.1,4.1-1.8,6.1c-0.6,1.7-1.2,3.3-1.9,4.9c-0.7,1.6-1.4,3.3-2.3,4.8
		c-0.8,1.2-1.6,2.3-2.6,3.3c-0.3,0.2-0.5,0.4-0.8,0.5c-0.3,0.1-0.7,0.2-1,0.4c-0.3,0-0.6,0.1-0.9,0.1c-0.1,0-0.2,0-0.3-0.1
		c-0.3-0.1-0.6-0.3-0.9-0.5c-0.5-0.4-1-0.8-1.5-1.3c-0.8-1.1-1.6-2.2-2.2-3.4c-1.6-3.5-2.7-7.2-3.5-11c-0.9-4.4-1.6-8.8-2-13.2
		c-0.3-3.8-0.4-7.6-0.3-11.4c0.3-0.7,0.6-1.4,0.9-2.1c2.4-6.1,4.3-12.4,5.7-18.7C330.4,250.5,331.5,250.6,332.7,250.7L332.7,250.7z
		 M192.7,184.7c0,0-0.1,0.1-0.1,0.1C192.7,184.8,192.7,184.8,192.7,184.7L192.7,184.7z M411.6,341.9c1.2-1.9,2.5-3.7,3.7-5.6
		c0.5-0.7,0.9-1.5,1.4-2.2c2.3-3.1,4.5-6.1,6.8-9.2c1.5-2,2.9-4.1,4.5-6c2.8-3.4,5.7-6.8,8.5-10.3c0,0,0.1-0.1,0.1-0.1
		c0,0.9,0,1.8,0,2.8c0,0.8,0.1,1.6,0,2.4c-0.1,4-0.2,8-0.4,12c0,1.6-0.1,3.2-0.2,4.8c-0.4,6-0.9,11.9-1.8,17.8c-0.5,3-1,6-1.6,9
		c-0.6,2.8-1.4,5.7-2.3,8.4c-0.7,2.1-1.5,4.1-2.4,6.1c-0.9,1.8-1.9,3.6-3,5.4c-1.5,2.2-3.2,4.3-5.2,6.1c-2.3,1.9-4.8,3.7-7.4,5.1
		c-1.7,0.8-3.4,1.4-5.2,1.9c-1.4,0.2-2.7,0.4-4.1,0.3c-1.2-0.1-2.4-0.3-3.6-0.6c-1-0.4-1.9-0.8-2.8-1.3c-0.4-0.3-0.8-0.6-1.2-1
		c-0.3-0.4-0.6-0.8-0.8-1.3c-0.4-0.9-0.7-1.8-0.9-2.7c-0.2-1.2-0.3-2.5-0.3-3.7c0.2-2.9,0.8-5.7,1.7-8.4c1.3-3.8,3-7.5,4.9-11.1
		c2-3.8,4.2-7.4,6.5-11C408.2,347.1,409.9,344.5,411.6,341.9L411.6,341.9z M395,308.5c-0.1,0-0.2,0-0.2-0.1
		C394.9,308.5,394.9,308.5,395,308.5L395,308.5z M283.7,261.3c-0.1,0.1-0.2,0.2-0.3,0.2C283.5,261.5,283.6,261.4,283.7,261.3
		L283.7,261.3z M324.7,295.4c0,0.1,0,0.2,0.1,0.2C324.8,295.5,324.8,295.5,324.7,295.4L324.7,295.4z M305.5,287
		c-0.1,0.2-0.2,0.4-0.3,0.5C305.3,287.4,305.4,287.2,305.5,287L305.5,287z M219.8,161.8C219.8,161.8,219.8,161.8,219.8,161.8
		C219.8,161.8,219.8,161.8,219.8,161.8L219.8,161.8z"/>
	<path class="st0" d="M790.1,231.1c-1.3-0.4-2.5-0.7-3.8-1c-2.2-0.4-4.4-0.5-6.7-0.6c-2.3-0.1-4.6-0.1-6.9-0.2
		c-1.5,0-2.9,0.1-4.4,0.1c-2.8,0.1-5.5,0.1-8.3,0.2c-4.2,0.2-8.4,0.4-12.6,0.6c-6.4,0.3-12.8,0.5-19.2,0.7c-1.9,0.1-3.8,0.1-5.7,0.2
		c-4.2,0-8.4,0-12.6,0.1c-1.7,0-3.5,0-5.2,0c-0.5,0-1.1,0-1.6,0c-3.9-0.2-7.8-0.4-11.7-0.6c-2-0.1-4-0.2-6-0.3
		c-3.3-0.2-6.6-0.5-9.8-0.7c-2-0.1-4-0.2-6-0.3c-0.9-0.1-1.8-0.1-2.7-0.1c-0.1,0-0.1,0-0.2,0c2.5-5.5,4.7-11.1,6.6-16.8
		c1.2-4,2.2-8,3.2-12c0.3-1.1,0.5-2.3,0.8-3.4c0.2-0.8,0.3-1.5,0.5-2.3c0.4-1.9,0.9-4.1,0-6c-0.2-0.6-0.6-1.2-1.1-1.7
		c-0.5-0.5-1.2-0.8-1.9-0.9c-0.7-0.1-1.3-0.1-2,0.2c-0.3,0.2-0.6,0.3-0.9,0.4c-0.6,0.4-1,0.9-1.3,1.5c-0.6,0.9-1.1,1.8-1.6,2.7
		c-0.5,0.9-0.9,1.9-1.2,2.9c-0.4,1.1-0.9,2.2-1.3,3.4c-0.7,1.8-1.3,3.7-2,5.5c-0.5,1.4-1,2.7-1.5,4.1c-0.5,1.4-0.9,2.8-1.3,4.2
		c-1,3.5-2.1,7.1-3.1,10.6c-0.2,0.8-0.4,1.7-0.6,2.6c-0.4,1.7-0.7,3.3-1.1,5c-0.6,0-1.1,0-1.7,0c-1.4,0-2.8,0-4.2,0
		c-0.9,0-1.9,0.2-2.8,0.2c-3.8,0.3-7.5,0.7-11.2,1.1c-1.1,0.1-2.2,0.4-3.3,0.6c-2.1,0.4-4.2,0.7-6.4,1.1c-6,1.1-12,2.5-18,3.5
		c-0.4,0.1-0.9,0.1-1.3,0.1c0,0,0,0,0,0c-0.4,0-0.8-0.1-1.3-0.2c0,0,0,0,0,0c0.2,0.1,0.6,0.2,0.8,0.3c0.4,0.1,0.8,0.2,1.3,0.2
		c0.5,0,1,0,1.5,0c1,0,2,0,3-0.1c1.6,0,3.3-0.1,4.9-0.2c2.8-0.1,5.5-0.4,8.3-0.5c3.5-0.2,7.1-0.4,10.6-0.6c0.9-0.1,1.9,0,2.9,0
		c2.2,0,4.5,0,6.7,0c1.5,0,3,0,4.6,0c1.2,0.1,2.4,0.2,3.6,0.2c-0.2,0.4-0.4,0.7-0.6,1.1c-0.5,0.9-1.1,1.9-1.6,2.8
		c-1.1,2-2.2,3.9-3.3,5.9c-1,1.7-1.9,3.4-2.9,5.1c-0.3,0.5-0.6,1.1-0.9,1.6c-2.1,3.4-4.2,6.7-6.3,10.1c-1,1.6-2,3.1-2.9,4.7
		c-2.9,4.2-5.7,8.3-8.9,12.3c-1.6,2.1-3.4,4-5.1,6c-1.6,1.8-3.3,3.5-5.1,5.2c-2,1.7-4.2,3.2-6.5,4.5c-1.4,0.7-2.9,1.2-4.4,1.5
		c-1,0.2-2,0.3-3.1,0.3c-0.5-0.1-1-0.1-1.5-0.3c-0.5-0.2-1-0.5-1.5-0.8c-0.5-0.4-0.9-0.7-1.4-1.2c-0.4-0.5-0.7-1-1-1.5
		c-0.4-1-0.8-2-1.1-3c-0.3-2-0.4-4.1-0.4-6.2c0.3-4.8,1.4-9.6,2.9-14.2c1.2-3.6,2.7-7.1,4.4-10.6c1.6-3.4,3.4-6.7,5.4-9.9
		c0.5-0.7,1-1.4,1.5-2.1c0.7-0.8,1.3-1.6,2-2.4c0.7-0.9,1.1-1.8,1-2.9c-0.1-1-0.6-2-1.3-2.7c-0.8-0.7-1.9-1.1-2.9-1
		c-0.3,0.1-0.7,0.1-1,0.2c-0.7,0.2-1.2,0.6-1.7,1.1c-0.7,0.6-1.3,1.4-1.8,2.2c-0.1,0.1-0.1,0.2-0.2,0.3c-0.5,0.6-1,1.1-1.5,1.7
		c-1.1,1.2-2.2,2.5-3.3,3.7c-1.8,2-3.6,4.1-5.4,6.1c-4.7,5.1-9.4,10.3-14.1,15.4c-1.9,2.1-3.9,4.2-5.8,6.3c-1.8,2-3.7,3.9-5.6,5.8
		c-1.7,1.7-3.5,3.3-5.3,4.8c-2.2,1.9-4.5,3.8-6.9,5.5c-2.3,1.6-4.7,3-7.1,4.2c-2.9,1.4-6,2.6-9.1,3.4c-2.2,0.4-4.4,0.5-6.6,0.5
		c-1.7-0.1-3.4-0.4-5.1-0.9c-1-0.4-2-0.9-3-1.4c-1.3-1-2.5-2.1-3.7-3.3c-1-1.2-1.8-2.4-2.5-3.7c-1-2.2-1.7-4.4-2.2-6.8
		c-0.4-2.1-0.6-4.2-0.7-6.4c-0.1-2.1,0-4.2,0.1-6.4c0.5-9.8,2.4-19.4,5.4-28.8c3.1-9.2,7.2-18,12.4-26.2c1.9-2.9,4-5.7,6.3-8.3
		c2.1-2.5,4.4-4.8,6.9-7c4-3.5,8.5-6.5,13.2-9c2.8-1.4,5.8-2.5,8.8-3.2c0.8-0.1,1.6-0.2,2.4-0.4c1-0.1,2-0.3,2.9-0.6
		c1.2-0.4,2.3-1.3,2.8-2.5c0.7-1.4,0.5-3-0.1-4.4c-0.4-0.9-0.8-1.7-1.3-2.5c-0.5-0.9-1.3-1.7-2-2.4c-0.4-0.4-1-0.7-1.5-0.9
		c-0.6-0.2-1.1-0.4-1.7-0.5c-1.3-0.2-2.5,0-3.8,0.3c-0.9,0.2-1.7,0.5-2.6,0.8c-1,0.3-1.9,0.6-2.8,0.9c-2.1,0.7-4.2,1.7-6.2,2.6
		c-4.1,1.9-7.9,4.3-11.6,7c-3.7,2.6-7.1,5.5-10.5,8.5c-3.3,3-6.5,6.1-9.6,9.4c-6.4,6.7-12.1,13.9-17.6,21.2c-3.2,4.3-6.3,8.6-9.3,13
		c-2.9,4.4-5.7,8.9-8.7,13.3c0.1-0.1,0.2-0.2,0.2-0.4c-2.8,4.3-5.8,8.4-8.7,12.6c-2.8,4.1-5.7,8.1-9.4,11.4c0,0,0,0,0.1-0.1
		c-1.4,1.2-2.8,2.3-4.4,3.1c-0.5,0.2-0.9,0.4-1.4,0.5c-0.2,0-0.4,0.1-0.6,0c-0.1,0-0.2,0-0.3,0c-0.1,0-0.1-0.1-0.2-0.1
		c-0.1-0.1-0.2-0.1-0.2-0.2c-0.9-1.1-1.4-2.4-2.1-3.6c0,0,0,0,0,0c-0.1-0.3-0.3-0.6-0.4-0.8c0,0,0,0,0,0c0.4,0.9,0.7,1.8,1.1,2.7
		c0.3,0.6,0.5,1.2,0.8,1.7c0.3,0.5,0.6,0.8,1.2,0.9c1.2,0.2,2.5-0.5,3.5-1c1.7-0.8,3.3-2,4.7-3.2c3.1-2.5,5.7-5.6,8.2-8.7
		c1.3-1.6,2.5-3.1,3.7-4.7c1.4-1.8,2.9-3.6,4.3-5.4c5.6-7.2,10.6-14.9,16.2-22.2c2.8-3.7,5.7-7.3,8.5-10.9c2.9-3.6,5.9-7.2,9-10.6
		c4.4-4.9,9.1-9.6,14.1-13.9c2.8-2.5,5.8-4.8,8.8-7c3.2-2.3,6.5-4.4,10-6.2c2.2-1.1,4.4-2,6.7-2.8c2.1-0.8,4.3-1.3,6.5-1.8
		c0.4-0.1,0.8-0.1,1.1-0.1c0.2,0,0.4,0.1,0.6,0.1c0.1,0.1,0.1,0.1,0.2,0.2c-1,0.1-2,0.3-3,0.5c-2.1,0.5-4.2,1.1-6.3,2
		c-4.2,1.7-8.3,4-12,6.6c-3.8,2.6-7.2,5.6-10.5,8.8c-3.2,3.2-6,6.7-8.6,10.3c-5.4,7.6-9.7,15.8-13,24.5c-3.3,8.6-5.7,17.5-7,26.6
		c-0.6,4.5-0.9,9.1-1.1,13.7c-0.1,2-0.1,4.1,0.1,6.1c0.2,2.3,0.6,4.6,1.1,6.8c0.9,4,2.5,7.9,5.1,11.2c2.6,3.3,6,6.3,9.9,7.9
		c4.1,1.6,8.7,2,13.1,1.7c4.2-0.3,8.3-1.6,12.1-3.3c3.9-1.7,7.8-3.8,11.3-6.3c3.6-2.6,6.9-5.6,10.2-8.5c1.6-1.4,3.1-2.9,4.6-4.4
		c1.6-1.7,3.2-3.4,4.8-5.1c1.6-1.7,3.1-3.4,4.7-5.1c1.9-2,3.7-4.1,5.6-6.1c-0.2,0.5-0.3,1-0.5,1.5c-0.7,2.3-1.3,4.6-1.7,6.9
		c-0.8,4.4-1.2,8.9-0.6,13.4c0.3,2.1,0.9,4.1,1.8,6c0.5,1,1,2,1.7,3c0.7,1,1.7,1.9,2.7,2.7c1.8,1.4,3.9,2.4,6.1,2.8
		c1.1,0.2,2.3,0.2,3.4,0.2c1.3,0,2.6-0.3,3.9-0.6c4.2-0.9,7.9-3,11.3-5.5c3.6-2.6,6.7-5.9,9.6-9.3c2.9-3.4,5.7-6.8,8.3-10.5
		c1.3-1.8,2.5-3.6,3.7-5.3c0.7-1,1.4-2,2-3c2-3.3,4.1-6.5,6.1-9.8c0.9-1.4,1.8-2.9,2.7-4.3c-0.5,4.4-0.8,8.8-1,13.3
		c-0.2,4.4-0.1,8.8,0.6,13.1c0.3,2.1,0.8,4.3,1.6,6.3c0.4,1,0.8,2,1.3,3c0.5,1,1.3,2,2.2,2.6c0.6,0.4,1,0.7,1.6,1
		c0.6,0.3,1.2,0.4,1.8,0.6c0.5,0.1,1.3,0.2,1.8,0.2c0.4,0,0.9,0,1.3-0.1c2.4-0.4,4.6-1.5,6.6-2.8c1-0.6,1.8-1.4,2.7-2.2
		c0.7-0.7,1.4-1.3,2.1-2c1.5-1.6,3-3.2,4.4-4.9c2.1-2.7,4-5.5,5.9-8.3c0.1,1,0.3,2,0.5,2.9c0.4,2.2,1,4.3,1.8,6.3
		c0.8,2.1,1.9,4.1,3.2,6.1c0.5,0.7,1,1.4,1.6,2c0.7,0.7,1.5,1.2,2.4,1.8c0.8,0.5,1.8,0.9,2.8,1.1c0.9,0.2,1.9,0.3,2.8,0.3
		c0.6,0,1.2-0.1,1.8-0.2c1-0.2,1.9-0.4,2.8-0.7c1.6-0.6,3-1.5,4.4-2.5c1.2-1,2.4-2.1,3.5-3.2c1.2-1.2,2.2-2.6,3.3-4
		c1.5-2,2.9-4,4.3-6c0.2,5.2,0.4,10.5,0.6,15.7c-1.9,1.6-3.7,3.2-5.6,4.8c-4.8,4.1-9.4,8.4-14.1,12.6c-0.6,0.5-1.2,1.1-1.7,1.6
		c-1.6,1.5-3.2,3-4.8,4.5c-1.8,1.7-3.6,3.4-5.4,5.1c-3,2.9-6,5.7-9,8.6c-1,1-2.1,2-3.1,3c-3.3,3.2-6.6,6.3-9.7,9.8
		c-1.5,1.6-2.9,3.3-4.3,5c-1.5,1.9-2.9,3.9-4.1,6.1c-1,1.8-1.8,3.7-2.4,5.7c-0.6,2-0.8,4.1-0.5,6.2c0.3,2,0.9,4.1,2.2,5.7
		c1.4,1.8,3.4,3,5.5,3.8c2.1,0.8,4.2,1.2,6.4,1.3c2.4,0.1,4.8,0.1,7.2-0.1c2.2-0.2,4.4-0.7,6.6-1.2c2.2-0.5,4.4-1.1,6.6-1.8
		c2-0.7,3.9-1.4,5.8-2.3c2.2-0.9,4.4-2,6.5-3.1c3.9-2.1,7.5-5.1,10.6-8.2c3.2-3.2,5.6-7.1,7.5-11.1c3.8-8.2,5.8-17.2,6.7-26.2
		c0.5-4.6,0.7-9.3,0.8-13.9c0.1-2.2,0.1-4.4,0-6.5c0-1.8,0-3.7-0.1-5.5c0-0.4,0-0.7,0-1.1c1.7-1.5,3.5-3,5.2-4.5
		c4.9-4.3,9.8-8.6,14.7-12.9c1.8-1.6,3.6-3.1,5.4-4.6c3-2.5,5.9-5.1,8.9-7.6c0.5-0.4,1.1-0.9,1.6-1.3c1.7-1.3,3.3-2.6,5-4
		c2.2-1.7,4.3-3.5,6.5-5.1c2.6-1.9,5.2-3.9,7.9-5.7c2.8-2,5.7-4,8.5-6c1.1-0.8,2.2-1.6,3.1-2.5c0.8-0.8,1.5-1.5,2-2.5
		c0-0.1,0.1-0.3,0.1-0.4c0.2-0.4,0.3-0.8,0.3-1.2c0.1-0.8,0-1.6-0.3-2.4c-0.1-0.5-0.5-1-0.8-1.4c-0.3-0.4-0.7-0.8-1.1-1.2
		c-0.8-0.7-1.8-1.3-2.7-1.9c-0.2-0.1-0.5-0.3-0.7-0.4C791.5,231.6,790.8,231.3,790.1,231.1L790.1,231.1z M791.6,237.7
		c0,0.1-0.1,0.2-0.1,0.3C791.6,237.9,791.6,237.8,791.6,237.7L791.6,237.7z M790.7,238.6c0,0,0.1,0.1,0.1,0.1
		c-0.8,0.6-1.6,1.1-2.4,1.7c-0.9,0.6-1.8,1.2-2.7,1.9c-1.2,0.8-2.3,1.6-3.5,2.4c-2.7,1.8-5.3,3.7-7.9,5.5c-1.2,0.9-2.4,1.7-3.6,2.6
		c-1,0.7-1.9,1.5-2.8,2.2c-2.9,2.3-5.9,4.6-8.8,6.9c-0.6,0.5-1.3,1.1-1.9,1.6c-1.6,1.4-3.2,2.7-4.8,4.1c-2.5,2.1-5,4.3-7.5,6.4
		c-2.3,1.9-4.4,3.9-6.7,5.8c-2.7,2.4-5.5,4.8-8.2,7.2c-0.6,0.5-1.2,1.1-1.9,1.6c-0.1-2.6-0.2-5.2-0.3-7.8c-0.2-4.9-0.5-9.7-0.5-14.6
		c1.4-3.1,2.5-6.4,3.5-9.7c0.6-2,1-3.9,1.4-5.9c0.1-0.6,0.3-1.3,0.4-1.9c0.2-0.9,0.3-1.8,0.4-2.7c0-0.9-0.3-1.8-0.5-2.8
		c-0.2-0.9-1.1-1.8-1.9-2.2c-0.6-0.3-1.3-0.4-2-0.4c-0.6,0.1-1.2,0.3-1.8,0.6c-0.4,0.2-0.7,0.4-1.1,0.6c-0.1,0.1-0.2,0.2-0.3,0.2
		c-0.4,0.3-0.7,0.6-1,1c-0.7,0.9-1.2,1.9-1.7,2.9c-0.4,1.1-0.7,2.2-1.1,3.3c-0.4,1.2-0.6,2.4-0.8,3.6c-0.6,3.4-0.8,6.8-0.9,10.3
		c-0.4,0.9-0.8,1.8-1.3,2.7c-1.5,3-3.2,6-5,8.8c-1.3,1.9-2.7,3.7-4,5.6c-0.7,1-1.5,1.9-2.3,2.8c-0.7,0.8-1.5,1.5-2.3,2.3
		c-0.8,0.7-1.6,1.3-2.5,1.8c-0.6,0.2-1.2,0.4-1.8,0.6c-0.4,0.1-0.8,0.1-1.2,0.1c-0.2,0-0.3-0.1-0.5-0.1c-0.3-0.1-0.6-0.3-0.9-0.4
		c-0.2-0.1-0.3-0.2-0.4-0.4c-0.8-1-1.5-2.2-2.1-3.3c-1-2.1-1.7-4.3-2.2-6.5c-0.7-3.6-0.9-7.2-0.7-10.8c0.1-1.1,0.2-2.3,0.3-3.4
		c1.6-2.6,3.2-5.3,4.8-8c1.5-2.5,2.9-5.1,4.3-7.7c0.9-1.7,1.7-3.3,2.5-5c0-0.1,0.1-0.2,0.1-0.3c0.3-0.6,0.4-1.3,0.4-2
		c0-0.6-0.1-1.3-0.4-1.8c6.6,0,13.3-0.1,19.9-0.1c0.7,0,1.4-0.1,2.1-0.1c2-0.1,3.9-0.1,5.9-0.2c4-0.2,8-0.3,12.1-0.5
		c5.4-0.2,10.7-0.5,16.1-0.8c2.1-0.1,4.3-0.1,6.4-0.2c4.3-0.1,8.5-0.2,12.8,0c2.7,0.2,5.5,0.4,8.1,1.1
		C788.9,237.7,789.8,238.1,790.7,238.6L790.7,238.6z M669.7,235.9c2.2,0.2,4.4,0.4,6.6,0.6c3,0.3,6,0.5,9,0.7
		c3.6,0.2,7.3,0.3,10.9,0.5c0.1,0,0.1,0,0.2,0c-0.5,0.5-1,1-1.5,1.6c-0.7,0.8-1.3,1.6-1.8,2.5c-0.7,1.1-1.4,2.1-2.1,3.2
		c-1.2,2-2.2,4.2-3.1,6.4c-0.8,2.2-1.5,4.4-2,6.7c-0.2,0.7-0.3,1.5-0.4,2.2c-0.9,1.5-1.9,3-2.8,4.4c-1.7,2.7-3.5,5.3-5.2,7.9
		c0,0.1-0.1,0.1-0.1,0.2c-1.6,2.3-3.2,4.5-4.9,6.7c-1.5,1.9-3.2,3.7-5,5.3c-1,0.8-2.1,1.6-3.2,2.2c-0.5,0.2-1.1,0.5-1.7,0.6
		c-0.1,0-0.2,0-0.4,0c0,0-0.1,0-0.1,0c-0.1,0-0.2-0.1-0.2-0.1c0-0.1-0.1-0.1-0.1-0.2c-0.7-1.6-1.3-3.3-1.7-5c-1-5.5-0.9-11-0.7-16.6
		c0.1-1.9,0.3-3.8,0.4-5.7c0.2-1.8,0.3-3.7,0.6-5.5c0.2-1.4,0.4-2.8,0.6-4.2c0.5-3.5,1.1-7,1.6-10.6c0.2-1,0.4-2,0.6-2.9
		c0.1-0.5,0.2-1,0.3-1.4c0,0,0,0,0,0c1.4,0.1,2.7,0.1,4.1,0.2c-0.3,0-0.6,0-0.8,0C667.7,235.7,668.7,235.8,669.7,235.9L669.7,235.9z
		 M570,179.2c-0.1,0-0.1,0-0.2-0.1C569.9,179.1,570,179.2,570,179.2L570,179.2z M570.4,179.4C570.5,179.5,570.5,179.5,570.4,179.4
		C570.5,179.5,570.5,179.5,570.4,179.4C570.5,179.5,570.5,179.5,570.4,179.4L570.4,179.4z M555.8,183.7c-0.1,0.1-0.2,0.1-0.3,0.2
		C555.6,183.8,555.7,183.8,555.8,183.7L555.8,183.7z M608,235.8C608,235.8,608,235.8,608,235.8C608,235.8,608,235.8,608,235.8
		L608,235.8z M659.3,265.9c0,0.2,0,0.5,0,0.7C659.2,266.4,659.2,266.2,659.3,265.9L659.3,265.9z M721,303.9c0,3.7,0,7.3-0.2,10.9
		c-0.5,8.7-1.4,17.4-4.1,25.8c-1.4,4-3,7.9-5.2,11.5c-1.8,2.5-3.8,4.8-6.1,6.9c-1.2,1-2.5,2-3.8,2.9c-1.3,0.9-2.8,1.7-4.2,2.5
		c-5.4,2.6-11.1,4.7-17,6c-1.6,0.3-3.1,0.6-4.7,0.7c-1.7,0.2-3.5,0.2-5.2,0.1c-1.2-0.1-2.5-0.3-3.7-0.6c-0.8-0.3-1.6-0.7-2.3-1.1
		c-0.2-0.2-0.4-0.3-0.6-0.5c-0.1-0.2-0.2-0.3-0.3-0.5c-0.2-0.4-0.3-0.9-0.4-1.3c-0.1-0.6-0.1-1.2-0.2-1.8c0.1-0.8,0.3-1.7,0.5-2.5
		c0.8-2.1,1.8-4.1,3-6c1.1-1.6,2.4-3.2,3.7-4.7c1.5-1.8,3.1-3.6,4.8-5.3c2.8-2.9,5.7-5.7,8.7-8.5c2.6-2.5,5.2-4.9,7.8-7.4
		c4.7-4.4,9.4-8.9,14.1-13.3c1.9-1.8,4-3.6,6-5.4c2.5-2.2,5-4.5,7.5-6.7C719.6,305.1,720.3,304.5,721,303.9L721,303.9z M534.9,214.1
		c0,0.1-0.1,0.1-0.1,0.2C534.8,214.3,534.8,214.2,534.9,214.1L534.9,214.1z M720.9,314c0,0.1,0,0.3,0,0.4
		C720.9,314.3,720.9,314.2,720.9,314L720.9,314z M516.8,268.8c0,0.2,0,0.4,0,0.5C516.8,269.2,516.8,269,516.8,268.8L516.8,268.8z
		 M465,277.3C465,277.3,465,277.3,465,277.3C465,277.3,465,277.3,465,277.3L465,277.3z M463.7,277C463.7,277,463.7,277,463.7,277
		C463.7,277,463.7,277,463.7,277L463.7,277z M461.7,273.4C461.6,273.4,461.6,273.4,461.7,273.4C461.6,273.4,461.6,273.4,461.7,273.4
		L461.7,273.4z M470.7,273.7C470.7,273.7,470.8,273.6,470.7,273.7C470.8,273.6,470.7,273.7,470.7,273.7L470.7,273.7z"/>
</g>
</svg>
