<?xml version="1.0" encoding="utf-8"?>
<!-- Generator: Adobe Illustrator 19.2.1, SVG Export Plug-In . SVG Version: 6.00 Build 0)  -->
<svg version="1.1" id="Layer_1" xmlns="http://www.w3.org/2000/svg" xmlns:xlink="http://www.w3.org/1999/xlink" x="0px" y="0px"
	 viewBox="0 0 960 560" style="enable-background:new 0 0 960 560;" xml:space="preserve">
<style type="text/css">
	.st0{fill:#070707;}
</style>
<g>
	<path class="st0" d="M374,190.8c-2.7,0.4-5.2,1.3-7.6,2.4c-2.7,1.3-5.2,3.1-7.6,4.8c-4.6,3.4-8.7,7.4-12.5,11.6
		c-2,2.2-3.8,4.4-5.6,6.7c-1.9,2.4-3.8,4.8-5.6,7.2c-1.7,2.2-3.2,4.5-4.7,6.8c-1.6,2.4-2.8,5-3.6,7.8c-1.1,4-0.6,8.4,0.6,12.4
		c1.3,4.1,3.8,7.8,6.8,10.9c0.4,0.4,0.8,0.8,1.2,1.1c-2.1,2.3-4.2,4.6-6.3,6.9c-4.5,4.9-9,9.8-13.5,14.6c-4.2,4.5-8.4,8.9-12.3,13.6
		c-2.3,2.8-4.5,5.6-6.6,8.6c-2.7,3.7-5.2,7.5-7.6,11.4c0,0,0,0,0,0c4.8-3.6,9.5-7.3,14-11.3c1.9-1.7,3.8-3.4,5.6-5.2
		c2.2-2.2,4.3-4.5,6.4-6.8c4.8-5.2,9.6-10.4,14.2-15.7c3.6-4.1,7.2-8.1,10.9-12.2c0.6,0.5,1.3,0.9,1.9,1.3c2,1.4,4.1,2.8,6,4.2
		c2.8,2.2,5.3,4.7,7.6,7.5c1.3,1.8,2.4,3.7,3.4,5.8c0.7,1.9,1.2,3.7,1.5,5.7c0.3,2.6,0.3,5.1,0,7.6c-0.6,3.7-1.6,7.3-3,10.8
		c-1.2,2.9-2.6,5.8-4.5,8.3c-1.4,1.7-3,3.2-4.7,4.5c-1.2,0.9-2.3,1.7-3.6,2.4c-1.4,0.9-2.9,1.6-4.5,2.2c-1,0.4-1.9,0.8-2.9,1.1
		c-2.2-1.2-4.3-2.6-6.3-4.1c-2.1-1.6-4.1-3.3-6.1-5c-2.2-1.9-4.5-3.7-6.9-5.4c-2.1-1.5-4.5-2.8-6.9-3.8c-1.2-0.5-2.6-0.6-3.8-0.6
		c-1.6,0-3,0.6-4.4,1.4c-2.3,1.4-4.4,3.2-6.3,5.2c-0.9,0.9-1.7,2-2.4,3.1c-0.9,1.2-1.5,2.6-2,3.9c-0.5,1.2-0.6,2.6-0.8,3.9
		c-0.2,1.3,0,2.6,0.2,3.9c0.2,1.2,0.7,2.4,1.3,3.5c0.3,0.5,0.7,1.1,1.1,1.6c0.5,0.6,1.1,1.2,1.8,1.7c1.1,0.8,2.2,1.3,3.4,1.7
		c1.2,0.5,2.5,0.6,3.8,0.7c1.3,0.1,2.7,0,4,0c1.7-0.1,3.4-0.3,5.1-0.5c6-0.8,11.9-2,17.8-3.4c2.4-0.6,4.8-1.3,7.1-2.1
		c0.9,0.4,1.8,0.7,2.6,1.1c2.8,1.1,5.7,1.9,8.7,2.3c2.7,0.4,5.4,0.5,8.1,0.1c2.9-0.4,5.5-1.4,8.1-2.6c2.4-1.2,4.5-2.7,6.6-4.3
		c2.3-1.8,4.2-4,6.1-6.3c1.8-2.1,3.4-4.2,5-6.4c1.2-1.6,2.3-3.4,3.4-5.1c-0.1,1.3-0.1,2.6-0.1,3.8c0,1.3,0.2,2.7,0.3,4
		c0.1,1.4,0.4,2.7,0.8,4c0.9,2.8,2.9,5.1,5.5,6.4c1.1,0.6,2.4,1,3.7,1.2c0.7,0.1,1.4,0.2,2.2,0.2c0.7,0,1.5-0.1,2.2-0.2
		c3-0.4,5.7-1.6,8.3-3c1.3-0.7,2.5-1.4,3.7-2.2c1.2-0.8,2.4-1.6,3.5-2.5c1.7-1.3,3.5-2.7,5.1-4.1c1.6-1.4,3.2-2.7,4.8-4.2
		c1.6-1.5,3.2-3,4.8-4.5c3.5-3.3,7.2-6.6,10.8-9.8c-0.1,0.4-0.3,0.9-0.4,1.3c-1.1,3.6-2.4,7.2-2.8,10.9c-0.3,2.7,0.2,5.4,1.1,7.9
		c0.5,1.2,1,2.3,1.8,3.3c0.4,0.6,0.9,1.1,1.4,1.6c0.6,0.7,1.4,1.2,2.2,1.7c0.5,0.3,1.2,0.6,1.8,0.8c0.6,0.2,1.1,0.4,1.7,0.5
		c1.2,0.3,2.5,0.4,3.8,0.4c1.3,0,2.7-0.3,4-0.5c1.5-0.3,3-1,4.4-1.6c2.5-1.1,4.7-2.8,6.8-4.5c2.3-1.8,4.3-4,6.3-6.1
		c2.1-2.4,4-4.9,5.7-7.5c-0.2,2.2-0.4,4.3-0.6,6.5c-0.1,2.1-0.1,4.2,0.4,6.2c0.2,0.9,0.7,1.9,1.2,2.6c0.6,0.7,0.9,1,1.6,1.6
		c0.4,0.3,0.9,0.5,1.3,0.7c2.6,1.2,5.6,1.4,8.4,1.1c5.9-0.7,11-4,15.4-7.7c2-1.6,3.8-3.4,5.5-5.3c0,0.1-0.1,0.3-0.1,0.4
		c-0.8,2.7-1.5,5.5-2.1,8.3c-1,4.3-1.8,8.6-2.4,12.9c-1.3,8.7-1.7,17.5-0.5,26.2c0-0.3-0.1-0.6-0.1-0.9c0.1,0.7,0.1,1.4,0.2,2.1
		c0.1,1,0.3,1.8,0.7,2.7c0.3,0.7,0.9,1.5,1.6,1.9c0.7,0.4,1.6,0.6,2.4,0.5c0.6,0,1.2-0.2,1.7-0.5c0.7-0.4,1.4-1.2,1.5-2
		c0.4-2,0.7-4.1,1-6.1c0.2-1.3,0.4-2.6,0.6-3.9c0,0.1,0,0.1,0,0.2c0.2-1.7,0.5-3.4,0.7-5.1c0.6-4.3,1.3-8.7,2-13
		c0.6-3.5,1.2-7.1,1.8-10.6c1.5-8.8,3-17.6,4.7-26.4c0.4-1.9,0.7-3.7,1.1-5.6c0.5-2.1,1-4.3,1.5-6.4c0.2-0.9,0.1-1.9-0.4-2.7
		c-0.1-0.1-0.1-0.2-0.2-0.3c2.5-5.4,5.3-10.5,8.8-15.3c0.6-0.8,1.3-1.5,2-2.1c0.2-0.2,0.5-0.3,0.7-0.5c0.2-0.1,0.3-0.1,0.5-0.1
		c0.2,0,0.4,0,0.6,0c0.2,0,0.5,0.1,0.7,0.2c0.8,0.4,1.5,0.8,2.2,1.2c0.8,0.7,1.5,1.4,2.2,2.2c0.7,0.9,1.2,1.9,1.7,2.9
		c1,2.4,1.5,5,1.9,7.5c0.3,2.7,0.3,5.4,0,8.1c-0.3,2.2-0.9,4.2-1.7,6.3c-0.8,1.7-1.7,3.3-2.8,4.8c-0.7,0.8-1.4,1.5-2.1,2.2
		c-0.8,0.6-1.7,1.1-2.6,1.5c-1.5,0.6-3.1,0.9-4.7,1.2c-0.7,0.1-1.3,0.1-2,0c-1.1-0.2-2.1-0.5-3.2-0.9c-1.5-0.5-3.3,0.3-4.1,1.6
		c-0.8,1.4-0.6,3.2,0.6,4.4c1.4,1.3,3.1,1.7,5,1.7c0.2,0,0.3,0.1,0.5,0.1c1.4,0.3,2.8,0.4,4.3,0.5c3.1,0.2,6.3-0.1,9.3-0.6
		c2.9-0.5,5.6-1.5,8.3-2.7c2.7-1.2,5.3-2.7,7.8-4.3c2.3-1.5,4.4-3.2,6.5-5c2.2-1.9,4.2-4,6.1-6.3c1.9-2.3,3.7-4.7,5.3-7.2
		c-0.1,2.3-0.2,4.5-0.2,6.8c0,2.9,0.2,5.7,0.5,8.6c0.3,2.9,1,5.7,2.5,8.2c1.3,2.2,3.9,3.3,6.4,3.2c0.7,0,1.3-0.2,2-0.3
		c0.6-0.1,1.2-0.4,1.7-0.6c1.5-0.6,2.8-1.3,4-2.2c2.8-2,5.1-4.4,7.3-7c2.2-2.7,4-5.7,5.5-8.9c1.6-3.5,2.8-7.2,3.7-10.9
		c1.4,4.2,2.3,8.5,2.9,12.9c0.3,2.4,0.4,4.8,0.6,7.2c0.1,1.4,0.1,2.8,0.2,4.2c0.1,2,0.2,4,0.1,5.9c-1.4,0.1-2.8,0.2-4.2,0.3
		c-0.6,0-1.2,0.2-1.7,0.5c-0.8,0.4-1.3,1.2-1.6,2c-0.4,1.4,0.2,3.2,1.6,3.9c0.4,0.2,0.7,0.4,1.1,0.5c0.5,0.1,1,0.1,1.5,0.1
		c0.4,0,0.9-0.1,1.3-0.1c1.1-0.1,2.3-0.2,3.4-0.5c1.3-0.1,2.7-0.3,4-0.4c3.4-0.4,6.8-1.2,10.1-2c6.3-1.6,12.4-3.7,18.3-6.5
		c2.7-1.3,5.2-2.9,7.6-4.6c2.5-1.9,4.9-4,6.9-6.4c1.6-1.9,2.7-4.2,3.7-6.5c0.7-1.8,1.3-3.7,1.7-5.7c0,0,0,0,0,0
		c-1,1.7-2,3.4-3.2,4.9c-0.7,0.9-1.5,1.8-2.3,2.7c-0.8,0.9-1.7,1.7-2.6,2.4c-2.5,1.8-5.2,3.4-7.9,4.8c-2.6,1.4-5.4,2.6-8.1,3.8
		c-3.7,1.5-7.6,2.7-11.4,3.8c-3.8,1-7.7,1.9-11.6,2.5c0-1.1-0.1-2.2-0.1-3.3c-0.1-3-0.2-6-0.4-9c-0.1-1.7-0.2-3.3-0.4-5
		c-0.5-4.4-1.2-8.6-2.4-12.9c-1-3.8-2.5-7.4-4.2-10.9c-0.9-1.8-1.9-3.5-2.8-5.2c-0.1-0.2-0.2-0.4-0.3-0.6c-0.4-0.8-1.3-1.5-2.2-1.7
		c-1-0.3-2-0.1-2.8,0.4c-0.8,0.5-1.4,1.3-1.7,2.2c-0.3,1-0.1,1.9,0.4,2.8c0.1,0.1,0.1,0.3,0.2,0.4c0.4,1.2,0.7,2.5,1,3.7
		c0.1,0.8,0.1,1.6,0.1,2.3c0,0.9-0.1,1.7-0.1,2.6c-0.7,4-1.9,7.9-3.4,11.6c-1.3,2.8-2.8,5.5-4.6,8c-0.9,1.1-1.8,2.1-2.7,3.2
		c-1.1,1.2-2.3,2.3-3.6,3.3c-0.4,0.3-0.9,0.6-1.3,0.9c-0.5,0.4-1.1,0.6-1.7,0.9c-0.5,0.2-1.1,0.4-1.6,0.5c-0.1,0-0.3,0-0.4,0
		c-0.3-0.1-0.5-0.1-0.8-0.2c0,0-0.1,0-0.1-0.1c-0.1-0.1-0.2-0.2-0.3-0.3c-0.4-0.6-0.8-1.2-1.1-1.9c-0.5-1.4-0.8-2.8-1-4.3
		c-0.5-3.9-0.4-7.8-0.2-11.7c0.2-4.1,0.7-8.2,1.2-12.3c0,0,0,0.1,0,0.1c0.1-0.6,0.2-1.2,0.3-1.8c1.9-4,3.7-8.1,5.3-12.2
		c0.9-2.3,1.8-4.7,2.6-7.1c0.6-1.6,1.2-3.2,1.7-4.8c0.7-2.5,1.5-5.1,2.2-7.6c0.4-1.5,0.7-3.1,1.1-4.6c0.4-1.6,0.7-3.3,1-4.9
		c0.4-1.9,0.7-3.8,1-5.8c0.1-0.8,0.3-1.6,0.4-2.4c0.3-1.5,0.8-3,0.6-4.6c0-0.5-0.1-1-0.4-1.5c-0.3-0.4-0.6-0.8-1.1-1.1
		c-1-0.6-2-0.5-3,0c-0.5,0.3-1.2,0.6-1.6,1.1c-0.4,0.5-0.8,1-1.2,1.6c-0.7,1-1.2,2.3-1.7,3.4c-1.3,2.8-2.3,5.6-3.3,8.5
		c-0.9,2.7-1.7,5.4-2.5,8.1c-0.4,1.4-0.7,2.7-1.1,4.1c-0.2,1-0.5,1.9-0.7,2.9c-1,4.8-2,9.6-3,14.4c-0.2,1-0.4,2.1-0.5,3.1
		c-0.4,2.3-0.7,4.6-1,6.9c-2.5,4.9-5.3,9.7-8.7,14.1c-1.4,1.8-2.9,3.6-4.5,5.2c-1.6,1.7-3.4,3.2-5.2,4.7c-3.4,2.5-6.9,4.8-10.8,6.5
		c-1,0.4-2,0.8-3,1.1c1.5-1.9,2.7-4,3.7-6.2c0.5-1.2,1-2.5,1.4-3.8c0.5-1.5,0.7-3.1,0.9-4.7c0.4-2.7,0.4-5.4,0.1-8.1
		c-0.3-3-0.9-6-1.9-8.8c-0.5-1.3-1-2.5-1.7-3.7c-0.7-1.1-1.6-2.2-2.5-3.2c-0.9-0.9-1.9-1.7-3-2.4c-0.5-0.4-1.1-0.6-1.7-0.9
		c-0.8-0.4-1.6-0.6-2.5-0.8c-1.3-0.2-2.6,0-3.8,0.5c-1.1,0.4-2,1.1-2.8,1.9c-0.9,0.8-1.6,1.8-2.3,2.8c-1,1.3-1.9,2.6-2.8,4
		c-2.8,4.2-5.1,8.8-7.2,13.4c-0.5,0.4-0.9,1-1.1,1.7c-0.2,0.6-0.3,1.2-0.5,1.9c0,0.1-0.1,0.2-0.1,0.4c-0.4,0.9-0.7,1.7-1.1,2.6
		c-2,4.3-4.6,8.4-7.4,12.2c-3.2,4.1-6.9,7.9-11,11.1c-2,1.5-4.2,2.8-6.4,3.9c-1.2,0.5-2.4,0.8-3.6,1c-1.1,0.1-2.1,0.1-3.2,0
		c-0.6-0.1-1.2-0.3-1.8-0.5c-0.1-0.1-0.2-0.1-0.3-0.2c0,0,0,0,0-0.1c-0.2-0.7-0.4-1.3-0.5-2c-0.3-3.8,0.2-7.5,0.6-11.3
		c0.4-2.3,0.8-4.6,1.3-6.9c0.3-1.3,0.6-2.7,0.9-4c0.2-0.7,0.3-1.3,0.5-2c0.2-0.8,0.4-1.6,0.5-2.4c0.2-1.2,0.4-2.4,0.1-3.6
		c-0.3-1.2-1.3-2.2-2.5-2.5c-0.6-0.2-1.3-0.2-1.9,0c-0.8,0.2-1.8,0.9-2.2,1.7c-0.2,0.5-0.4,1-0.6,1.6c-0.1,0.3-0.2,0.6-0.2,1
		c-0.1,0.6-0.3,1.2-0.4,1.8c-0.3,1.4-0.7,2.6-1.2,3.9c-0.7,1.6-1.5,3.2-2.4,4.7c-1.6,2.8-3.4,5.6-5.3,8.2c-3,3.8-6.3,7.4-10.2,10.5
		c-1.8,1.3-3.7,2.5-5.8,3.4c-1.2,0.5-2.4,0.8-3.6,1c-0.9,0.1-1.8,0.1-2.7,0c-0.7-0.1-1.4-0.3-2.1-0.5c-0.4-0.2-0.8-0.5-1.2-0.7
		c-0.4-0.4-0.8-0.8-1.2-1.2c-0.3-0.5-0.6-1-0.8-1.5c-0.4-1-0.6-2-0.8-3c-0.1-0.8-0.1-1.6,0-2.4c0.8-4.3,2.4-8.5,3.9-12.6
		c0.4-1.1,0.8-2.1,1.2-3.1c0.6-1.4,1.1-2.8,1.7-4.2c1.1-2.6,2.3-5.2,3.4-7.9c0.3-0.6,0.5-1.1,0.5-1.8c0-0.9-0.4-1.8-1-2.5
		c-1.3-1.3-3.7-1.4-5,0c-0.7,0.7-1.1,1.6-1.7,2.4c-0.3,0.6-0.7,1.1-1,1.7c-0.6,0.9-1.2,1.9-1.9,2.8c-0.9,1.1-1.8,2.2-2.8,3.3
		c-1.1,1.2-2.3,2.4-3.6,3.6c-2.4,2.3-4.9,4.6-7.3,6.8c-2.4,2.3-4.8,4.6-7.3,6.9c-1.2,1.1-2.5,2.3-3.8,3.4c-1.8,1.5-3.6,3-5.4,4.4
		c-1.7,1.3-3.4,2.5-5.2,3.6c-1.9,1.2-3.8,2.3-5.8,3.2c-1.3,0.5-2.6,0.9-4,1.2c-0.7,0.1-1.4,0.1-2.1,0c-0.5-0.1-1-0.2-1.4-0.4
		c-0.4-0.2-0.8-0.4-1.2-0.7c-0.3-0.3-0.6-0.6-0.9-0.9c-0.2-0.4-0.5-0.7-0.7-1.1c-0.3-0.8-0.5-1.6-0.6-2.4c-0.2-1.6-0.3-3.3-0.3-4.9
		c0-1.9,0.2-3.7,0.4-5.6c0.6-3.8,1.5-7.4,2.9-10.9c1.2-2.7,2.7-5.2,4.4-7.6c1.7-2.1,3.5-3.9,5.5-5.6c1.4-1,2.9-1.9,4.5-2.6
		c0.9-0.4,1.9-0.7,2.8-0.9c0.2,0,0.4-0.1,0.6-0.1c0.6-0.2,1.2-0.5,1.6-0.9c0.7-0.7,1.1-1.6,1.1-2.6c0-1-0.4-1.9-1.1-2.6
		c-0.6-0.6-1.7-1.2-2.6-1.1c-0.4,0-0.8,0-1.1,0c-0.4,0-0.8-0.1-1.2-0.1c-1.3,0-2.7,0.1-4,0.4c-1,0.2-2,0.8-2.8,1.5
		c-1,0.8-1.8,1.9-2.5,3c-0.3,0.6-0.7,1.1-1,1.7c-0.8,0.7-1.6,1.5-2.3,2.3c-1.9,2-3.6,4.3-5.1,6.7c-1.6,2.7-2.9,5.6-3.9,8.5
		c-0.2,0.6-0.4,1.2-0.6,1.8c-1.2,1.9-2.4,3.8-3.6,5.8c-0.8,1.3-1.7,2.6-2.5,3.9c-1.5,2.3-3,4.5-4.6,6.7c-2.9,3.7-5.9,7.4-9.6,10.4
		c-2.1,1.6-4.4,2.9-6.9,4c-1.5,0.6-3,1-4.5,1.3c-2.4,0.3-4.8,0.2-7.1-0.1c-1.6-0.3-3.2-0.6-4.8-1.1c0.7-0.3,1.4-0.7,2.1-1
		c2.3-1.2,4.5-2.8,6.5-4.4c2.2-1.8,4.1-3.9,5.7-6.2c0.8-1.3,1.5-2.6,2.2-4c0.7-1.4,1.3-2.8,1.9-4.3c1.3-3.2,2.3-6.5,2.9-9.9
		c0.6-3.3,0.8-6.6,0.4-9.9c-0.2-1.7-0.5-3.3-1-4.9c-0.5-1.7-1.2-3.4-2-4.9c-1.4-2.9-3.5-5.4-5.6-7.7c-2.3-2.5-5.1-4.7-7.9-6.7
		c-2-1.4-4-2.7-6-4c2.4-2.7,4.8-5.4,7.1-8c1.8-2,3.5-4.1,5.2-6.2c3.5-4.2,6.9-8.3,10.4-12.5c2.2-2.7,4.3-5.5,6.4-8.3
		c3.4-4.8,6.6-9.7,9.4-14.9c1.3-2.4,2.5-4.9,3.4-7.5c0.5-1.3,0.8-2.5,1-3.8c0.2-1.4,0.1-2.7-0.2-4.1c-0.2-1.1-0.8-2.2-1.5-3.1
		c-0.7-0.9-1.6-1.6-2.6-2.3c-1-0.6-2.2-1-3.3-1.2c-0.7-0.1-1.4-0.2-2.1-0.2C375.7,190.5,374.9,190.6,374,190.8L374,190.8z
		 M377.5,196.2c0.4,0.1,0.7,0.2,1.1,0.3c0.4,0.2,0.9,0.5,1.3,0.7c0.2,0.2,0.4,0.4,0.7,0.6c0.1,0.1,0.1,0.2,0.2,0.3
		c0.2,0.5,0.3,0.9,0.4,1.4c0,0.5,0,1.1,0,1.6c-0.3,1.7-0.9,3.3-1.5,4.9c-1.6,3.5-3.5,6.9-5.5,10.1c-2.3,3.6-4.8,7.1-7.4,10.5
		c0,0,0,0,0.1-0.1c-1.6,2-3.2,4.1-4.9,6c-1.7,2-3.4,3.9-5,5.9c-3.1,3.6-6.2,7.2-9.3,10.8c-0.5,0.6-1,1.1-1.5,1.6
		c-1.5,1.6-3,3.3-4.5,4.9c-0.9,1-1.9,2.1-2.8,3.1c-1.2-1.1-2.4-2.3-3.4-3.6c-1.1-1.5-2-3-2.7-4.6c-0.7-1.8-1.2-3.7-1.5-5.7
		c-0.1-1.4-0.2-2.7,0-4.1c0.3-1.5,0.7-3,1.2-4.4c0.8-1.8,1.9-3.4,3-5c1.1-1.6,2.3-3.2,3.5-4.8c3.3-4.2,6.8-8.4,10.4-12.4
		c1.7-1.9,3.6-3.7,5.4-5.5c1.8-1.7,3.7-3.4,5.7-5c3.1-2.4,6.3-4.7,9.9-6.3c1.7-0.7,3.4-1.2,5.2-1.5
		C376,196.2,376.8,196.2,377.5,196.2L377.5,196.2z M360.6,203.6c-0.1,0.1-0.2,0.1-0.3,0.2C360.4,203.8,360.5,203.7,360.6,203.6
		L360.6,203.6z M601.1,225.6c0,0-0.1,0.1-0.1,0.1c0,0,0,0,0,0C601,225.7,601.1,225.6,601.1,225.6L601.1,225.6z M367,226.2
		c-0.1,0.1-0.1,0.1-0.2,0.2C366.9,226.4,367,226.3,367,226.2L367,226.2z M540.6,269C540.6,269,540.6,269,540.6,269
		C540.6,269,540.6,269,540.6,269C540.6,269,540.6,269,540.6,269L540.6,269z M540.6,269C540.6,269,540.6,269,540.6,269
		C540.6,269,540.5,269,540.6,269C540.5,269,540.6,269,540.6,269L540.6,269z M536.9,271.8c0,0.1-0.1,0.1-0.1,0.2
		C536.8,271.9,536.9,271.9,536.9,271.8L536.9,271.8z M573,288.4c0,0.1-0.1,0.1-0.1,0.2C572.9,288.5,573,288.4,573,288.4L573,288.4z
		 M616.3,298c0,0.1,0,0.2,0,0.3C616.3,298.2,616.3,298.1,616.3,298L616.3,298z M587,308.9c0.1,0.1,0.3,0.2,0.4,0.3c0,0,0,0,0,0
		C587.3,309.1,587.1,309,587,308.9L587,308.9z M587.4,309.2C587.4,309.2,587.4,309.2,587.4,309.2
		C587.4,309.2,587.4,309.2,587.4,309.2C587.4,309.2,587.4,309.2,587.4,309.2L587.4,309.2z M308.5,314.6c0.6,0.1,1.2,0.3,1.8,0.5
		c3.1,1.4,6,3.4,8.7,5.5c2.1,1.6,4.1,3.3,6.2,5c1.1,0.9,2.1,1.7,3.2,2.6c0.9,0.7,1.8,1.3,2.8,2c-1.5,0.4-2.9,0.8-4.4,1.1
		c-4.8,1.2-9.6,2.1-14.5,2.8c-3.1,0.4-6.2,0.7-9.2,0.4c-0.7-0.1-1.3-0.3-2-0.5c-0.5-0.3-1.1-0.5-1.6-0.9c-0.4-0.3-0.7-0.7-1-1
		c-0.3-0.5-0.6-0.9-0.8-1.4c-0.2-0.5-0.3-0.9-0.4-1.4c-0.1-0.9-0.1-1.8,0-2.6c0.2-0.9,0.4-1.7,0.7-2.6c0.6-1.2,1.3-2.3,2.1-3.4
		c1.3-1.6,2.8-3,4.4-4.3c0.8-0.6,1.5-1.1,2.4-1.6c0.1,0,0.2-0.1,0.4-0.1C307.6,314.6,308,314.6,308.5,314.6L308.5,314.6z
		 M306.6,314.8c-0.1,0-0.2,0.1-0.3,0.1C306.4,314.9,306.5,314.8,306.6,314.8L306.6,314.8z M617.5,315.7c0,0,0,0.1-0.1,0.1
		c0,0,0,0,0,0C617.5,315.8,617.5,315.8,617.5,315.7L617.5,315.7z M414,317.5c-0.1,0-0.1,0.1-0.2,0.1
		C413.9,317.6,414,317.6,414,317.5L414,317.5z M297.4,330.1c0,0,0,0.1,0.1,0.1C297.4,330.2,297.4,330.1,297.4,330.1L297.4,330.1z
		 M516.5,360.1c0,0.1,0,0.2,0,0.3C516.5,360.3,516.5,360.2,516.5,360.1L516.5,360.1z"/>
	<path class="st0" d="M629.9,255.9c-2.3,0.9-4.6,1.7-6.9,2.4c-1.3,0.4-2.7,0.9-4,1.3c-1.6,0.5-3.1,1.1-4.7,1.7
		c-1.7,0.6-3.5,1.1-5.2,1.7c-3.2,1-6.5,1.9-9.8,2.6c-1.7,0.3-3.4,0.6-5.1,0.8c-1.9,0.3-3.7,0.6-5.6,0.9c-3.4,0.5-6.8,1.1-10.2,1.6
		c-1.4,0.2-2.7,0.5-4,0.9c-1.3,0.4-2.6,0.8-4,1c-0.4,0-0.8,0-1.2,0c-0.3,0-0.5-0.1-0.8-0.2c-0.1,0-0.1-0.1-0.2-0.1
		c0,0-0.1-0.1-0.1-0.1c0-0.1-0.1-0.1-0.1-0.2c0-0.1,0-0.1,0-0.2c0,0,0,0,0.1-0.1c0,0,0,0,0,0c0,0,0.1-0.1,0.1-0.1c0,0,0,0,0,0
		c-0.1,0-0.2,0-0.3,0.1c-0.2,0.2-0.1,0.6,0,0.8c0.1,0.3,0.5,0.5,0.7,0.6c0.5,0.3,1,0.4,1.6,0.6c1.4,0.3,3,0.3,4.4,0.2
		c0.8,0,1.6,0,2.4,0c0.9,0,1.9,0.1,2.8,0.2c4.2,0.3,8.4,0.3,12.6-0.1c4.2-0.4,8.3-1,12.3-2.3c2-0.6,3.9-1.4,5.8-2.3
		c1.8-0.8,3.6-1.7,5.3-2.7c2.2-1.3,4.4-2.7,6.6-4C625,259.4,627.6,257.8,629.9,255.9C629.9,255.9,629.9,255.9,629.9,255.9
		C629.9,255.9,629.9,255.9,629.9,255.9L629.9,255.9z"/>
	<path class="st0" d="M491.6,242.4c0,1.6,1.3,2.9,2.9,2.9s2.9-1.3,2.9-2.9s-1.3-2.9-2.9-2.9S491.6,240.8,491.6,242.4L491.6,242.4z"
		/>
</g>
</svg>
