<?xml version="1.0" encoding="utf-8"?>
<!-- Generator: Adobe Illustrator 19.2.1, SVG Export Plug-In . SVG Version: 6.00 Build 0)  -->
<svg version="1.1" id="Layer_1" xmlns="http://www.w3.org/2000/svg" xmlns:xlink="http://www.w3.org/1999/xlink" x="0px" y="0px"
	 viewBox="0 0 960 560" style="enable-background:new 0 0 960 560;" xml:space="preserve">
<style type="text/css">
	.st0{fill:#070707;}
</style>
<g>
	<path class="st0" d="M356,225.1c-3.2-1.4-6.8-1.3-10.3-1.3c-2-0.1-3.9-0.1-5.8,0c-2.2,0.1-4.4,0.3-6.5,0.6
		c-4.2,0.5-8.4,1.3-12.5,2.5c-8.5,2.4-16.3,6.4-23.8,11c-0.8,0.5-1.7,1-2.5,1.5c-0.9,0.5-1.7,1.2-2.3,2.1c-0.6,0.9-0.7,1.9-0.9,2.8
		c-0.2,1.1,0.4,2.3,0.9,3.3c0.5,0.9,1.1,1.6,1.8,2.4c0.7,0.8,1.6,1.6,2.4,2.2c1.8,1.4,3.8,2.7,5.8,3.8c2.8,1.6,5.8,3.1,8.7,4.5
		c1.2,0.6,2.3,1.1,3.5,1.7c2.8,1.4,5.6,2.7,8.5,4.1c2.8,1.3,5.5,2.7,8.3,4.1c1.4,0.7,2.7,1.4,4.1,2.1c1.8,1,3.5,1.9,5.2,3
		c1.7,1.1,3.3,2.2,4.8,3.5c1,0.8,1.9,1.7,2.8,2.6c0.8,0.8,1.5,1.8,2.2,2.7c0.9,1.3,1.7,2.7,2.3,4.2c0.5,1.5,0.8,2.9,1,4.5
		c0.1,1.3,0.1,2.7-0.1,4c-0.4,1.9-1,3.8-1.8,5.6c-1.2,2.5-2.6,4.7-4.3,6.9c-2.4,2.8-5.1,5.3-8.1,7.5c-3.7,2.5-7.7,4.6-12,6.2
		c-5.3,1.9-10.9,2.8-16.5,3.4c-5.9,0.5-11.9,0.3-17.8-0.6c-3.9-0.7-7.8-1.6-11.7-2.6c-2-0.5-4-1.1-5.9-1.7c-1.9-0.6-3.8-1.3-5.7-2.2
		c-0.6-0.3-1.2-0.6-1.8-1c-0.3-0.2-0.5-0.5-0.7-0.7c-0.3-0.5-0.6-1-0.8-1.5c-0.1-0.2-0.1-0.4-0.2-0.6c0-0.3,0-0.6,0-0.9
		c0.3-1.5,0.8-2.9,1.4-4.2c0,0,0,0,0,0c0.2-0.4,0.4-0.8,0.6-1.2c0,0,0,0,0,0c-0.5,0.6-1,1.2-1.5,1.8c-0.6,0.7-1,1.5-1.5,2.3
		c-0.3,0.6-0.7,1.3-0.8,1.9c-0.1,0.9,0,1.8,0.3,2.7c0.2,0.7,0.6,1.4,1,2c0.6,0.7,1.2,1.3,1.9,1.8c0.8,0.6,1.6,1,2.5,1.5
		c1,0.6,2,1.1,3.1,1.7c3.8,2,7.9,3.4,12,4.8c4.2,1.4,8.4,2.3,12.8,2.7c4.3,0.4,8.6,0.4,12.8,0c4.4-0.4,8.7-1,13-2.1
		c8.4-2.1,16.4-6.2,22.8-12c6.2-5.6,11.1-13.2,12-21.7c0.2-1.9,0-3.9-0.4-5.8c-0.4-2.1-1.1-4.1-2-5.9c-0.9-1.8-2.1-3.4-3.4-5
		c-1.5-1.8-3.2-3.4-5-4.9c-1.7-1.4-3.5-2.7-5.3-3.9c-2-1.3-4.1-2.4-6.1-3.6c-1.3-0.7-2.6-1.4-3.9-2.1c-2.6-1.3-5.1-2.7-7.8-4
		c-3.2-1.6-6.5-3.3-9.7-4.9c-1.7-0.9-3.4-1.8-5.2-2.6c-1.8-0.9-3.5-1.8-5.2-2.8c-1.8-1.1-3.5-2.1-5.1-3.4c-0.9-0.8-1.7-1.6-2.4-2.5
		c-0.1-0.2-0.3-0.5-0.4-0.7c0,0,0,0,0-0.1c0,0,0-0.1,0-0.1c0-0.1,0.1-0.2,0.1-0.3c0.4-0.4,0.8-0.7,1.3-1c0.4-0.3,0.9-0.6,1.3-0.9
		c5.2-3.6,10.8-6.6,16.8-8.8c4.6-1.6,9.3-2.9,14-4c4.7-1.1,9.5-2.1,14.4-2.6c-0.1,0-0.3,0-0.4,0c2-0.2,3.9-0.5,5.9-0.7
		c1.6-0.1,3.1-0.2,4.7,0c0.6,0.1,1.2,0.3,1.8,0.5c0,0-0.1,0-0.1,0c0.2,0.1,0.4,0.2,0.6,0.3c0.2,0.2,0.4,0.4,0.6,0.6c0,0,0,0-0.1-0.1
		c0.1,0.2,0.2,0.4,0.3,0.6c0,0,0,0,0-0.1c0.1,0.1,0.1,0.3,0.1,0.4c0,0.1,0,0.1-0.1,0.2c-0.3,0.4-0.7,0.8-1.1,1.2c0,0,0,0,0,0
		c0.1-0.1,0.3-0.2,0.4-0.4c0,0,0,0,0,0c0.4-0.3,0.8-0.5,1.1-0.9c0.2-0.3,0-0.8-0.1-1c-0.1-0.5-0.4-0.9-0.7-1.2
		C357.2,225.8,356.6,225.4,356,225.1L356,225.1z M357.1,226.9C357.1,226.9,357.1,226.9,357.1,226.9
		C357.1,226.9,357.1,226.9,357.1,226.9L357.1,226.9z M355,226.1C355,226.1,355,226.1,355,226.1C355,226.1,355,226.1,355,226.1
		L355,226.1z M354.9,226.1C354.9,226.1,354.9,226.1,354.9,226.1C354.9,226.1,354.9,226.1,354.9,226.1L354.9,226.1z M345.8,279.5
		c-0.1-0.1-0.2-0.2-0.3-0.3C345.6,279.3,345.7,279.4,345.8,279.5L345.8,279.5z M297.2,243.7C297.2,243.7,297.1,243.7,297.2,243.7
		C297.1,243.7,297.2,243.7,297.2,243.7L297.2,243.7z M296.9,243.8c0,0.1,0,0.1,0,0.2c0,0,0,0,0,0C296.9,244,296.9,243.9,296.9,243.8
		L296.9,243.8z M296.8,243.9c0,0.1,0,0.1,0,0.2C296.8,244,296.8,244,296.8,243.9L296.8,243.9z M296.8,244.2
		C296.8,244.2,296.8,244.2,296.8,244.2C296.8,244.2,296.8,244.2,296.8,244.2C296.8,244.2,296.8,244.2,296.8,244.2L296.8,244.2z
		 M296.8,244.2C296.8,244.2,296.8,244.2,296.8,244.2C296.8,244.3,296.8,244.3,296.8,244.2C296.8,244.3,296.8,244.3,296.8,244.2
		C296.8,244.3,296.8,244.3,296.8,244.2L296.8,244.2z M296.8,244.3C296.8,244.3,296.8,244.3,296.8,244.3
		C296.8,244.3,296.8,244.3,296.8,244.3C296.8,244.3,296.8,244.3,296.8,244.3L296.8,244.3z M327,323.2c-0.1,0-0.1,0.1-0.2,0.1
		C326.9,323.2,326.9,323.2,327,323.2L327,323.2z M357.4,229.5C357.4,229.5,357.4,229.5,357.4,229.5
		C357.4,229.5,357.4,229.5,357.4,229.5L357.4,229.5z M356.6,226.6C356.6,226.6,356.7,226.6,356.6,226.6
		C356.7,226.6,356.6,226.6,356.6,226.6L356.6,226.6z"/>
	<path class="st0" d="M391.2,245.1c-0.1,1.7-0.1,3.4-0.1,5.1c0,1.5,0,3.1,0,4.6c0,2.8,0.1,5.6,0.1,8.4c0,2.1,0.1,4.1,0.1,6.2
		c0,1.9,0,3.7,0.1,5.6c0,0.8,0,1.6,0,2.3c0,0.5,0,1,0,1.4c0.4,11.5,1,23.2,3.8,34.4c0.2,0.8,0.4,1.7,0.6,2.5
		c0.2,0.8,0.5,1.4,0.8,2.2c0,0,0-0.1,0-0.1c0.1,0.2,0.1,0.4,0.1,0.6c0,0,0,0,0,0c0,0.1,0,0.1,0,0.2c0,0,0,0.1-0.1,0.1
		c-0.4-0.3-0.7-0.6-1.1-0.9c0,0,0,0,0,0c-0.1-0.1-0.2-0.2-0.4-0.3c0,0,0,0,0,0c0.4,0.6,0.8,1.2,1.3,1.8c0.1,0.1,0.3,0.1,0.4,0.1
		c0.4-0.2,0.7-0.4,0.7-0.9c0.1-0.7-0.1-1.4-0.2-2.1c-0.1-1.2-0.2-2.5-0.3-3.7c-0.1-1.7-0.2-3.4-0.4-5.1c-0.1-1.4-0.1-2.8-0.2-4.2
		c-0.1-1.2-0.2-2.5-0.2-3.7c0-3.2-0.1-6.4-0.2-9.6c0-1.2,0-2.5,0-3.7c0-2-0.1-4.1-0.2-6.1c-0.1-2.5-0.2-5-0.4-7.5
		c-0.2-2.5-0.3-5-0.6-7.5c-0.4-3.4-0.8-6.8-1.2-10.1c-0.3-2.8-0.8-5.5-1.1-8.3c0-0.4-0.1-0.9-0.1-1.3c0,0,0,0,0,0c0,0,0,0,0,0
		c0-0.1,0-0.1,0-0.2c0-0.1-0.1-0.2-0.1-0.3C392,244.3,391.1,244.5,391.2,245.1L391.2,245.1z"/>
	<path class="st0" d="M439.9,275.6c-1.6,0.4-3.2,0.7-4.8,0.9c-1.6,0.2-3.2,0.5-4.9,0.7c-3.3,0.4-6.7,0.9-10,1.4
		c-3,0.4-5.9,0.8-8.9,1.1c-1.1,0.1-2.2,0.3-3.4,0.4c-1.1,0.1-2.2,0.3-3.4,0.5c-2.3,0.3-4.6,0.6-6.8,0.9c-8.7,1.2-17.4,2.7-26,4.8
		c0,0,0,0,0,0c11.5,1.9,23.4,3.1,35,1.6c2.7-0.3,5.4-1,8.1-1.7c2.3-0.6,4.6-1.3,6.8-2.2c2.4-1,4.8-2,7.2-3c1.8-0.8,3.6-1.6,5.4-2.4
		C436.1,277.6,438,276.7,439.9,275.6C439.9,275.6,439.9,275.6,439.9,275.6C439.9,275.6,439.9,275.6,439.9,275.6L439.9,275.6z"/>
	<path class="st0" d="M468.1,277.1c-0.9-0.4-1.8-0.6-2.8-0.8c-2.2-0.4-4.4-0.3-6.6,0.1c-2.2,0.4-4.2,1.2-6.2,2.1
		c-2.1,1.1-4,2.6-5.5,4.4c-1.5,1.8-2.6,3.7-3.4,5.9c-0.9,2.2-1.1,4.7-1.2,7c-0.1,2.2,0.1,4.5,0.5,6.7c0.5,2.5,1.3,4.8,2.2,7.2
		c1.7,4.6,4.3,8.9,8,12.2c0.9,0.8,1.8,1.5,2.8,2.2c1,0.7,2.1,1.1,3.2,1.6c2.3,1,4.9,1.5,7.4,1.8c2.3,0.3,4.7,0,6.9-0.4
		c1.2-0.2,2.4-0.6,3.5-1.1c1.3-0.6,2.2-1.7,3.1-2.8c0.8-1,1.3-2.2,1.5-3.4c0.3-1.6,0.3-3.2,0.1-4.7c-0.2-1.4-0.5-2.7-0.9-4.1
		c-0.5-1.4-1.1-2.8-1.8-4.2c-1.4-2.8-3.2-5.4-5.1-8c-1.2-1.7-2.6-3.2-3.9-4.8c-1.5-1.7-2.9-3.3-4.5-4.8c-0.9-0.9-1.8-1.7-2.7-2.5
		c-0.8-0.7-1.6-1.3-2.7-1.6c-1.1-0.2-2.3-0.1-3.4,0c0,0,0,0,0,0c0.9,0.3,1.8,0.6,2.7,1c0,0-0.1,0-0.1,0c0.2,0.1,0.5,0.2,0.7,0.4
		c0.5,0.5,1,1,1.4,1.6c-0.1-0.1-0.1-0.1-0.2-0.2c0.3,0.5,0.7,0.9,1,1.4c1.4,2.1,2.8,4.2,4.1,6.4c1.1,1.8,2.3,3.7,3.3,5.6
		c1.8,3.1,3.3,6.3,4.6,9.6c0.6,1.6,1,3.2,1.2,4.9c0.1,0.9,0.1,1.7,0,2.6c-0.1,0.3-0.1,0.5-0.2,0.8c-0.2,0.3-0.4,0.6-0.6,0.9
		c-0.1,0.2-0.3,0.3-0.5,0.5c-0.2,0.1-0.4,0.2-0.6,0.3c-1.2,0.4-2.4,0.6-3.6,0.7c-1.6,0.1-3.1,0-4.7-0.2c-1.5-0.3-3-0.7-4.4-1.3
		c-1.2-0.6-2.3-1.3-3.3-2.1c-1.3-1.2-2.5-2.4-3.6-3.8c-1.7-2.5-3-5.3-4.1-8.1c-0.9-2.4-1.5-4.9-1.8-7.5c-0.2-2.1-0.1-4.3,0.2-6.4
		c0.3-1.4,0.7-2.7,1.2-4c0.7-1.4,1.4-2.7,2.4-3.9c0.9-1,1.8-1.8,2.8-2.5c1.4-1,2.9-1.7,4.5-2.4c1.4-0.5,2.8-0.8,4.2-1
		c1.1-0.1,2.3-0.1,3.4,0.1c0.9,0.2,1.7,0.4,2.5,0.7c0.3,0.1,0.6,0.3,0.8,0.5c0.2,0.2,0.4,0.4,0.6,0.6c0,0-0.1-0.1-0.1-0.1
		c0.2,0.2,0.3,0.5,0.4,0.7c0,0.1,0,0.2,0.1,0.3c0,0.1,0,0.1,0,0.2c0,0.1-0.1,0.2-0.1,0.3c0,0,0,0,0,0c-0.1,0.1-0.1,0.2-0.2,0.3
		c0,0,0,0,0.1-0.1c-0.2,0.2-0.3,0.4-0.6,0.5c0,0,0,0,0.1,0c-1,0.5-2.1,0.9-3.1,1.4c0,0,0,0,0,0c0.9-0.3,1.9-0.5,2.8-0.8
		c0.6-0.2,1-0.4,1.5-0.9c0.9-1,0.1-2.3-0.6-3.2c0-0.1-0.1-0.1-0.2-0.2C469.8,277.9,468.9,277.5,468.1,277.1L468.1,277.1z M459.2,279
		c-0.1,0-0.2,0.1-0.3,0.1C459,279.1,459.1,279.1,459.2,279L459.2,279z M454.6,281.3c0,0-0.1,0.1-0.1,0.1
		C454.5,281.4,454.6,281.3,454.6,281.3L454.6,281.3z M473.9,310.2c0,0.1,0,0.1,0.1,0.2C474,310.3,473.9,310.2,473.9,310.2
		L473.9,310.2z"/>
	<path class="st0" d="M538.7,274c-1.3-1.2-2.6-2.2-4.2-2.9c-0.8-0.4-1.6-0.7-2.4-0.9c-0.9-0.3-1.9-0.4-2.9-0.5
		c-3.4-0.4-6.9,0.6-10,2.1c-1.6,0.8-3,1.8-4.4,2.8c-1.5,1.1-2.8,2.4-4,3.9c-2.5,2.9-4.4,6.1-6,9.6c-2.3,5.2-3.6,10.8-3.9,16.5
		c-0.2,2.8,0,5.6,0.4,8.4c0.2,1.3,0.5,2.7,0.9,3.9c0.4,1.3,1.3,2.5,1.9,3.7c0.6,1.1,2.2,0.9,2.6-0.3c0.2-0.6,0.4-1.1,0.4-1.7
		c0-0.7-0.2-1.4-0.5-2.1c-0.2-0.6-0.4-1.2-0.6-1.9c-0.3-1.1-0.6-2.2-1-3.3c0-3.1,0.3-6.3,0.7-9.4c0.8-4.4,1.9-8.7,3.6-12.7
		c1.2-2.6,2.7-5.1,4.5-7.4c1.4-1.7,3-3.1,4.8-4.4c1.6-1,3.2-1.9,4.9-2.6c1.1-0.4,2.2-0.6,3.3-0.8c1.1-0.1,2.2,0,3.3,0.1
		c1,0.2,2.1,0.5,3,0.9c1.3,0.6,2.5,1.5,3.7,2.4c1.5,1.3,2.8,2.7,4,4.3c1.5,2.1,2.8,4.4,4.2,6.6c1.2,2,2.5,4,3.6,6c0,0,0,0,0,0
		c-0.7-2.4-1.6-4.8-2.5-7.2c-0.5-1.3-1-2.7-1.6-4c-0.6-1.6-1.4-3.2-2.3-4.7c-0.7-1.2-1.6-2.3-2.5-3.3
		C539.4,274.7,539.1,274.3,538.7,274L538.7,274z M537.3,277.7c0,0-0.1-0.1-0.1-0.1C537.2,277.6,537.3,277.6,537.3,277.7L537.3,277.7
		z"/>
	<path class="st0" d="M563.2,282.5c-0.8,3.4-1.4,6.8-1.7,10.2c-0.2,2.2-0.4,4.5-0.3,6.8c0.1,2.6,0.4,5.2,0.9,7.8
		c0.2,1.3,0.5,2.5,0.7,3.7c0.2,0.7,0.3,1.4,0.5,2.1c0.2,0.7,0.4,1.4,0.6,2.1c0,0,0,0,0,0c0.1-0.4,0.1-0.9,0.2-1.4
		c0.5-2.5,0.8-5,1.1-7.6c0.1-1,0.2-2,0.3-3c0.1-0.9,0.1-1.8,0.2-2.7c0-0.6,0.1-1.3,0-1.9C565.6,293.3,564.6,287.8,563.2,282.5
		C563.3,282.5,563.3,282.5,563.2,282.5C563.3,282.5,563.2,282.5,563.2,282.5L563.2,282.5z M564.1,313.9
		C564.1,313.9,564.1,313.9,564.1,313.9C564.1,313.9,564.1,313.9,564.1,313.9L564.1,313.9z"/>
	<path class="st0" d="M575.7,246.5c-1.3,1.2-1.4,3.4-0.2,4.7c1.2,1.3,3.4,1.4,4.7,0.2s1.4-3.4,0.2-4.7S577,245.3,575.7,246.5
		L575.7,246.5z"/>
	<path class="st0" d="M615.2,276.4c-0.7-0.6-1.5-1-2.3-1.3c-1-0.4-1.9-0.5-2.9-0.6c-0.9-0.1-1.8,0-2.7,0.1c-0.8,0.1-1.7,0.3-2.5,0.5
		c-1.8,0.5-3.6,1.4-5.2,2.4c-1.6,1-3,2.1-4.4,3.3c-1.6,1.4-3,3.1-4.3,4.7c-2.5,3.1-4.5,6.4-6.2,10c-1.6,3.2-2.8,6.6-3.7,10.1
		c-0.4,1.6-0.7,3.2-0.9,4.8c-0.2,1.8,0,3.6,0.4,5.4c0.3,1.6,1,3.2,1.9,4.6c0.5,0.8,1.1,1.5,1.8,2.2c0.7,0.7,1.4,1.3,2.2,1.8
		c1.4,1,3.1,1.7,4.8,2.2c1.8,0.5,3.6,0.7,5.4,0.8c3.4,0.3,6.8,0.2,10.1-0.4c3.3-0.5,6.4-1.9,9.4-3.5c2.6-1.4,5.2-2.6,7.6-4.3
		c0,0,0,0,0,0c-0.7,0.3-1.3,0.5-2,0.8c0,0,0,0,0,0c-1.4,0.5-2.7,0.9-4.1,1.3c-1.1,0.3-2.2,0.7-3.3,1c-1.9,0.6-3.9,0.9-5.8,1.1
		c-3,0.2-6.1,0.1-9-0.4c0.1,0,0.3,0,0.4,0.1c-2.8-0.5-5.7-0.9-8.4-2c-0.9-0.4-1.7-0.9-2.5-1.5c-0.8-0.7-1.4-1.4-2-2.2
		c-0.4-0.6-0.7-1.2-1-1.9c-0.3-1-0.6-2.1-0.7-3.1c-0.1-1.2,0-2.4,0.2-3.6c0.6-3.3,1.6-6.5,2.9-9.6c0.7,0.2,1.4,0.4,2.1,0.5
		c1.7,0.4,3.4,0.8,5.2,0.8c1.6,0,3.3-0.2,4.9-0.6c1.8-0.4,3.5-1,5.2-1.7c1.7-0.7,3.2-1.7,4.7-2.7c1.6-1.2,3.1-2.5,4.3-4.1
		c1.1-1.4,2-2.9,2.7-4.6c0.4-0.9,0.5-1.8,0.7-2.7c0.1-0.4,0.1-0.9,0.2-1.3c0.1-0.6,0-1.3-0.1-1.9c-0.1-0.8-0.5-1.7-0.9-2.4
		c-0.2-0.4-0.5-0.8-0.9-1.2C615.8,276.9,615.5,276.6,615.2,276.4L615.2,276.4z M613,280.7c0.1,0.2,0.3,0.5,0.4,0.7
		c0.1,0.2,0.1,0.4,0.1,0.6c0,0.7,0,1.4-0.1,2.1c-0.2,0.9-0.4,1.7-0.8,2.5c-0.6,1.2-1.3,2.4-2.1,3.5c-1.4,1.6-3,3.1-4.7,4.3
		c-1.8,1.2-3.8,2.2-5.8,3c-1.8,0.6-3.6,1.2-5.4,1.3c-1.3,0.1-2.5,0-3.8-0.1c-0.8-0.1-1.6-0.1-2.4-0.2c0.9-1.9,1.9-3.8,3-5.6
		c1.1-1.8,2.3-3.5,3.6-5.1c1.7-2.1,3.6-3.9,5.8-5.5c1.4-1,2.9-1.8,4.5-2.5c1-0.3,2.1-0.6,3.1-0.7c0.7,0,1.3,0,1.9,0
		c0.4,0.1,0.7,0.2,1,0.3c0.4,0.2,0.8,0.4,1.1,0.7C612.7,280.3,612.9,280.5,613,280.7L613,280.7z M621.7,319.8
		C621.7,319.8,621.6,319.8,621.7,319.8C621.6,319.8,621.7,319.8,621.7,319.8L621.7,319.8z"/>
	<path class="st0" d="M690.3,281.7c-2.7,0-5.5,0-8.3,0.2c-1.7,0.1-3.4,0.3-5.1,0.4c-4.3,0.4-8.7,0.8-13,1.3
		c-2.7,0.3-5.3,0.9-7.9,1.4c-2.1,0.4-4.1,0.8-6.2,1.2c-2.5,0.5-5,0.9-7.5,1.6c-0.6,0.2-1.3,0.4-1.9,0.7c-0.7,0.3-1.3,0.7-2,1.1
		c-0.7,0.4-1.2,1.1-1.2,1.9c0,0.9,0.4,1.5,1.1,2c0.9,0.6,1.7,1.3,2.6,1.9c0.9,0.6,1.8,1.1,2.8,1.6c2.1,1.1,4.3,2,6.4,3
		c1.4,0.7,2.8,1.3,4.2,2c2.7,1.3,5.4,2.6,8.1,3.9c3.1,1.5,6.2,3,9.2,4.6c3.2,1.7,6.5,3.3,9.7,5c1.2,0.6,2.4,1.4,3.6,2.1
		c0.7,0.4,1.4,0.8,2.1,1.2c1,0.6,2.1,1.1,3,1.8c0.4,0.4,0.8,0.8,1.1,1.2c0,0,0,0,0,0.1c-0.1,0.2-0.1,0.4-0.2,0.6
		c-0.2,0.4-0.4,0.7-0.6,1c-0.3,0.4-0.7,0.7-1.1,1c-1.7,1.1-3.5,1.9-5.4,2.6c-1.8,0.6-3.6,1.1-5.5,1.6c-2.2,0.5-4.3,1.1-6.5,1.5
		c-2.4,0.5-4.7,0.9-7.1,1.2c-1,0.2-2,0.3-3,0.5c-0.5,0.1-0.9,0.2-1.4,0.2c-1.6,0.2-3.1,0.4-4.7,0.5c-1.5,0.1-3.1,0.3-4.6,0.5
		c-0.5,0-1,0.1-1.6,0.1c0,0,0,0,0-0.1c-0.2-0.6-0.3-1.2-0.4-1.9c-0.1-2-0.3-4-0.3-6.1c0,0,0,0,0,0c-0.3,0.8-0.5,1.7-0.7,2.5
		c-0.1,0.5-0.2,0.9-0.3,1.4c-0.2,0.7-0.4,1.5-0.5,2.2c-0.1,0.9-0.1,1.7,0,2.5c0.1,0.7,0.6,1.3,1.2,1.6c0.7,0.4,1.6,0.3,2.3,0.4
		c0.7,0.1,1.4,0,2.1,0c3.1,0,6.3,0,9.4-0.2c1.8-0.1,3.7-0.3,5.5-0.4c4.6-0.4,9.2-1.3,13.7-2.4c2.1-0.5,4.1-1.3,6-2.2
		c2.1-1,4.1-2,5.7-3.6c0.6-0.6,1.1-1.4,1.5-2.2c0.4-0.8,0.7-1.7,0.8-2.6c0-0.9-0.1-1.7-0.5-2.5c-0.2-0.4-0.5-0.8-0.8-1.1
		c-0.4-0.4-0.8-0.8-1.3-1.2c-1.1-0.9-2.4-1.6-3.7-2.3c-0.9-0.5-1.7-1-2.6-1.5c-1.2-0.7-2.3-1.4-3.5-2c-3.1-1.7-6.2-3.4-9.4-5
		c-3.3-1.7-6.7-3.5-10-5.2c-2.7-1.4-5.5-2.8-8.3-4.2c-1.3-0.6-2.6-1.3-3.9-1.9c-1.8-0.9-3.6-1.6-5.4-2.6c-0.8-0.4-1.6-0.8-2.3-1.3
		c2.2-0.7,4.5-1,6.7-1.5c2-0.5,4-0.9,6-1.4c2-0.5,4-1,6-1.5c0.6-0.2,1.3-0.3,1.9-0.4c4.2-0.8,8.4-1.7,12.6-2.6
		c1.7-0.4,3.4-0.7,5.1-1.1C684.9,282.7,687.6,282.3,690.3,281.7C690.3,281.8,690.3,281.7,690.3,281.7
		C690.3,281.7,690.3,281.7,690.3,281.7L690.3,281.7z M690.9,321.8C690.9,321.9,690.9,321.9,690.9,321.8
		C690.9,321.9,690.9,321.9,690.9,321.8L690.9,321.8z M683.6,327.5c-0.1,0-0.2,0.1-0.3,0.1C683.4,327.5,683.5,327.5,683.6,327.5
		L683.6,327.5z M649.5,333.6C649.5,333.7,649.5,333.7,649.5,333.6C649.5,333.7,649.5,333.7,649.5,333.6
		C649.5,333.6,649.5,333.6,649.5,333.6L649.5,333.6z"/>
</g>
</svg>
