<?xml version="1.0" encoding="utf-8"?>
<!-- Generator: Adobe Illustrator 19.2.1, SVG Export Plug-In . SVG Version: 6.00 Build 0)  -->
<svg version="1.1" id="Layer_1" xmlns="http://www.w3.org/2000/svg" xmlns:xlink="http://www.w3.org/1999/xlink" x="0px" y="0px"
	 viewBox="0 0 960 560" style="enable-background:new 0 0 960 560;" xml:space="preserve">
<style type="text/css">
	.st0{fill:#070707;}
</style>
<g>
	<path class="st0" d="M360.2,244.1c-6.7,1.1-12.9,4.4-18.1,8.6c-5.4,4.2-9.8,9.7-13.2,15.6c-1.8,3.1-3.3,6.3-4.5,9.7
		c-1.2,3.4-1.9,6.9-2.1,10.4c-0.2,3.3,0.1,6.7,1,9.9c1,3.2,2.6,6.3,4.7,9c1.9,2.5,4.2,4.8,7.1,6.2c3,1.6,6.4,2.3,9.8,2.6
		c3.3,0.3,6.7-0.1,9.8-1.4c1.5-0.6,2.9-1.4,4.2-2.3c1.4-1,2.5-2.2,3.6-3.4c1-1.2,1.9-2.4,2.7-3.7c0.4-0.7,0.9-1.4,1.3-2.1
		c0.7-1.2,1.4-2.5,1.9-3.8l0,0c-0.2,0.3-0.4,0.6-0.7,0.9c-2.5,3.1-5.2,6.1-8.4,8.6c-1.3,0.9-2.6,1.7-4.1,2.3c-1.4,0.6-2.8,1-4.3,1.2
		c-2,0.2-4.1,0.2-6.1,0c-2.3-0.3-4.6-0.9-6.8-1.8c-1.2-0.6-2.4-1.2-3.5-2c-1.4-1.2-2.7-2.5-3.9-3.9c-1.3-1.7-2.3-3.6-3.2-5.5
		c-0.7-1.7-1.2-3.5-1.5-5.4c-0.3-2.6-0.2-5.3,0.1-7.9c0.5-3.2,1.4-6.3,2.7-9.3c1.9-4.5,4.4-8.7,7.3-12.5c-0.1,0.1-0.2,0.2-0.3,0.3
		c3-3.9,6.6-7.5,10.5-10.6c3.1-2.4,6.5-4.5,10.2-6.1c2.6-1,5.2-1.8,7.9-2.2c1.7-0.2,3.4-0.3,5.1,0l0,0c0.8,0.1,1.7,0.3,2.4,0.6
		c0.3,0.2,0.7,0.3,1,0.6c0.1,0.1,0.1,0.1,0.2,0.2l0,0c0.1,0.1,0.2,0.3,0.3,0.5l0,0c0.1,0.4,0.2,0.8,0.3,1.2l0,0c0,0.1,0,0.3,0,0.4
		l0,0c0.1-0.6,0.1-1.1,0-1.7c-0.1-0.4-0.4-0.7-0.6-1c-0.9-0.9-2.2-1.3-3.3-1.6c-1.5-0.4-3.1-0.6-4.7-0.6
		C363.2,243.7,361.7,243.9,360.2,244.1L360.2,244.1z M369.2,245.2C369.2,245.2,369.3,245.2,369.2,245.2
		C369.3,245.2,369.2,245.2,369.2,245.2L369.2,245.2z M346.1,253.6l-0.1,0.1C346,253.7,346,253.7,346.1,253.6L346.1,253.6z"/>
	<path class="st0" d="M404.3,271c-1.2,0.1-2.2,0.7-3.2,1.4c-0.7,0.5-1.4,1.1-2.1,1.8c-0.5,0.1-1,0.3-1.5,0.5
		c-0.9,0.3-1.7,0.7-2.6,1.1c-0.8,0.4-1.6,0.7-2.3,1.2l0,0c0.7-0.2,1.5-0.5,2.2-0.6c1-0.2,1.9-0.5,2.9-0.6c-0.7,0.8-1.3,1.7-1.9,2.5
		c-0.8,1.1-1.5,2.3-2.2,3.4c-0.8,1.3-1.4,2.8-2,4.2c-1.2,2.8-1.9,5.8-2.3,8.8c-0.4,3.1-0.2,6.2,0.6,9.1c0.3,1.4,0.8,2.7,1.4,3.9
		c0.6,1.3,1.5,2.5,2.5,3.6c1,1,2.1,1.9,3.3,2.7c1.2,0.8,2.7,1.4,4.1,1.8s2.8,0.6,4.2,0.6c1.5,0.1,3-0.2,4.4-0.6s2.7-1.1,3.9-1.8
		c1.3-0.8,2.5-1.7,3.6-2.7c1-1,1.9-2.1,2.7-3.3c0.8-1.2,1.5-2.6,2.1-3.9c0.6-1.4,1.1-2.7,1.4-4.2c0.4-1.6,0.6-3.2,0.7-4.9
		c0.1-1.5,0-3-0.2-4.5c-0.2-1.6-0.6-3.1-1.1-4.5c-1-2.8-2.7-5.3-4.9-7.5c-2.1-2-4.7-3.5-7.4-4.3c-1.4-0.4-2.8-0.5-4.2-0.6
		c-1.6-0.1-3.2,0-4.8,0.2c-0.3,0-0.6,0.1-0.8,0.1c0.4-0.5,0.9-0.9,1.4-1.3c0,0-0.1,0-0.1,0.1c0.4-0.3,0.8-0.6,1.2-0.8
		c0.7-0.3,1.4-0.4,2.1-0.5l0,0c0.5-0.1,1-0.1,1.6-0.1l0,0c0.2,0,0.4,0.1,0.5,0.1l0,0c-0.3-0.1-0.5-0.2-0.8-0.2c-0.2,0-0.5,0-0.7,0
		s-0.4,0-0.6,0C405.2,270.9,404.7,270.9,404.3,271L404.3,271z M403.5,271.7L403.5,271.7L403.5,271.7L403.5,271.7z M404.6,275.6
		c1.8,0.3,3.6,0.6,5.2,1.3c1.3,0.6,2.5,1.3,3.6,2.1c1.1,0.9,2,1.8,2.9,2.9c0.9,1.2,1.6,2.5,2.3,3.8c0.6,1.6,1.1,3.2,1.3,4.9
		c0.2,2,0.2,4.1,0,6.1c-0.3,1.9-0.8,3.6-1.5,5.4c-0.7,1.6-1.6,3.2-2.6,4.6c-0.8,0.9-1.6,1.8-2.5,2.5c-1.1,0.8-2.3,1.5-3.5,2.1
		c-0.9,0.4-1.8,0.6-2.8,0.8c-1,0.1-2.1,0.1-3.1,0c-1.1-0.2-2.3-0.5-3.3-0.9s-1.9-1-2.7-1.6c-0.8-0.6-1.5-1.3-2.1-2.1
		c-0.6-0.9-1.1-1.8-1.6-2.8c-0.7-1.7-1.1-3.4-1.4-5.2c-0.3-2.4-0.3-4.8,0-7.2c0.5-3.1,1.3-6.1,2.5-9c0.6-1.5,1.4-2.9,2.1-4.3
		c0.7-1.2,1.4-2.4,2.3-3.6C401.2,275.3,402.9,275.4,404.6,275.6L404.6,275.6z M395.3,283C395.3,283,395.3,283.1,395.3,283
		C395.3,283.1,395.3,283,395.3,283L395.3,283z M392.7,292c0,0.1,0,0.2,0,0.3C392.7,292.1,392.7,292.1,392.7,292L392.7,292z
		 M413.5,309.1l-0.1,0.1C413.5,309.1,413.5,309.1,413.5,309.1L413.5,309.1z"/>
	<path class="st0" d="M434,291.9c0,0.1,0.1,0.2,0.2,0.2s0.2-0.1,0.2-0.2s-0.1-0.2-0.2-0.2S434,291.7,434,291.9L434,291.9z"/>
	<path class="st0" d="M454.6,271.4c-0.6,0.1-1.1,0.2-1.6,0.5c-0.4,0.2-0.7,0.4-1.1,0.7c-0.9,0.6-1.5,1.4-2.2,2.2
		c-0.6,0.8-1.3,1.5-1.9,2.2c-0.8,0.9-1.5,2-2.2,3c-1.2,1.8-2.2,3.7-3,5.7c-0.7,1.7-1.2,3.5-1.6,5.3c-0.8-2.8-1.7-5.7-2.5-8.5l0,0
		c0.1,3.9,0.2,7.8,0.4,11.6c0.1,1.4,0.2,2.7,0.2,4.1c0.1,1.1,0.1,2.2,0.1,3.3c0,0.9,0.1,1.8,0.2,2.7c0.1,0.8,0.3,1.5,0.6,2.3
		c0.4,1.1,1.3,1.9,2.5,1.9c0.7,0,1.3-0.3,1.8-0.8s0.7-1.1,0.8-1.8c0.3-2.8,0.5-5.5,0.9-8.3c0.6-3.9,1.4-7.8,2.9-11.4
		c0.7-1.6,1.6-3.2,2.5-4.7c0.9-1.4,2-2.8,3-4.1c0.3-0.4,0.7-0.7,1-1.1c0.3,0.2,0.7,0.4,1,0.6c0.7,0.5,1.2,1.2,1.8,1.8
		c1.5,2.1,2.8,4.4,3.8,6.7c1.4,3.4,2.4,7,2.9,10.7c0.2,1.7,0.4,3.5,0.5,5.2c0.1,1.1,0.1,2.2,0.2,3.4c0.1,1,0.1,1.9,0.1,2.9
		c0,1.1,0.1,2.3,0,3.5v0.1l0,0c-0.1,0.3-0.1,0.2,0,0.4c0,0.1,0.1,0.1,0.1,0c0.4-1.1,0.6-2.3,0.7-3.4c0.1-0.7,0.2-1.3,0.2-2
		c0.2-1.7,0.3-3.4,0.5-5.1c0.3-3.4,0.2-6.9-0.3-10.3c-0.3-2.1-0.7-4.1-1.3-6.1c-0.6-2.1-1.5-4.2-2.5-6.2c-0.9-1.7-1.9-3.4-3.3-4.8
		c-1.2-1.2-2.8-2.5-4.6-2.5C454.9,271.4,454.7,271.4,454.6,271.4L454.6,271.4z M455.3,276.4c0.1,0,0.1,0.1,0.2,0.1
		C455.4,276.4,455.3,276.4,455.3,276.4L455.3,276.4L455.3,276.4z M455.2,276.4L455.2,276.4L455.2,276.4L455.2,276.4L455.2,276.4z
		 M458.2,279.1l0.1,0.1C458.3,279.1,458.2,279.1,458.2,279.1L458.2,279.1z"/>
	<path class="st0" d="M499.8,244.4c-0.9,5.7-1.6,11.4-2.2,17.1c-0.4,3.9-0.7,7.9-0.8,11.9c-0.1,2.1-0.1,4.2,0,6.3
		c0.1,6.7,0.4,13.4,1.2,20l0,0c0.3-1.6,0.5-3.3,0.7-4.9c0,0.1,0,0.1,0,0.2c0.8-5.9,1.5-11.9,1.9-17.9c0.2-2.6,0.4-5.2,0.4-7.8
		c0.1-3.2,0-6.3-0.1-9.5C500.7,254.6,500.4,249.5,499.8,244.4C499.8,244.4,499.8,244.3,499.8,244.4
		C499.8,244.3,499.8,244.4,499.8,244.4L499.8,244.4z"/>
	<path class="st0" d="M534.9,268.6c-2.3,0.9-4.7,1.5-7.1,2.1c-2.7,0.7-5.4,1.5-8.1,2.1c-3.4,0.8-6.8,1.4-10.2,2
		c-3.4,0.6-6.9,1.4-10.3,2.1s-6.8,1.4-10.2,2.2c-3.3,0.7-6.5,1.5-9.8,2.3l0,0c1.5,0.2,2.9,0.4,4.4,0.6c1.7,0.2,3.5,0.3,5.2,0.4
		c3.5,0.2,7,0.2,10.5,0c1.8-0.1,3.6-0.3,5.4-0.6c1.7-0.2,3.5-0.5,5.2-0.9c3.6-0.8,7-2.1,10.4-3.6c2.8-1.3,5.5-2.9,8.2-4.6
		C530.6,271.6,532.8,270.2,534.9,268.6L534.9,268.6L534.9,268.6L534.9,268.6z"/>
	<path class="st0" d="M540.6,274.5c-0.2-0.1-0.3-0.2-0.5-0.2c-0.4-0.1-0.9,0-1.3,0.1c-0.6,0.1-1.1,0.4-1.6,0.7
		c-1.1,0.6-2.1,1.5-3.1,2.4c-1.2,1.1-2.4,2.1-3.5,3.2s-2.1,2.3-3,3.5c-1,1.3-2.1,2.7-3,4.1c-1,1.5-1.9,3-2.8,4.6
		c-0.4,0.7-0.9,1.4-1.3,2.2c-0.4,0.6-0.7,1.3-1,1.9c-0.2,0.4-0.3,0.7-0.5,1.1c-0.2,0.5-0.4,1.1-0.4,1.6c0,0.4,0.1,0.8,0.2,1.3
		c0.1,0.3,0.2,0.6,0.4,0.9s0.4,0.5,0.6,0.8c0.4,0.3,0.8,0.7,1.3,0.8c0.5,0.2,1.1,0.2,1.6,0.2c1.2,0,2.4-0.5,3.5-1
		c2-0.9,3.8-2.3,5.4-3.8c1.6-1.5,2.9-3.4,4.2-5.1c1.9-2.7,3.6-5.5,5-8.5c0.1,0.3,0.2,0.6,0.2,0.9c0.4,1.6,1.1,3.1,1.8,4.5
		s1.6,2.6,2.6,3.8c0.9,1.1,2,2.1,3.3,2.8c1.3,0.7,2.8,1.1,4.3,1.3c1.5,0.2,3,0.1,4.5-0.5c0.6-0.2,1.2-0.5,1.7-0.8
		c0.6-0.3,1.2-0.8,1.7-1.2c1.3-1,2.5-2,3.6-3.1l0,0c-0.7,0.5-1.5,0.9-2.2,1.3c-1.1,0.5-2.2,1.1-3.3,1.6c-0.8,0.3-1.5,0.5-2.3,0.6
		c-0.6,0.1-1.2,0.1-1.8,0c-1-0.2-1.9-0.5-2.8-0.8c-0.7-0.3-1.4-0.7-2-1.1c-0.5-0.4-1-0.9-1.4-1.4c-0.9-1.3-1.7-2.6-2.3-4
		c-0.7-1.8-1.2-3.6-1.4-5.5c-0.3-2.5-0.1-5-0.1-7.5c0-1.1-0.8-2.1-1.8-2.4c-0.2-0.1-0.4-0.1-0.7-0.1
		C541.7,273.6,541.1,274,540.6,274.5L540.6,274.5z M540,274.6c0.1,0,0.2,0,0.4,0.1l-0.1,0.1c-0.9,1.4-1.4,2.8-2.2,4.3
		c-0.6,1.1-1.1,2.2-1.7,3.3c-1.8,3.5-3.9,6.9-6.3,10c-1.2,1.5-2.5,2.9-4,4.2c-0.8,0.6-1.6,1.1-2.4,1.5c0.1-0.5,0.3-1,0.5-1.5v0.1
		c1.1-2.7,2.3-5.4,3.8-8c1.4-2.5,3-5,4.7-7.3c0.8-1,1.7-2,2.5-3c0.9-1,1.8-2,2.8-2.9c0.4-0.3,0.7-0.5,1.1-0.7
		c0.3-0.1,0.5-0.2,0.8-0.2C539.9,274.6,540,274.6,540,274.6L540,274.6z M541.2,275.2L541.2,275.2L541.2,275.2L541.2,275.2
		L541.2,275.2z M538,275.5C538,275.5,537.9,275.5,538,275.5C537.9,275.5,538,275.5,538,275.5L538,275.5z M532.7,281.2l-0.1,0.1
		C532.6,281.3,532.7,281.3,532.7,281.2L532.7,281.2z M532.6,281.4L532.6,281.4L532.6,281.4L532.6,281.4z M523.3,299.2L523.3,299.2
		L523.3,299.2L523.3,299.2L523.3,299.2L523.3,299.2z"/>
	<path class="st0" d="M581.3,274.7c-0.6,0-1.1,0-1.7,0.1c-0.7,0.1-1.4,0.3-2.2,0.6c-2.5,0.8-4.8,2.1-7,3.6s-4.1,3.3-5.9,5.1
		c-0.9,0.9-1.7,1.8-2.5,2.8c-0.8,1.1-1.6,2.2-2.3,3.3c-0.7,1.1-1.3,2.2-1.7,3.4c-0.2,0.5-0.3,1.1-0.4,1.7c-0.1,0.7-0.2,1.4-0.1,2.1
		c0.1,2.5,1.8,4.6,3.7,6.2c0.9,0.8,1.9,1.5,2.9,2c1.2,0.7,2.5,1.2,3.8,1.6c1.2,0.4,2.4,0.6,3.6,0.8c1.4,0.2,2.8,0.3,4.2,0.2
		c2-0.1,4-0.5,6-1.1c1.9-0.5,3.8-1.2,5.6-2s3.5-1.8,5.2-2.8s3.3-2.1,4.9-3.2c1.2-0.9,2.5-1.7,3.7-2.6c1.3-1,2.6-1.9,3.7-3.1l0,0
		c-1.6,1.1-3.3,2-5,2.8c-1,0.5-2.1,1-3.1,1.6c-1.2,0.6-2.3,1.2-3.5,1.7c-1.2,0.6-2.5,1.1-3.7,1.6h0.1c-0.1,0-0.1,0.1-0.2,0.1h-0.1
		l0,0c-1.7,0.7-3.5,1.4-5.3,1.8c-1.8,0.5-3.7,0.9-5.6,1.1c-1,0.1-2,0.2-3,0.2s-1.9-0.1-2.9-0.2c-1.9-0.3-3.7-0.7-5.5-1.5
		c-1.2-0.5-2.3-1.2-3.3-1.9c-0.7-0.6-1.4-1.2-1.9-1.9c-0.3-0.4-0.5-0.7-0.7-1.1c-0.1-0.3-0.2-0.5-0.2-0.8c-0.1-0.7,0-1.4,0-2.2
		c0.1-0.7,0.3-1.3,0.6-1.9c1-2.3,2.3-4.5,3.9-6.5c2-2.5,4.2-4.9,6.7-6.9l0,0c0,0,0,0,0.1,0c0,0,0.1,0,0.1-0.1c0,0,0,0-0.1,0.1
		c1.9-1.4,3.9-2.6,6-3.6c0.5-0.2,0.9-0.4,1.4-0.5c0.5-0.2,1-0.2,1.5-0.3l0,0l0,0l0,0l0,0c1.4-0.2,2.8-0.4,4.2-0.6l0,0
		C583.9,274.7,582.6,274.7,581.3,274.7L581.3,274.7z M560.8,296.8L560.8,296.8L560.8,296.8L560.8,296.8z M578.5,304.1
		c-0.1,0-0.1,0-0.2,0C578.4,304.1,578.5,304.1,578.5,304.1L578.5,304.1z M589.2,301.2L589.2,301.2c0.1,0,0.2-0.1,0.2-0.1
		C589.3,301.1,589.2,301.2,589.2,301.2L589.2,301.2z M572,279.6L572,279.6L572,279.6L572,279.6L572,279.6z M581,275.2L581,275.2
		L581,275.2L581,275.2z"/>
	<path class="st0" d="M606.2,249.8c-0.6,9.1-0.8,18.2-0.2,27.2c0.2,4.1,0.7,8.2,1.3,12.3c0.5,3.2,1.1,6.4,1.9,9.6
		c0.3,1.4,0.7,2.8,1.3,4.2c0.3,0.6,0.7,1.2,1.2,1.6c0.4,0.4,0.9,0.5,1.5,0.5c0.5,0,1.1-0.4,1.5-0.7c0.5-0.4,0.8-0.9,1.1-1.5
		c0.6-1.6,0.8-3.2,0.7-4.9l0,0c-0.2,0.5-0.3,1-0.5,1.5l0,0c-0.2,0.5-0.5,1-0.8,1.5c-0.2,0.4-0.5,0.8-0.8,1.2
		c-0.1,0.1-0.2,0.2-0.3,0.4c0.1,0,0.1-0.1,0.2-0.1c-0.2,0.2-0.4,0.3-0.6,0.4c-0.1,0-0.2,0.1-0.4,0.1c-0.1-0.1-0.1-0.3-0.2-0.4
		c0,0.1,0.1,0.2,0.1,0.3c-0.2-0.6-0.3-1.1-0.4-1.7c-0.2-2.5-0.2-4.9-0.3-7.4c-0.1-1.2-0.1-2.5-0.2-3.7c-0.1-4.3-0.4-8.6-0.9-12.9
		c-0.9-7.9-2.3-15.8-4.2-23.5C606.9,252.3,606.6,251.1,606.2,249.8C606.3,249.8,606.3,249.8,606.2,249.8L606.2,249.8L606.2,249.8z
		 M613.6,302.9c-0.1,0-0.1,0.1-0.2,0.1C613.5,302.9,613.6,302.9,613.6,302.9L613.6,302.9z M613.4,303L613.4,303
		C613.3,303,613.3,303,613.4,303L613.4,303L613.4,303z M615.9,299.5C615.9,299.5,616,299.5,615.9,299.5
		C616,299.5,615.9,299.5,615.9,299.5L615.9,299.5z"/>
	<path class="st0" d="M627.9,273.3c-3.7,0.1-7.5,0.4-11.1,0.9s-7.2,1.3-10.7,2.3c-5.2,1.5-10.2,3.5-15.1,5.8l0,0
		c4.9,0.6,9.7,0.8,14.6,0.6c3-0.1,6-0.4,9-1c1.4-0.1,2.7-0.5,4-0.9c1.2-0.3,2.4-0.7,3.5-1.1c1.8-0.6,3.5-1.3,5.2-2
		c3.6-1.5,7.1-3.1,10.5-4.9l0,0C634.5,273.2,631.2,273.2,627.9,273.3L627.9,273.3z"/>
</g>
</svg>
